<svg id="bg" xmlns="http://www.w3.org/2000/svg" xmlns:xlink="http://www.w3.org/1999/xlink" width="146" height="259.4" viewBox="0 0 146 259.4">
  <defs>
    <style>
      .cls-1, .cls-2 {
        fill: none;
      }

      .cls-2 {
        stroke: #202020;
        stroke-linecap: round;
        stroke-linejoin: round;
        stroke-width: 2px;
      }

      .cls-3 {
        opacity: 0.15;
        fill: url(#New_Pattern);
      }
    </style>
    <pattern id="New_Pattern" data-name="New Pattern" width="469.9" height="436" patternTransform="translate(-422.8 -365.2) scale(0.34 0.35)" patternUnits="userSpaceOnUse" viewBox="0 0 469.9 436">
      <rect class="cls-1" width="469.9" height="436"/>
      <path class="cls-2" d="M322,66h24c12,0,22,.6,22-10s-7.6-20-28-20-28,13.6-28,20S319,66,322,66Zm12-16c0-6.1-4.2-10-6.9-11.8M344,48c-.6-5.7-3-10.6-6-12m16,12c-.6-5.7-3.3-9.7-6-11.5"/>
      <path class="cls-2" d="M443,183V163"/>
      <circle class="cls-2" cx="443" cy="143" r="20"/>
      <path class="cls-2" d="M446.2,142.2c0-3.3-4.3-4-6.3-2.2s-2,7-.6,8.6a7.6,7.6,0,0,0,10.8.8,9.5,9.5,0,0,0,.9-13.5h0a12,12,0,0,0-16.9-1.2,15,15,0,0,0-1.4,21.1,18.6,18.6,0,0,0,16.3,6.3"/>
      <path class="cls-2" d="M148,241l34.2-34.2"/>
      <path class="cls-2" d="M178.5,191.6a16.2,16.2,0,0,0-.1,9,15.3,15.3,0,0,0,19,10m9.1-8a14.8,14.8,0,0,0,0-13,15.1,15.1,0,0,0-20.1-7.1"/>
      <path class="cls-2" d="M207.1,206.1a2.1,2.1,0,0,0,0-2.9l-21.3-21.3h0a2.1,2.1,0,0,0-2.9,0l-5.7,5.7h0a1.9,1.9,0,0,0,0,2.8l21.4,21.4h0a1.9,1.9,0,0,0,2.8,0Z"/>
      <path class="cls-2" d="M204.6,339a5.4,5.4,0,0,1-2.7,1.8,5.9,5.9,0,0,1-7.6-3.8H193a9,9,0,0,1,0-18h1a6.4,6.4,0,0,1,.5-2.3,5.9,5.9,0,0,1,7.8-3.2,13,13,0,0,1,25.7,1.7,7,7,0,0,1,11,8.4,8,8,0,0,1-3,15.4h-.7a7.3,7.3,0,0,1-3.2,3.3,7,7,0,0,1-9.4-3.1"/>
      <path class="cls-2" d="M223.7,334.6,220,353H206l-2-20.6m8,20.6V337"/>
      <path class="cls-2" d="M229.1,335.7a13,13,0,0,1-11.5-7,13,13,0,0,1-17.6,1.5"/>
      <path class="cls-2" d="M325,296.5a9.4,9.4,0,0,1,3.4,4.2c4.3,9.8,11.5,14,20.9,15.9l3.6,1h.1a14.2,14.2,0,0,1,8.3,6.7,14,14,0,0,1-5.6,19c-1.3,1-3.4,1.7-6.7,1.7h-1.4c-13.8-1.2-30.2-20.4-35.1-33.9"/>
      <path class="cls-2" d="M317,303l-4.5,8a20.9,20.9,0,0,1-1.5-7,9,9,0,0,1,14-7.5V307Zm6-18c-6,0-8.4,4.6-6,10.5"/>
      <path class="cls-2" d="M178,395.3c-3.2-1.5-4-10.3-4-10.3h-4a18.7,18.7,0,0,1-3.9,10.3"/>
      <path class="cls-2" d="M180.7,405c-1.8-6-5-10-8.7-10-5.5,0-10,9-10,20s4.5,20,10,20c3.7,0,7-4,8.7-10m-19.9-29.3a10.4,10.4,0,0,0-3.9-.7c-8.2,0-14.9,9-14.9,20s6.7,20,15,20a10.4,10.4,0,0,0,3.9-.7m22.3-38.6a10.7,10.7,0,0,1,3.9-.7c8.2,0,14.9,9,14.9,20s-6.7,20-15,20a10.7,10.7,0,0,1-3.9-.7"/>
      <path class="cls-2" d="M168.4,396.4A7.7,7.7,0,0,0,164,395c-5.3,0-9.9,5.9-11.4,14m1,16c2.1,6,6,10,10.4,10a7.7,7.7,0,0,0,4.4-1.4m7.2-37.2A7.7,7.7,0,0,1,180,395c6.7,0,12,9,12,20s-5.4,20-12,20a7.6,7.6,0,0,1-4.3-1.4"/>
      <path class="cls-2" d="M99.7,52.2a8.9,8.9,0,0,0-.8-1.7,6,6,0,1,0-9.8,7m2.8-9.2C90.7,44.2,85.2,42,82,42"/>
      <path class="cls-2" d="M134.1,102h-.2c-26-.1-45.9-27.6-45.9-39.6V62a10,10,0,0,1,17.3-6.7h.1l.9,1.1c2.7,3.8,4.2,9,9.2,22S125.6,94,134,94a4,4,0,0,1,.1,8Z"/>
      <path class="cls-2" d="M275.3,7.7l-15,15m5-21.7L257,19.3m25-1.6L263.7,26"/>
      <path class="cls-2" d="M256,58.4a22.1,22.1,0,0,1-16.4.2c-6.2-1.8-10.9-4.3-17.6,2.4,6.7-6.7,4.3-12.1,2.4-17.6a22.1,22.1,0,0,1,.2-16.4m7.8-8.9c8.4-5,19.9-3.3,27.9,4.6s9.6,19.5,4.6,27.9"/>
      <path class="cls-2" d="M232.4,18.1l32.5,32.5a19.3,19.3,0,0,1-8.9,7.8L224.7,27a20.3,20.3,0,0,1,4-6A20.6,20.6,0,0,1,232.4,18.1Z"/>
      <path class="cls-2" d="M256,112h-6v4a30,30,0,0,0,60,0v-4h-6"/>
      <path class="cls-2" d="M304,112v4a24,24,0,0,1-48,0v-4Zm-24,20v-4m-16-8h4m23.7,0h4m-26.5,8.8L272,126m18.8,2.8L288,126"/>
      <path class="cls-2" d="M326.3,198.8a8.4,8.4,0,0,0-7.3,1.8,43.4,43.4,0,0,0-16,34c0,7.7,1,14,8,14"/>
      <path class="cls-2" d="M345.6,202.6c1.2-3.9-3.4-6.6-6.8-4.3s-7.8.3-7.8.3c-3.2-1.1-7.8.6-8,4.7s.4,5.4-2,7.3-6.9,1.3-5,6-.2,5.8-2.4,7-3.6,4.4-2.3,6.7,4.4,3.6,2.5,6.4-2.1,5.6,4.6,6.5"/>
      <path class="cls-2" d="M311,248.6c6.7,0,9.3-7.4,10.7-19.5s4.1-21.1,14.9-25.1,17.5.6,20.7,6.6,5.7,16,5.7,16l-49.6,21.6"/>
      <circle class="cls-2" cx="84" cy="255" r="4"/>
      <circle class="cls-2" cx="90" cy="265" r="2"/>
      <circle class="cls-2" cx="76" cy="268.5" r="2.5"/>
      <path class="cls-2" d="M77.5,240.3,80,233c14.1,5.6,26,16.1,32,30l-7,3.1"/>
      <path class="cls-2" d="M105,266.1,62,285l15.5-44.7C89.6,245.1,99.8,254.1,105,266.1ZM72,289v-8.4M80,293V277.1M96,283V270.1"/>
      <path class="cls-2" d="M25,150c0,3,2.5,5,4,6l1.1.7A1.8,1.8,0,0,1,31,158m-.1,16v16.9a2.3,2.3,0,0,1-.4,1.4L27,195.5a.9.9,0,0,1-.8.5H5.7c-.3,0-.5-.2-.8-.5l-3.5-3.2a2.3,2.3,0,0,1-.4-1.4M1,170V157.9c0-.6.6-1,.9-1.3S7,154,7,150m4,0-6-6m22,6H5"/>
      <path class="cls-2" d="M31,174c0,4.2-30,8.1-30,16m0-20c0-6.6,21.3-10.5,28-14m0,0,1.1.7A1.8,1.8,0,0,1,31,158v16M1,190.9V170"/>
      <circle class="cls-2" cx="18" cy="137" r="1"/>
      <circle class="cls-2" cx="26" cy="141" r="1"/>
      <circle class="cls-2" cx="20" cy="145" r="1"/>
      <path class="cls-2" d="M443.1,321.9l-7.8-22m33.3-3.5-22-7.8m-27.4,26.3,4.4-15.3m37.8-27.2-14.9,4.3"/>
      <path class="cls-2" d="M460,271a29.4,29.4,0,0,1,8.6,17.6,30,30,0,1,1-59.5,7.4c-.2-2.8,1.8-6.6,4.3-6.6s11.5,22.7,28.4,5.7-5.1-26.9-5.7-28.3,2-4.8,6.7-4.3a29.4,29.4,0,0,1,17.3,8.5Z"/>
    </pattern>
  </defs>
  <title>bg</title>
  <rect class="cls-3" width="146" height="259.35"/>
</svg>
