<?xml version="1.0" encoding="utf-8"?>
<!-- Generator: Adobe Illustrator 22.1.0, SVG Export Plug-In . SVG Version: 6.00 Build 0)  -->
<svg version="1.1" id="coffee" xmlns="http://www.w3.org/2000/svg" xmlns:xlink="http://www.w3.org/1999/xlink" x="0px" y="0px"
	 viewBox="0 0 1024 1024" style="enable-background:new 0 0 1024 1024;" xml:space="preserve">
<style type="text/css">
	.st0{fill:#BECBCA;}
	.st1{fill:#A96750;}
	.st2{fill:#F9EADB;}
	.st3{fill:#442C41;}
	.st4{fill:#C17E6C;}
	.st5{fill:#CC9D64;}
	.st6{fill:#FFFFFF;}
</style>
<g>
	<g>
		<g>
			<g>
				<path class="st0" d="M698.1,249.2c0.3,1-4.7,3.5-14.1,7.1c-2.4,0.9-5,1.9-7.9,2.9c-2.9,1-6.1,2-9.5,3
					c-6.8,2.1-14.6,4.6-23.4,6.6c-4.4,1.1-9,2.2-13.7,3.4c-2.4,0.6-4.8,1.1-7.3,1.6c-2.5,0.5-5.1,1-7.7,1.5c-2.6,0.5-5.2,1-7.9,1.6
					c-1.3,0.3-2.7,0.5-4.1,0.8c-1.4,0.2-2.8,0.4-4.1,0.7c-5.6,0.9-11.3,1.8-17.2,2.7c-23.6,3.2-49.8,5.6-77.3,6.2
					c-27.5,0.4-53.8-0.9-77.5-3.3c-5.9-0.7-11.7-1.4-17.3-2.1c-1.4-0.2-2.8-0.3-4.2-0.5c-1.4-0.2-2.7-0.4-4.1-0.6
					c-2.7-0.4-5.4-0.9-8-1.3c-2.6-0.4-5.2-0.8-7.7-1.3c-2.5-0.4-5-0.8-7.4-1.3c-4.8-1-9.4-1.9-13.8-2.9c-8.8-1.7-16.7-3.9-23.6-5.7
					c-3.4-0.9-6.7-1.8-9.6-2.7c-2.9-0.9-5.6-1.8-8-2.6c-9.5-3.3-14.6-5.5-14.4-6.5c0.3-1,5.9-0.7,15.8,0.8c2.5,0.4,5.2,0.8,8.2,1.3
					c3,0.4,6.3,0.9,9.8,1.4c7,1,14.9,2.4,23.7,3.5c4.4,0.6,9,1.2,13.8,1.9c2.4,0.4,4.9,0.6,7.3,0.8c2.5,0.3,5,0.5,7.6,0.8
					c2.6,0.3,5.2,0.6,7.9,0.9c1.3,0.1,2.7,0.3,4,0.4c1.4,0.1,2.7,0.2,4.1,0.3c5.5,0.5,11.2,0.9,17,1.4c23.3,1.5,49,2.5,76,2
					c27-0.6,52.6-2.5,75.8-4.9c5.8-0.7,11.5-1.4,17-2c1.4-0.2,2.7-0.3,4.1-0.5c1.4-0.2,2.7-0.4,4-0.6c2.7-0.4,5.3-0.8,7.9-1.2
					c2.6-0.4,5.1-0.7,7.6-1.1c2.5-0.4,4.9-0.7,7.3-1.1c4.8-0.8,9.3-1.6,13.7-2.4c8.8-1.4,16.6-3.1,23.6-4.3c3.5-0.6,6.7-1.2,9.7-1.8
					c3-0.6,5.7-1.2,8.1-1.6C692.2,248.7,697.8,248.2,698.1,249.2z"/>
			</g>
		</g>
	</g>
	<g>
		<path class="st0" d="M687.8,357.2c0,0,99.1-11.7,99.1,75.8s-110.8,81.6-110.8,81.6l-11.7,35c0,0,156,29.4,163.3-116.6
			c5.8-116.6-134.1-110.8-134.1-110.8L687.8,357.2z"/>
		<path class="st0" d="M291.3,246.4l70,530.7c0,0,28.6,107.7,134.1,110.8c114.3,3.4,154.3-45.7,163.3-169.1
			c9-122.7,58.3-478.2,58.3-478.2S489.6,135.6,291.3,246.4z"/>
		<path class="st0" d="M460.4,876.2v23.3c0,0-110.8,5.8-75.8,35c35,29.2,250.8,29.2,262.4-5.8c0,0,0-29.2-81.6-29.2v-23.3H460.4z"/>
		<path class="st1" d="M337.9,479.6l26.4,244c3.8,34.9,16.5,68.6,38.2,96.5c22.4,28.8,57,56.1,107.5,56.1
			c130.6,0,136.5-140,136.5-140l29.7-256.6C676.2,479.6,462.5,520.5,337.9,479.6z"/>
		<path class="st2" d="M337.9,485.5L308.8,258c0,0,204.1-87.5,390.7,0l-23.3,221.6C676.2,479.6,547.9,526.3,337.9,485.5z"/>
		<g>
			<path class="st2" d="M310.7,270.4c-6.4-21.9,3.1-46.2,19.6-61.9c16.5-15.7,38.8-24,61.1-28.4c-16,1.4-25.8-18.5-24.3-34.5
				c1.5-15.9,9.5-31.2,21.8-41.4c38.3-31.9,103.6-10.4,140-44.4c12.2-11.4,19.1-28.1,18.6-44.8c17.8,9.7,35.2,20.1,52.2,31.1
				c9.5,6.2,19.1,12.7,26.4,21.4c20.3,24.5,18,61.5,4.1,90.1c2.6-5.9,10-8.5,16.4-7.4c6.4,1.1,11.9,5,16.9,9.1
				c16.3,13.2,30.5,29.7,37.2,49.6s5,43.2-7.8,59.8c-7.7,10-18.8,16.8-30.2,22.3c-34,16.2-72.1,21.6-109.6,25
				c-26.3,2.4-52.6,4-79,4.8c-22.6,0.7-45.5,0.7-67.5-4.6c-35.6-8.6-66.4-30.5-96.1-51.9"/>
		</g>
		<g>
			<g>
				<g>
					<path class="st0" d="M698.1,249.2c0.3,1-4.7,3.5-14.1,7.1c-2.4,0.9-5,1.9-7.9,2.9c-2.9,1-6.1,2-9.5,3
						c-6.8,2.1-14.6,4.6-23.4,6.6c-4.4,1.1-9,2.2-13.7,3.4c-2.4,0.6-4.8,1.1-7.3,1.6c-2.5,0.5-5.1,1-7.7,1.5c-2.6,0.5-5.2,1-7.9,1.6
						c-1.3,0.3-2.7,0.5-4.1,0.8c-1.4,0.2-2.8,0.4-4.1,0.7c-5.6,0.9-11.3,1.8-17.2,2.7c-23.6,3.2-49.8,5.6-77.3,6.2
						c-27.5,0.4-53.8-0.9-77.5-3.3c-5.9-0.7-11.7-1.4-17.3-2.1c-1.4-0.2-2.8-0.3-4.2-0.5c-1.4-0.2-2.7-0.4-4.1-0.6
						c-2.7-0.4-5.4-0.9-8-1.3c-2.6-0.4-5.2-0.8-7.7-1.3c-2.5-0.4-5-0.8-7.4-1.3c-4.8-1-9.4-1.9-13.8-2.9c-8.8-1.7-16.7-3.9-23.6-5.7
						c-3.4-0.9-6.7-1.8-9.6-2.7c-2.9-0.9-5.6-1.8-8-2.6c-9.5-3.3-14.6-5.5-14.4-6.5c0.3-1,5.9-0.7,15.8,0.8c2.5,0.4,5.2,0.8,8.2,1.3
						c3,0.4,6.3,0.9,9.8,1.4c7,1,14.9,2.4,23.7,3.5c4.4,0.6,9,1.2,13.8,1.9c2.4,0.4,4.9,0.6,7.3,0.8c2.5,0.3,5,0.5,7.6,0.8
						c2.6,0.3,5.2,0.6,7.9,0.9c1.3,0.1,2.7,0.3,4,0.4c1.4,0.1,2.7,0.2,4.1,0.3c5.5,0.5,11.2,0.9,17,1.4c23.3,1.5,49,2.5,76,2
						c27-0.6,52.6-2.5,75.8-4.9c5.8-0.7,11.5-1.4,17-2c1.4-0.2,2.7-0.3,4.1-0.5c1.4-0.2,2.7-0.4,4-0.6c2.7-0.4,5.3-0.8,7.9-1.2
						c2.6-0.4,5.1-0.7,7.6-1.1c2.5-0.4,4.9-0.7,7.3-1.1c4.8-0.8,9.3-1.6,13.7-2.4c8.8-1.4,16.6-3.1,23.6-4.3
						c3.5-0.6,6.7-1.2,9.7-1.8c3-0.6,5.7-1.2,8.1-1.6C692.2,248.7,697.8,248.2,698.1,249.2z"/>
				</g>
			</g>
		</g>
		<g>
			<g>
				<g>
					<path class="st0" d="M626.2,662.3c-1.1-0.1-1.1-6.7-2.6-18.3c-0.8-5.8-2-12.8-3.7-21c-1.7-8.2-4-17.5-6.4-27.9
						c-2.3-10.5-4.7-22.2-5.5-35.3c-0.4-6.5-0.3-13.4,0.6-20.5c0.9-7.1,2.7-14.4,5.4-21.4c5.3-14.1,13.7-27.1,22.1-39.9
						c4.2-6.4,8.4-12.8,12.3-19.4c1.9-3.3,3.9-6.7,5.2-9.6c0.6-1.5,1.1-2.8,1.3-4.1c0.1-0.6,0.1-1.2,0.2-1.7c0-0.6,0-1.2-0.2-1.7
						c-0.2-1.1-0.6-2.1-1.2-3.1c-0.6-1-1.4-2-2.4-3c-2-2-4.9-3.7-7.9-5.1c-3.1-1.4-6.4-2.5-9.8-3.4c-0.9-0.2-1.7-0.4-2.6-0.6
						l-1.3-0.3l-1.4-0.3c-2-0.4-3.9-0.8-5.9-1.3c-4-1-7.9-2.1-11.9-3.7c-3.9-1.6-7.9-3.6-11.5-6.4c-3.6-2.8-7-6.7-8.9-11.4l-0.7-1.7
						c-0.2-0.6-0.3-1.2-0.5-1.8l-0.4-1.8c-0.1-0.6-0.2-1.2-0.3-1.8c-0.3-2.4-0.1-4.7,0.1-6.9c0.3-2.1,0.7-4.1,1.2-6
						c0.5-1.9,1-3.5,1.5-5.3c0.5-1.7,1.1-3.4,1.6-5.1c0.6-1.7,1.2-3.3,1.8-4.9c0.6-1.6,1.2-3.3,1.9-4.8c0.7-1.6,1.4-3.1,2-4.7
						c0.3-0.8,0.7-1.5,1-2.3c0.4-0.7,0.7-1.5,1.1-2.2c0.7-1.5,1.5-2.9,2.2-4.4c6-11.5,13-21.5,20.2-29.8
						c7.1-8.4,14.4-15.1,21.2-20.6c1.7-1.3,3.4-2.6,5-3.9c1.7-1.1,3.3-2.2,4.8-3.3c0.8-0.5,1.5-1,2.2-1.5c0.7-0.5,1.5-0.9,2.2-1.4
						c1.5-0.9,2.8-1.7,4.1-2.5c5.3-2.9,9.6-4.9,12.6-6c3-1.1,4.7-1.4,4.9-0.9c0.2,0.5-1,1.7-3.5,3.6c-2.5,1.9-6.2,4.6-10.8,8.2
						c-1.1,0.9-2.3,1.9-3.6,2.9c-0.6,0.5-1.3,1-1.9,1.6c-0.6,0.6-1.3,1.1-2,1.7c-1.3,1.2-2.7,2.4-4.2,3.6c-1.4,1.3-2.8,2.7-4.3,4.1
						c-5.9,5.8-12.2,12.7-18.4,20.9c-6.2,8.2-12.2,17.8-17.3,28.7c-0.6,1.4-1.2,2.8-1.9,4.1c-0.3,0.7-0.6,1.4-0.9,2.1
						c-0.3,0.7-0.6,1.4-0.8,2.2c-0.6,1.4-1.1,2.9-1.7,4.4c-0.6,1.5-1,3-1.6,4.5c-0.5,1.5-1,3-1.5,4.6c-0.4,1.6-0.9,3.1-1.3,4.7
						c-0.4,1.6-0.9,3.2-1.2,4.7c-0.3,1.5-0.6,3-0.7,4.3c-0.1,1.4-0.1,2.6,0,3.7c0,0.3,0.1,0.5,0.1,0.8l0.2,0.8l0.2,0.8
						c0.1,0.2,0.2,0.5,0.3,0.7c0.9,2,2.4,3.8,4.6,5.5c2.2,1.6,5,3,8,4.2c3.1,1.2,6.4,2.1,9.9,2.9c1.7,0.4,3.5,0.8,5.4,1.1l1.4,0.3
						c0.5,0.1,1,0.2,1.6,0.3c1,0.2,2.1,0.5,3.1,0.7c4.1,1,8.3,2.4,12.4,4.3c4.1,1.9,8.3,4.3,12.1,7.8c1.9,1.8,3.7,3.9,5.1,6.3
						c1.5,2.4,2.5,5.3,3,8.2c0.3,1.5,0.4,2.9,0.4,4.3c0,1.5-0.1,2.9-0.4,4.3c-0.5,2.8-1.3,5.2-2.3,7.4c-0.9,2.2-2,4.2-3,6
						c-1,1.8-2,3.6-3.1,5.4c-4.2,7-8.6,13.6-12.9,19.9c-8.6,12.6-16.5,24.6-21.4,36.7c-1.2,3-2.3,6.1-3.1,9.1
						c-0.2,0.8-0.4,1.5-0.6,2.3c-0.2,0.8-0.4,1.5-0.6,2.3c-0.3,1.5-0.6,3-0.9,4.6c-1,6.1-1.3,12.2-1.2,18.2
						c0.2,11.9,1.9,23.3,3.5,33.7c1.6,10.4,3.2,20,4.2,28.5c1,8.5,1.4,16,1.2,22.1C629.2,655.9,627.1,662.4,626.2,662.3z"/>
				</g>
			</g>
		</g>
		<g>
			<g>
				<g>
					<path class="st3" d="M420.7,476.2c-0.5-0.1-1-0.4-1.5-0.9c-0.5-0.5-0.8-1.2-1.3-2c-0.9-1.6-2-3.7-3.8-5.9c-1.7-2.1-4-4.4-6.9-6
						c-1.4-0.8-2.9-1.5-4.4-1.8c-1.5-0.3-3-0.4-4.6-0.2c-1.6,0.2-3.2,0.7-4.7,1.4c-1.5,0.7-2.9,1.7-4.2,2.7
						c-1.3,1.1-2.3,2.3-3.3,3.4c-0.4,0.6-0.9,1.2-1.2,1.8c-0.2,0.3-0.4,0.6-0.6,0.9c-0.1,0.3-0.3,0.6-0.4,0.9
						c-0.6,1.2-1,2.3-1.4,3.4c-0.1,0.1-0.1,0.3-0.2,0.4c0,0.1,0-0.1,0-0.1c0-0.1,0-0.1-0.1-0.2c-0.1-0.1-0.1-0.2-0.2-0.3
						c-0.2-0.3-0.4-0.3-0.5-0.3c-0.1,0-0.2,0.1-0.3,0.1c-0.1,0-0.1,0.1-0.3,0c-0.1,0-0.1,0-0.3,0c-0.2,0-0.2,0-0.5,0.1
						c-0.3,0-0.4,0.1-0.8,0.3c-0.3,0.2-0.6,0.4-0.8,0.7c-0.1,0.1-0.2,0.3-0.3,0.5c0,0.1-0.1,0.2-0.1,0.3c0,0.1,0,0.2,0,0.3
						c0,0.1,0,0.1,0,0.2c0.1,0.3,0.3,0.9,0.7,1.1c0.3,0.2,0.5,0.1,0.6,0c0.1-0.1,0.1-0.2,0-0.4c-0.1-0.5-0.5-1-0.5-1.6
						c0-0.5,0.2-1.1,1.1-1.4c0.2-0.1,0.5-0.1,0.9-0.1c0.4,0,0.9,0.2,1.4,0.7c0.6,0.5,1,1.5,1,2.2c0,0.1,0,0.2,0,0.3
						c0,0.2,0,0.3-0.1,0.5c0,0.2-0.1,0.3-0.2,0.5c-0.1,0.2-0.2,0.4-0.4,0.6c-0.5,0.8-1.7,1.2-2.3,1.3c-0.4,0.1-0.6,0-0.9,0
						c-0.3,0-0.5,0-0.7-0.1c-0.4-0.1-0.7-0.2-1-0.3c-0.6-0.2-1.1-0.5-1.7-0.9c-0.5-0.4-1.1-1-1.5-1.9c-0.1-0.2-0.2-0.4-0.3-0.7
						c0-0.1-0.1-0.3-0.1-0.4c0-0.1-0.1-0.4-0.1-0.4c-0.1-0.2-0.1-0.4-0.2-0.6c-0.5-1.7-0.8-3.7-0.6-6c0-0.6,0.1-1.1,0.1-1.7
						c0.1-0.6,0.2-1.2,0.3-1.8c0.2-1.2,0.7-2.4,1.1-3.7c1-2.4,2.4-5,4.3-7.3c1.9-2.3,4.3-4.4,7.2-6.2c2.9-1.7,6.3-3,10-3.5
						c3.7-0.5,7.5-0.1,10.8,1c3.3,1.1,6.1,2.8,8.5,4.7c1.2,0.9,2.2,2,3.1,3.1c0.5,0.5,0.9,1.1,1.3,1.6c0.2,0.3,0.4,0.5,0.6,0.8
						c0.2,0.3,0.3,0.6,0.5,0.8c0.3,0.6,0.7,1.1,1,1.7c0.3,0.6,0.5,1.1,0.8,1.7c0.1,0.3,0.2,0.5,0.4,0.8c0.1,0.3,0.2,0.6,0.3,0.8
						c0.2,0.5,0.3,1.1,0.5,1.6c1.1,4.2,0.8,7.9-0.2,10.2c-0.4,1.1-1,2-1.5,2.5C421.7,476.1,421.2,476.3,420.7,476.2z"/>
				</g>
			</g>
		</g>
		<g>
			<g>
				<g>
					<path class="st3" d="M554.8,470.4c-0.5-0.1-1-0.4-1.5-0.9c-0.5-0.5-0.8-1.2-1.3-2c-0.9-1.6-2-3.7-3.8-5.9c-1.7-2.1-4-4.4-6.9-6
						c-1.4-0.8-2.9-1.5-4.4-1.8c-1.5-0.3-3-0.4-4.6-0.2c-1.6,0.2-3.2,0.7-4.7,1.4c-1.5,0.7-2.9,1.7-4.2,2.7
						c-1.3,1.1-2.3,2.3-3.3,3.4c-0.4,0.6-0.9,1.2-1.2,1.8c-0.2,0.3-0.4,0.6-0.6,0.9c-0.1,0.3-0.3,0.6-0.4,0.9
						c-0.6,1.2-1,2.3-1.4,3.4c-0.1,0.1-0.1,0.3-0.2,0.4c0,0.1,0-0.1,0-0.1c0-0.1,0-0.1-0.1-0.2c-0.1-0.1-0.1-0.2-0.2-0.3
						c-0.2-0.3-0.4-0.3-0.5-0.3c-0.1,0-0.2,0.1-0.3,0.1c-0.1,0-0.1,0.1-0.3,0c-0.1,0-0.1,0-0.3,0c-0.2,0-0.2,0-0.5,0.1
						c-0.3,0-0.4,0.1-0.8,0.3c-0.3,0.2-0.6,0.4-0.8,0.7c-0.1,0.1-0.2,0.3-0.3,0.5c0,0.1-0.1,0.2-0.1,0.3c0,0.1,0,0.2,0,0.3
						c0,0.1,0,0.1,0,0.2c0.1,0.3,0.3,0.9,0.7,1.1c0.3,0.2,0.5,0.1,0.6,0c0.1-0.1,0.1-0.2,0-0.4c-0.1-0.5-0.5-1-0.5-1.6
						c0-0.5,0.2-1.1,1.1-1.4c0.2-0.1,0.5-0.1,0.9-0.1c0.4,0,0.9,0.2,1.4,0.7c0.6,0.5,1,1.5,1,2.2c0,0.1,0,0.2,0,0.3
						c0,0.2,0,0.3-0.1,0.5c0,0.2-0.1,0.3-0.2,0.5c-0.1,0.2-0.2,0.4-0.4,0.6c-0.5,0.8-1.7,1.2-2.3,1.3c-0.4,0.1-0.6,0-0.9,0
						c-0.3,0-0.5,0-0.7-0.1c-0.4-0.1-0.7-0.2-1-0.3c-0.6-0.2-1.1-0.5-1.7-0.9c-0.5-0.4-1.1-1-1.5-1.9c-0.1-0.2-0.2-0.4-0.3-0.7
						c0-0.1-0.1-0.3-0.1-0.4c0-0.1-0.1-0.4-0.1-0.4c-0.1-0.2-0.1-0.4-0.2-0.6c-0.5-1.7-0.8-3.7-0.6-6c0-0.6,0.1-1.1,0.1-1.7
						c0.1-0.6,0.2-1.2,0.3-1.8c0.2-1.2,0.7-2.4,1.1-3.7c1-2.4,2.4-5,4.3-7.3c1.9-2.3,4.3-4.4,7.2-6.2c2.9-1.7,6.3-3,10-3.5
						c3.7-0.5,7.5-0.1,10.8,1c3.3,1.1,6.1,2.8,8.5,4.7c1.2,0.9,2.2,2,3.1,3.1c0.5,0.5,0.9,1.1,1.3,1.6c0.2,0.3,0.4,0.5,0.6,0.8
						c0.2,0.3,0.3,0.6,0.5,0.8c0.3,0.6,0.7,1.1,1,1.7c0.3,0.6,0.5,1.1,0.8,1.7c0.1,0.3,0.2,0.5,0.4,0.8c0.1,0.3,0.2,0.6,0.3,0.8
						c0.2,0.5,0.3,1.1,0.5,1.6c1.1,4.2,0.8,7.9-0.2,10.2c-0.4,1.1-1,2-1.5,2.5C555.9,470.3,555.3,470.5,554.8,470.4z"/>
				</g>
			</g>
		</g>
		<g>
			<path class="st4" d="M462.7,528.9c-8-4.4-16.4-8.7-25.5-9.2c-9.1-0.5-19,3.8-22.5,12.2c-2.8,6.8-0.8,14.9,3.6,20.7
				c4.4,5.9,10.9,9.8,17.6,12.9c12.2,5.6,25.6,8.8,39,9.2c11.5,0.3,23.3-1.5,33.1-7.4c9.8-5.9,17.3-16.5,17.3-28
				c0-11.5-8.7-22.9-20.1-24.1c-14.7-1.4-27.1,12.9-41.8,12.6c-1.8,0-4.3-1.4-3.4-3"/>
		</g>
		<g>
			<g>
				<g>
					<path class="st3" d="M353.9,555.9c0.1,0.5-0.3,1.2-1.4,1.9c-0.5,0.4-1.2,0.8-2,1.3c-0.4,0.2-0.8,0.5-1.3,0.7
						c-0.5,0.2-1,0.4-1.5,0.7c-4.4,2-11,3.9-19.5,5.3c-8.5,1.3-18.8,1.8-30.1,0.7c-11.3-1.2-23.7-3.9-35.9-8.7
						c-6.1-2.4-12-5.1-17.4-8.2c-5.4-3-10.4-6.3-15-9.7c-9.1-6.9-16.4-14.2-21.7-20.9c-5.3-6.7-8.8-12.7-10.7-17.1
						c-0.6-1.2-0.7-1.8-0.8-2.1c0-0.1,0.3-0.1,0.4-0.3c0.1,0,0-0.1,0.1-0.1c0.1-0.1,0.2-0.2,0.4-0.4c0.1-0.2,0.2-0.4,0.2-0.5
						c0-0.1,0-0.3-0.1-0.3c-0.2-0.2-0.3,0-0.3,0.1c-0.1,0.1-0.1,0.1-0.5,0.3c-0.3,0.2-0.2,0.5,0,0.4c0.1,0,0.3,0,0.4,0
						c0.1,0,0.2,0.1,0.3,0.3c0,0.1,0.1,0.2,0,0.4c0,0.1-0.3,0.4-0.5,0.5c-0.6,0.2-1.1-0.1-1.4-0.3c-0.4-0.3-0.8-0.5-1-1.3
						c-0.1-0.2-0.1-0.5-0.1-0.8c0.1-0.3,0.2-0.7,0.4-1c0.2-0.3,0.5-0.5,0.8-0.7c0.2-0.1,0.4-0.2,0.6-0.3c0.9-0.3,2-0.1,2.8,0.2
						c1.5,0.7,2.4,1.9,3.2,2.5c3.3,3.2,7.8,7.8,13.7,13.1c5.9,5.3,13.2,11.1,21.9,16.8c4.4,2.8,9,5.5,14,8.1
						c5,2.6,10.3,4.9,15.8,7.1c11.1,4.3,22.1,7.2,32.3,8.9c10.2,1.7,19.6,2.4,27.5,2.5c7.9,0.1,14.4-0.2,19-0.3c1.2,0,2.2,0,3.1,0
						c0.9,0,1.7,0.1,2.3,0.2C353,555.1,353.7,555.4,353.9,555.9z"/>
				</g>
			</g>
		</g>
		<g>
			<g>
				<g>
					<path class="st5" d="M629,142.9c0.5,0.1,0.9,0.9,1,2.7c0.1,1.7-0.5,4.3-2.1,7.1c-1.6,2.8-4.2,5.9-7.7,8.6
						c-3.4,2.8-7.7,5.4-12.2,7.7c-2.3,1.2-4.7,2.5-7.2,3.8c-2.5,1.2-5.2,2.5-8,3.7c-1.4,0.6-2.8,1.3-4.2,1.9
						c-1.5,0.6-2.9,1.2-4.4,1.8c-3,1.2-6.1,2.5-9.3,3.6c-12.9,4.8-27.4,9-43,12.1c-15.6,3.1-30.6,4.8-44.3,5.3
						c-1.7,0.1-3.4,0.1-5.1,0.2c-0.8,0-1.7,0.1-2.5,0.1c-0.8,0-1.6,0-2.5,0c-3.2,0-6.4-0.1-9.4-0.1c-3-0.1-6-0.3-8.8-0.5
						c-1.4-0.1-2.8-0.2-4.1-0.3c-1.3-0.1-2.7-0.3-4-0.4c-20.6-2.2-32.9-6.1-32.6-8.1c0.3-2.2,12.9-2,33-2.7c1.3,0,2.5-0.1,3.8-0.1
						c1.3-0.1,2.6-0.1,4-0.2c2.7-0.1,5.6-0.3,8.5-0.4c2.9-0.2,6-0.4,9.1-0.7c0.8-0.1,1.6-0.1,2.4-0.2c0.8-0.1,1.6-0.2,2.4-0.2
						c1.6-0.2,3.2-0.3,4.9-0.5c13.1-1.3,27.5-3.3,42.3-6.3c29.8-5.8,55.9-14.8,74.7-21.9c1.2-0.4,2.3-0.9,3.5-1.3
						c1.1-0.4,2.1-0.8,3.1-1.2c2-0.8,3.8-1.7,5.5-2.5c3.3-1.7,5.8-3.5,7.7-5.1C626.8,145.7,627.8,142.7,629,142.9z"/>
				</g>
			</g>
		</g>
		<g>
			<g>
				<g>
					<path class="st5" d="M539.8,307.2c0.4-0.2,1,0.3,1.9,1.5c0.7,1.2,1.6,3.3,1.7,6.3c0.1,2.9-0.7,6.5-2.7,10.1
						c-2,3.6-5.2,7.3-10,10c-2.5,1.4-5,2.3-7.9,3c-2.8,0.7-5.8,1-8.8,1.1c-6.1,0.1-12.3-0.9-18.5-2.4c-12.3-2.9-25.6-7.4-39.4-13.6
						l7.5-12.6c2.5,1.8,4.9,3.8,7.2,6c2.3,2.3,4.5,4.8,6.5,7.8c2,3,3.7,6.4,4.6,10.6l0.3,1.6c0.1,0.5,0.1,1.1,0.1,1.7
						c0,0.6,0.1,1.1,0.1,1.7l-0.1,1.7c-0.2,2.3-0.8,4.6-1.7,6.7c-1.4,3.3-3.8,6.3-6.4,8.4c-2.7,2.1-5.5,3.5-8.3,4.5
						c-2.8,1-5.6,1.5-8.3,1.8c-2.7,0.3-5.4,0.3-8,0c-9.9-0.8-19.1-3.7-27-7.6c-7.9-4-14.6-8.8-20.4-13.7
						c-5.8-4.9-10.7-9.8-14.9-14.5c-4.2-4.7-7.8-9.1-10.8-13c-3.1-4-5.6-8-6.8-11.7c-1.3-3.7-1.2-7-0.6-9c0.2-0.5,0.3-0.9,0.5-1.3
						c0.2-0.4,0.4-0.6,0.6-0.8c0.4-0.4,0.7-0.6,0.9-0.5c0.3,0.1,0.4,0.4,0.6,0.9c0.1,0.2,0.1,0.5,0.2,0.8c0.1,0.3,0.2,0.7,0.3,1.1
						c0.4,1.6,1.2,3.8,2.9,6.3c1.7,2.5,4.3,5.4,7.8,8.6c3.5,3.3,7.6,7.1,12.1,11.1c4.5,4,9.5,8.2,15.1,12.2
						c5.6,4,11.8,7.9,18.6,10.9c6.8,3,14.3,5,22,5.5c1.9,0.1,3.6,0.1,5.4-0.1c1.8-0.2,3.5-0.6,5-1.1c1.5-0.5,2.8-1.2,3.8-2
						c1-0.8,1.6-1.6,2-2.6c0.6-1.3,0.7-2.6,0.4-4.2c-0.3-1.6-1.1-3.5-2.3-5.4c-2.4-3.7-6-7.3-9.8-10.2l-0.2-0.2
						c-3.2-2.5-3.8-7.1-1.4-10.3c2.2-2.8,6-3.6,9.1-2.1c12.7,6.3,25.1,11.1,36.5,14.7c5.6,1.8,10.8,3.1,15.4,3.5
						c2.3,0.2,4.6,0.2,6.6,0c2-0.2,4.1-0.7,5.6-1.3c3.3-1.3,6.1-3.5,8-5.7c1.9-2.3,3.1-4.6,3.8-6.6c0.6-2,0.7-3.7,0.9-5
						C539.3,308.2,539.4,307.4,539.8,307.2z"/>
				</g>
			</g>
		</g>
		<g>
			<g>
				<g>
					<path class="st5" d="M543.4,20c0.2-0.5,1.6-0.5,4.2,0.1c2.6,0.6,6.3,1.9,10.7,4.6c2.2,1.3,4.5,2.9,6.9,5c2.4,2,4.8,4.5,7.1,7.4
						c2.3,2.9,4.4,6.3,6.2,10.2c1.8,3.9,3.2,8.3,3.9,13c0.7,4.7,0.8,9.8,0.1,15.1c-0.7,5.2-2.3,10.6-5,15.8
						c-2.6,5.2-6.5,10.1-11.1,14.2c-1.1,1.1-2.4,1.9-3.7,2.9c-1.3,0.9-2.6,1.7-4,2.6c-1.4,0.8-2.8,1.5-4.2,2.2
						c-0.7,0.3-1.5,0.7-2.2,1l-1.1,0.5l-1.1,0.4c-6,2.3-12.3,3.7-18.8,4.3c-6.5,0.6-13.1,0.4-19.8-0.4c-6.6-0.9-13.1-2.4-19.5-4.2
						c-6.4-1.8-12.7-3.9-18.9-6.1c-6.2-2.1-12.3-4.2-18.2-6c-5.9-1.8-11.7-3.2-17.4-4.2c-5.7-1-11.3-1.5-16.7-1.4
						c-5.4,0.1-10.5,0.8-15.3,2.3c-4.8,1.4-9.1,3.4-13,6.2c-3.9,2.7-7.2,5.9-10,9.4c-5.7,7-9,15-10.2,22.5c-0.6,3.8-0.7,7.5-0.4,11
						c0.3,3.5,0.9,6.8,1.7,9.9c0.2,0.8,0.4,1.5,0.7,2.2c0.2,0.7,0.5,1.4,0.7,2.1c0.6,1.4,1,2.7,1.6,3.9c0.3,0.6,0.6,1.2,0.8,1.8
						c0.3,0.6,0.6,1.1,0.9,1.7c0.6,1.1,1.2,2.1,1.8,3.1c4.9,7.7,9,11.2,8.3,12.2c-0.3,0.4-1.7,0-4-1.2c-2.3-1.3-5.5-3.6-9-7.4
						c-0.9-0.9-1.8-1.9-2.6-3.1c-0.4-0.6-0.9-1.1-1.3-1.7c-0.4-0.6-0.8-1.3-1.3-1.9c-0.9-1.3-1.6-2.7-2.5-4.2
						c-0.4-0.8-0.8-1.5-1.1-2.3c-0.4-0.8-0.8-1.6-1.1-2.5c-1.4-3.4-2.6-7.2-3.3-11.4c-0.7-4.2-1-8.7-0.7-13.5
						c0.7-9.5,4.2-19.8,10.8-28.9c3.3-4.6,7.4-8.9,12.2-12.5c4.8-3.7,10.5-6.7,16.6-8.7c6.1-2.1,12.5-3.2,19-3.4
						c6.5-0.3,13.1,0.1,19.6,1.2c6.5,1,13,2.6,19.3,4.5c6.3,1.9,12.6,4,18.8,6.1c6.2,2.1,12.2,4.2,18.1,5.9
						c5.9,1.7,11.7,3.1,17.4,3.9c5.6,0.8,11.2,1.1,16.5,0.7c5.4-0.4,10.5-1.4,15.2-3c9.5-3.2,16.8-9.2,21.1-16.6
						c4.4-7.5,5.8-16,5.3-23.6c-0.5-7.6-3.2-14.3-6.4-19.6c-1.6-2.7-3.4-5-5.2-7.1c-1.8-2.1-3.6-3.8-5.3-5.4c-3.4-3-6.4-5.1-8.5-6.5
						C544.3,21.5,543.3,20.5,543.4,20z"/>
				</g>
			</g>
		</g>
	</g>
	<g>
		<g>
			<g>
				<path class="st6" d="M510,829c0.2,0.2,0.2,0.5,0.1,1.1c-0.1,0.6-0.6,1.4-1.3,2.3c-1.4,1.8-4.3,4-8.5,5.2
					c-4.2,1.2-9.5,1.6-15.3,0.9c-5.7-0.6-12.3-1.8-19.2-4.2c-6.9-2.4-14.3-5.8-21.5-10.5c-7.3-4.7-14.4-10.8-20.9-18.2
					c-3.2-3.7-6.2-7.8-8.9-12.2c-2.7-4.4-5.1-9-7.2-13.8c-4.3-9.6-7.5-19.8-10.4-30.1c-2.8-10.3-5.4-20.2-7.9-29.9
					c-2.5-9.7-4.7-19.1-6.7-28.1c-4-18-6.9-34.4-8.6-48.3c-1.7-13.9-2.3-25.2-2.1-33.1c0-3.9,0.3-7,0.6-9.1c0.3-2.1,0.8-3.2,1.3-3.2
					c0.5,0,1.1,1,1.8,3c0.7,2,1.3,4.9,2.2,8.7c1.6,7.6,3.8,18.5,6.8,31.8c3,13.4,6.9,29.2,11.6,46.8c2.3,8.8,4.9,18,7.5,27.6
					c2.6,9.6,5.3,19.5,8.1,29.6c2.8,10,5.7,19.6,9.4,28.2c1.8,4.3,3.8,8.4,6.1,12.3c2.2,3.9,4.7,7.4,7.3,10.7
					c5.3,6.6,11.2,12.3,17.3,16.8c6.1,4.6,12.3,8.1,18.3,10.8c6,2.7,11.6,4.6,16.7,5.8c5,1.4,9.3,1.8,12.8,1.7
					c3.4-0.2,5.9-1,7.7-1.8c0.8-0.4,1.5-0.7,2-0.9C509.4,828.9,509.8,828.8,510,829z"/>
			</g>
		</g>
	</g>
	<g>
		<g>
			<g>
				<path class="st6" d="M353.7,356.9c4.3,0,7.2,43.5,10.4,96.8c3.1,53.4,5.3,96.8,1,97.4c-2.1,0.2-5.3-10.3-8.5-27.8
					c-1.6-8.7-3.1-19.2-4.5-30.8c-1.3-11.6-2.5-24.4-3.3-37.9c-0.8-13.5-1.1-26.3-1.2-38c0-11.7,0.3-22.2,0.8-31.1
					C349.6,367.8,351.6,356.9,353.7,356.9z"/>
			</g>
		</g>
	</g>
	<g>
		<g>
			<g>
				<path class="st6" d="M454.7,911.2c-0.1,2.1-4.2,3.7-10.4,5.3c-6.2,1.6-14.6,3.3-23.8,5.6c-4.6,1.1-8.9,2.3-12.9,3.3
					c-3.9,1-5.7,1.7-6.7,2.4c-0.6,0.5-1.1,1-1.4,1.4c-0.2,0.2-0.3,0.5-0.4,0.7l0,0.1l0,0.1l-0.1,0c-0.1-0.1-0.2-0.1-0.2-0.1
					c-0.1,0-0.2,0.1-0.3,0.2c-0.1,0.2-0.1,0.4-0.2,0.7c-0.1,0.2-0.2,0.5-0.2,0.8c0,0.3,0.2,0.5,0.4,0.6c0.2,0.1,0.5,0.1,0.8,0.2
					c0.3,0.1,0.5,0.2,0.6,0.5c0.1,0.3,0.2,0.8-0.3,1.4c-0.4,0.6-1.2,0.9-2,1.1c-0.8,0.1-1.6,0.1-2.5-0.2c-0.4-0.2-0.9-0.4-1.4-0.8
					c-0.2-0.2-0.5-0.4-0.7-0.7c-0.2-0.2-0.3-0.4-0.5-0.6c-0.6-0.7-1.1-1.7-1.4-2.8c-0.7-2.1-0.6-4.7,0.2-7.2c0.4-1.2,1-2.5,1.9-3.7
					c0.8-1.2,1.8-2.2,2.9-3.1c2.1-1.8,4.5-3,6.7-4c4.2-2,9-3.7,14.1-4.9c10.3-2.6,20.1-2.7,27-1.6
					C450.8,906.9,454.9,909.2,454.7,911.2z"/>
			</g>
		</g>
	</g>
	<g>
		<g>
			<g>
				<path class="st6" d="M472.2,898.4c-4.1,1-8-0.6-8.7-3.5c-0.7-3,2-6.2,6-7.2c4.1-1,8,0.6,8.7,3.5
					C478.9,894.1,476.2,897.4,472.2,898.4z"/>
			</g>
		</g>
	</g>
</g>
</svg>
