<svg xmlns="http://www.w3.org/2000/svg" xmlns:xlink="http://www.w3.org/1999/xlink" viewBox="0 0 1245 2210"><defs><style>.cls-1{isolation:isolate;}.cls-2{fill:url(#linear-gradient);}.cls-3{fill:#d1997e;}.cls-4{fill:#deb7a3;}.cls-5{fill:#afd9b0;}.cls-6{fill:#7a9079;}.cls-7{fill:#fefb78;}.cls-8{fill:#fffedd;}.cls-9{fill:#4c3c2e;}.cls-10{fill:#ba9570;mix-blend-mode:multiply;}.cls-11{fill:#152c2f;}.cls-12{fill:#f9b2b8;}.cls-13{fill:#366463;}.cls-14{fill:#635637;}.cls-15{fill:#6b5a56;}.cls-16{fill:#0d3b46;}.cls-17{fill:#fff;}.cls-18{fill:#c1b4a4;}.cls-19,.cls-23{fill:none;stroke:#0d3b46;}.cls-19{stroke-linecap:round;stroke-linejoin:round;stroke-width:6.01px;}.cls-20{fill:#fffb78;}.cls-21{fill:#0e3b46;}.cls-22{font-size:85.97px;font-family:CaviarDreams-Bold, Caviar Dreams;font-weight:700;}.cls-23{stroke-miterlimit:10;stroke-width:6.64px;}</style><linearGradient id="linear-gradient" x1="624" y1="2210" x2="624" y2="293" gradientUnits="userSpaceOnUse"><stop offset="0.02" stop-color="#aed9b0"/><stop offset="0.09" stop-color="#b0dab2"/><stop offset="0.53" stop-color="#b2dbb4"/><stop offset="0.74" stop-color="#b7ddb9"/><stop offset="1" stop-color="#c6e4c8"/></linearGradient></defs><title>digestibles</title><g class="cls-1"><g id="bg"><rect class="cls-2" x="3" y="293" width="1242" height="1917"/></g><g id="waterLayout"><path class="cls-3" d="M1243,1955H1V1278c788,200,876,153,1242,0Z" transform="translate(2 2)"/><path class="cls-4" d="M-2,2208H1240V1380c-604.3,246.9-908,458.9-1242,0Z" transform="translate(2 2)"/></g><g id="headDiv"><path class="cls-5" d="M1243,291Q641.2,358.5,1,291V-2H1243Z" transform="translate(2 2)"/></g><g id="factIcon"><circle class="cls-3" cx="375" cy="544" r="141"/><path class="cls-6" d="M319.2,586.1c-3.9,3.2-27.1-.6-20.2,15.5,5.6,12.9,36.1,13.3,47.2,14.3,13.9,1.3,54.2,4,63.3-9.9C423.7,584.2,315.4,587.4,319.2,586.1Z" transform="translate(2 2)"/><path class="cls-7" d="M479.2,474.9l-.5-.2c-24.6-17.7-51.8,8.9-76.7,19.9a123.8,123.8,0,0,1-13.6,5.4c-29.3,9.4-61,2.5-87.9-12-4.3,16-7,32.1-7,48.8a176.6,176.6,0,0,0,7.6,50.5c11.5,12.3,26.7,17.6,42.5,19.2s34.6,2.1,50.2-5.1c20.7-9.5,44.6-42.9,68.4-35.5a34.6,34.6,0,0,1,7.6,3.5c1.6-7.7,4.3-15.1,5.9-22.8a228.1,228.1,0,0,0,3.6-23.2A231.2,231.2,0,0,0,479.2,474.9ZM308.7,581.1a4.9,4.9,0,0,1-5-5.3c.1-3.4,2.3-5.2,4.6-5.4s5.4,1.7,5.4,5.7A4.8,4.8,0,0,1,308.7,581.1Zm7.3-10.9c-1.6-.2-3.3-4-3.5-5.5s-.4-7.4,2.7-8.4,3.7,3.5,4.1,5.6S319.1,570.6,316,570.2Zm22.2,17.4c-3.3-.6-7-3.1-8.1-6.7-.2-.8-1.2-6.4.2-6.1a73.9,73.9,0,0,0,8.2,1.4,54.9,54.9,0,0,0,8.1.3.7.7,0,0,1,.6.4.6.6,0,0,1,.3.7C346.9,583.5,344.5,588.8,338.2,587.6Zm26.7-18.1c-.4,6-6.8,6.2-7.1.1-.1-3.3.1-7.9,4.3-7S365.1,567.1,364.9,569.5Zm6.5,15.3c-2.6.8-5-.7-5.3-3.7-.4-5.9,8.3-9.8,9.4-3A6,6,0,0,1,371.4,584.8Zm38.9-68.1a.6.6,0,0,1-1.2,0c0-1.2,0-2.3.1-3.5s1-.7,1.1,0Zm0,7.9a.6.6,0,1,1-1.2,0c0-1.1,0-2.3.1-3.4s1-.8,1.1,0Zm0,8.8a.6.6,0,1,1-1.2,0c0-1.2,0-2.3.1-3.5s1-.7,1.1,0Zm0,8.7a.6.6,0,1,1-1.2,0c0-1.1,0-2.3.1-3.5s1-.7,1.1.1Zm-.9-38.3c.8,1,1.2,3.6.2,4.7a.5.5,0,0,1-.9-.3,6.1,6.1,0,0,1,0-1.9,16.2,16.2,0,0,1-.3-2C408.4,503.7,409.1,503.3,409.4,503.8Zm-.8-9.5a31.5,31.5,0,0,1,.5,4.3.6.6,0,1,1-1.2,0c-.1-1.3-.3-2.7-.3-4.1S408.5,493.7,408.6,494.3Zm2.4,94.5c-.2.7-1.1.3-1.1-.3s.5-4,.6-6,1-.6,1,.1A18.6,18.6,0,0,1,411,588.8Zm.6-10.8a.6.6,0,0,1-1.2-.1,17.1,17.1,0,0,1-.1-3.2,21.7,21.7,0,0,1,.1-3.6c.2-.6,1-.8,1.2,0a19.3,19.3,0,0,1,.1,3.4A20.2,20.2,0,0,1,411.6,578Zm-1.5-24.4c0,.7-1,1-1.1.2s-.2-2-.3-3a14.3,14.3,0,0,1,.1-2.9.5.5,0,0,1,1,0,8.3,8.3,0,0,1,.3,2.7C410.1,551.6,410.2,552.6,410.1,553.6Zm.3,7.1a.6.6,0,0,1,1.2,0,15.1,15.1,0,0,1,.1,3c-.1.9,0,1.8-.1,2.7a.6.6,0,0,1-1.2,0c-.1-1,0-2-.1-3A24.4,24.4,0,0,1,410.4,560.7Z" transform="translate(2 2)"/><path class="cls-7" d="M398.6,494l1.8-.8c-3.7-10-14.9-13.2-23.7-15.8a113.3,113.3,0,0,0-26.4-4.6,98.4,98.4,0,0,0-26.5,2.3c-7.6,1.9-17.8,4.3-22.9,11.3h0C331.9,502.4,366,508,398.6,494Zm-67.2-8.4c10.6-8.2,27.2-5.2,37.5,1.9a1,1,0,0,1,.3,1.1.9.9,0,0,1-.4.8c-5,3.9-12.2,3.9-18.1,3.6s-13.7-1.9-19.4-5.9a.7.7,0,0,1-.2-1C331.1,485.9,331.2,485.8,331.4,485.6Z" transform="translate(2 2)"/><path class="cls-8" d="M300.5,488c-5,4.6-8.2,44.5-7.7,53.4s2.8,39.3,8.3,45.9,31.7,32.1,92.6,15.2c-25,.2-50.2-7.7-62.7-14C299.4,572.6,299.8,529.5,300.5,488Z" transform="translate(2 2)"/><path class="cls-9" d="M350.2,482.9c-6.3-.4-11.5,1.5-17.4,3.5a46.7,46.7,0,0,0,17.9,4.8c5.2.2,11.6.3,16.3-2.7A34,34,0,0,0,350.2,482.9Z" transform="translate(2 2)"/><path class="cls-10" d="M336.2,488.5c3.1.7,5.7,2.8,9.1,2.7s13.8-4.8,8.3-8.5c2.9-.1,14.1,1.3,14.2,5.5s-8.3,3.5-10.9,3.9a66.3,66.3,0,0,1-12.6-.2,26.1,26.1,0,0,1-5.5-1.4A7.1,7.1,0,0,1,336.2,488.5Z" transform="translate(2 2)"/><path class="cls-11" d="M363.2,566.3c-.3-2-2.4-2.6-3.2-.7s-.7,6.3.9,6.9a.6.6,0,0,0,.6,0c1-.3,1.8-3.3,1.8-4.2A12.7,12.7,0,0,0,363.2,566.3Z" transform="translate(2 2)"/><path class="cls-11" d="M331.2,576.6a7.7,7.7,0,0,0,2.1,6.3c2.7-2.4,8.2-2.4,10.9.3a15.4,15.4,0,0,0,1.5-5A44.6,44.6,0,0,1,331.2,576.6Z" transform="translate(2 2)"/><path class="cls-11" d="M316.8,558.9c-2.4-2.9-2.9,3.3-2.8,4.2s.2,4.7,2,5.1c1.5-1.2,1.9-3,1.7-5.1S317.5,559.7,316.8,558.9Z" transform="translate(2 2)"/><path class="cls-12" d="M375.5,578.1c-1.1-6.8-9.8-2.9-9.4,3,.3,3,2.7,4.5,5.3,3.7A6,6,0,0,0,375.5,578.1Z" transform="translate(2 2)"/><path class="cls-12" d="M334.3,583.9a14.2,14.2,0,0,0,3.5,1.7c2.5.6,4.2.1,5.4-1.1a7.4,7.4,0,0,0-4.5-1.5A16.4,16.4,0,0,0,334.3,583.9Z" transform="translate(2 2)"/><path class="cls-12" d="M308.3,570.4c-2.3.2-4.5,2-4.6,5.4a4.9,4.9,0,0,0,5,5.3,4.8,4.8,0,0,0,5-5C313.7,572.1,310.9,570.2,308.3,570.4Z" transform="translate(2 2)"/><path class="cls-13" d="M481,473.6c-24.5-19-54.7,8-78.8,18.8-3.3-8.8-11.6-12.5-19.5-15.2a116.7,116.7,0,0,0-30.7-6.4,95.3,95.3,0,0,0-30.1,2.7c-7.4,1.9-19.3,4.6-23,12.8a.8.8,0,0,0,0,.7c-5.2,16.1-7.4,33.7-7.3,50.7.1,9.4.5,18.8,2.3,28,3.7,18.9,4.5,22.2,10.1,26.8a68.3,68.3,0,0,0,32.6,15.1,152.1,152.1,0,0,0,22.3,1.6c8.2.1,16.5.1,24.5-1.9,25.5-6.4,50.8-47.1,78.1-39.1a36.2,36.2,0,0,1,8,3.4c.6.4,1.2-.1,1.3-.8a.3.3,0,0,0,.1-.2c3.2-7,4.8-15.3,6.5-22.8a209.6,209.6,0,0,0,3.9-25C483,506.4,483.1,474.9,481,473.6Zm-157.2,1.5a98.4,98.4,0,0,1,26.5-2.3,113.3,113.3,0,0,1,26.4,4.6c8.8,2.6,20,5.8,23.7,15.8l-1.8.8c-32.6,14-66.7,8.4-97.7-7.6h0C306,479.4,316.2,477,323.8,475.1Zm155.5,48.3a228.1,228.1,0,0,1-3.6,23.2c-1.6,7.7-4.3,15.1-5.9,22.8a34.6,34.6,0,0,0-7.6-3.5c-23.8-7.4-47.7,26-68.4,35.5-15.6,7.2-33.6,6.7-50.2,5.1s-31-6.9-42.5-19.2a176.6,176.6,0,0,1-7.6-50.5c0-16.7,2.7-32.8,7-48.8,26.9,14.5,58.6,21.4,87.9,12a123.8,123.8,0,0,0,13.6-5.4c24.9-11,52.1-37.6,76.7-19.9l.5.2A231.2,231.2,0,0,1,479.3,523.4Z" transform="translate(2 2)"/><path class="cls-13" d="M411.6,571.1c-.2-.8-1-.6-1.2,0a21.7,21.7,0,0,0-.1,3.6,17.1,17.1,0,0,0,.1,3.2.6.6,0,0,0,1.2.1,20.2,20.2,0,0,0,.1-3.5A19.3,19.3,0,0,0,411.6,571.1Z" transform="translate(2 2)"/><path class="cls-13" d="M411.5,549.5a.5.5,0,0,0-1,0,13.7,13.7,0,0,0-.2,2.9c0,1,0,2,.1,3s1.1.5,1.2-.2a27.1,27.1,0,0,0,.1-2.9A8.6,8.6,0,0,0,411.5,549.5Z" transform="translate(2 2)"/><path class="cls-13" d="M410.3,563.4c.1,1,0,2,.1,3a.6.6,0,0,0,1.2,0c.1-.9,0-1.8.1-2.7a15.1,15.1,0,0,0-.1-3,.6.6,0,0,0-1.2,0A24.4,24.4,0,0,0,410.3,563.4Z" transform="translate(2 2)"/><path class="cls-13" d="M410.5,582.5c-.1,2-.4,4-.6,6s.9,1,1.1.3a18.6,18.6,0,0,0,.5-6.2C411.5,581.9,410.5,581.9,410.5,582.5Z" transform="translate(2 2)"/><path class="cls-13" d="M409.2,513.2c-.1,1.2-.1,2.3-.1,3.5a.6.6,0,0,0,1.2,0v-3.5C410.2,512.5,409.2,512.5,409.2,513.2Z" transform="translate(2 2)"/><path class="cls-13" d="M408.4,504.3a16.2,16.2,0,0,0,.3,2,6.1,6.1,0,0,0,0,1.9.5.5,0,0,0,.9.3c1-1.1.6-3.7-.2-4.7S408.4,503.7,408.4,504.3Z" transform="translate(2 2)"/><path class="cls-13" d="M409.1,498.6a31.5,31.5,0,0,0-.5-4.3c-.1-.6-1-.4-1,.2s.2,2.8.3,4.1A.6.6,0,1,0,409.1,498.6Z" transform="translate(2 2)"/><path class="cls-14" d="M331.3,487.1c5.7,4,12.7,5.6,19.4,5.9s13.1.3,18.1-3.6a.9.9,0,0,0,.4-.8,1,1,0,0,0-.3-1.1c-10.3-7.1-26.9-10.1-37.5-1.9-.2.2-.3.3-.3.5A.7.7,0,0,0,331.3,487.1Zm18.9-4.2a34,34,0,0,1,16.8,5.6c-4.7,3-11.1,2.9-16.3,2.7a46.7,46.7,0,0,1-17.9-4.8C338.7,484.4,343.9,482.5,350.2,482.9Z" transform="translate(2 2)"/><path class="cls-13" d="M362.1,562.6c-4.2-.9-4.4,3.7-4.3,7,.3,6.1,6.7,5.9,7.1-.1C365.1,567.1,364.9,563.1,362.1,562.6Zm-.6,9.9a.6.6,0,0,1-.6,0c-1.6-.6-1.4-5.7-.9-6.9s2.9-1.3,3.2.7a12.7,12.7,0,0,1,.1,2C363.3,569.2,362.5,572.2,361.5,572.5Z" transform="translate(2 2)"/><path class="cls-13" d="M347.2,576.9a.7.7,0,0,0-.6-.4,54.9,54.9,0,0,1-8.1-.3,73.9,73.9,0,0,1-8.2-1.4c-1.4-.3-.4,5.3-.2,6.1,1.1,3.6,4.8,6.1,8.1,6.7,6.3,1.2,8.7-4.1,9.3-10A.6.6,0,0,0,347.2,576.9Zm-9.4,8.7a14.2,14.2,0,0,1-3.5-1.7,16.4,16.4,0,0,1,4.4-.9,7.4,7.4,0,0,1,4.5,1.5C342,585.7,340.3,586.2,337.8,585.6Zm6.4-2.4c-2.7-2.7-8.2-2.7-10.9-.3a7.7,7.7,0,0,1-2.1-6.3,44.6,44.6,0,0,0,14.5,1.6A15.4,15.4,0,0,1,344.2,583.2Z" transform="translate(2 2)"/><path class="cls-13" d="M315.2,556.3c-3.1,1-3.2,5.7-2.7,8.4s1.9,5.3,3.5,5.5c3.1.4,3.6-6,3.3-8.3S318.2,555.3,315.2,556.3Zm.8,11.9c-1.8-.4-2-3.6-2-5.1s.4-7.1,2.8-4.2c.7.8.8,3.1.9,4.2S317.5,567,316,568.2Z" transform="translate(2 2)"/></g><g id="pooptypeIcon"><circle class="cls-3" cx="375" cy="1015" r="141"/><path class="cls-15" d="M347.5,1073.8c15.7,0,28.3-.4,35.4-2.6,2.7-1.9,4.3-15,2.3-21.1-3.7-11.4-15-18.7-16-23.6s3.5-6.9,2.5-14.3-3.5-13.1-12.2-14.2c0,0-6.1-1-7.4-2.8s-.3-7.5-.3-7.5c1.8-4.4,1.7-10.3-.2-13.9a5.9,5.9,0,0,0-4.6-3.4c-8-1.2-15-7.5-18.2-16.5a5,5,0,0,1-.5-1.3c-2.9,3.4-5.2,6.7-5.5,8.4l-1.1,2.6-3.9,1.1c-11.4,4.6-13.3,11.5-11.5,25.1l-2.6,3-3.9,3.1c-16.1,9.8-9.8,20.9-9.1,28.2l1.5,3.8c-.1-.2-16.1,9.4-14.9,26.1.4,4.3-1.7,6.7,9.4,13.8a176.2,176.2,0,0,0,29.5,4c10.8.4,19.9,2,31.3,2Z" transform="translate(2 2)"/><path class="cls-16" d="M351.5,1078.8c-26.6,0-56.1-3.2-66-6.1h-.4c-9-4-13.8-12.5-13-22.9s7.3-20.3,15.5-24c-2.9-9.2-6.4-24.4,13.2-36.7-1.6-15.4,3.4-24.3,17.3-30,3.1-8.8,18.9-22.9,22.1-23.5a3,3,0,0,1,3.2,1.4c1.2,2-.3,3.8-1.1,4.8s-2.1,6.4-.5,10.5,5.3,8.8,10.8,9.6a15.4,15.4,0,0,1,11.5,7.9c2.9,5.1,3.5,12.1,1.8,18.4,8.2,2.5,15.1,11.5,18,19.7,2.2,6.3,2,11.9-.3,16.2,9.3,4.8,15.2,17.2,16.4,28.2s-3.6,19.4-10.4,22.8l-1.8.6C378.9,1078.4,367,1078.8,351.5,1078.8Zm-64.2-11.6c15.1,4.3,78.2,9.3,101.2,2.2,4.4-2.3,6.6-8.5,5.7-16.6-1.1-10.4-7.4-22.5-16-24.7a2.8,2.8,0,0,1-2.1-2.1,2.8,2.8,0,0,1,.9-2.9c4.2-3.8,2.4-10.6,1.4-13.4-3-8.7-10.4-16.2-16.5-16.5a3.1,3.1,0,0,1-2.3-1.4,3.2,3.2,0,0,1-.2-2.7c2.3-5.3,2.2-12.1-.3-16.5a9.7,9.7,0,0,0-7.4-5.1c-6.6-.9-12.4-6-15.2-13.2a19.9,19.9,0,0,1-1.5-7.7c-5.1,4.8-11.1,11.4-11.7,15.1a2.7,2.7,0,0,1-1.8,2.2c-13,5-16.7,11.6-14.7,26.2a3,3,0,0,1-1.4,3c-18.8,10.8-14.7,23.4-11.7,32.6l.3.9a1.5,1.5,0,0,1,0,1.7c-.4.7-1.2,1.8-2,2-7.2,1.9-12.1,10.8-14.1,19.9C276.8,1055,277.8,1063.2,287.3,1067.2Zm33.2-106Z" transform="translate(2 2)"/><circle class="cls-17" cx="315.8" cy="1014.3" r="12"/><circle class="cls-16" cx="319.8" cy="1014.4" r="7.4"/><circle class="cls-17" cx="351.8" cy="1014.3" r="12"/><circle class="cls-16" cx="347.9" cy="1015" r="7.4"/><path class="cls-18" d="M421.3,1067.9c15.8,0,28.3-.4,35.5-2.6,2.7-1.9,4.3-15,2.3-21.1-3.8-11.4-15-18.7-16-23.6s3.4-6.9,2.5-14.3-3.5-13.1-12.2-14.2c0,0-6.1-1-7.4-2.8s-.3-7.4-.3-7.4c1.8-4.5,1.7-10.4-.2-14a5.9,5.9,0,0,0-4.6-3.4c-8-1.2-15-7.5-18.3-16.5-.1-.4-.3-.8-.4-1.3-2.9,3.4-5.3,6.7-5.6,8.4l-1,2.6-3.9,1.1c-11.4,4.6-13.4,11.5-11.6,25.1l-2.5,3-3.9,3.1c-16.2,9.8-9.8,20.9-9.1,28.2l1.4,3.8c-.1-.2-16,9.4-14.8,26.1.3,4.3-1.7,6.7,9.4,13.8a176.2,176.2,0,0,0,29.5,4c10.7.4,19.9,2,31.2,2Z" transform="translate(2 2)"/><path class="cls-16" d="M425.4,1072.9c-26.6,0-56.1-3.2-66-6.1H359c-9-4-13.8-12.5-13-22.9s7.3-20.3,15.5-24c-2.9-9.2-6.4-24.4,13.2-36.7-1.7-15.4,3.4-24.3,17.2-30,3.2-8.8,19-22.9,22.2-23.5a3.1,3.1,0,0,1,3.2,1.4c1.2,2-.3,3.8-1.2,4.8s-2,6.4-.4,10.5,5.3,8.8,10.7,9.6a15.2,15.2,0,0,1,11.6,8c2.8,5,3.5,12,1.8,18.3,8.1,2.5,15.1,11.5,18,19.7,2.2,6.3,2,12-.4,16.2,9.4,4.8,15.3,17.2,16.4,28.2s-3.6,19.4-10.3,22.8l-1.8.6C452.8,1072.5,440.9,1072.9,425.4,1072.9Zm-64.2-11.6c15.1,4.4,78.1,9.3,101.2,2.2,4.4-2.3,6.5-8.5,5.7-16.6-1.1-10.4-7.4-22.5-16.1-24.7a2.8,2.8,0,0,1-2-2.1,2.8,2.8,0,0,1,.8-2.9c4.3-3.8,2.5-10.6,1.5-13.4-3-8.7-10.4-16.2-16.5-16.5a3,3,0,0,1-2.3-1.4,2.9,2.9,0,0,1-.2-2.7c2.3-5.3,2.1-12.1-.3-16.5a9.9,9.9,0,0,0-7.4-5.1c-6.6-.9-12.5-6-15.3-13.2a19.7,19.7,0,0,1-1.4-7.7c-5.1,4.8-11.1,11.4-11.7,15.1a3.1,3.1,0,0,1-1.8,2.2c-13,5-16.8,11.6-14.7,26.3a3.1,3.1,0,0,1-1.4,2.9c-18.8,10.8-14.7,23.4-11.7,32.6l.3.9c.2.7.4,1,0,1.7a4.8,4.8,0,0,1-2,2c-7.2,1.9-12.2,10.8-14.2,19.9C350.7,1049.1,351.7,1057.4,361.2,1061.3Zm33.1-106h0Z" transform="translate(2 2)"/><polyline class="cls-19" points="390.1 997.1 399.1 1006.1 384.1 1012.1"/><polyline class="cls-19" points="425.1 997.1 416.1 1006.1 431.1 1012.1"/><path class="cls-20" d="M384.1,1090.9c17.6,0,31.6-.5,39.6-2.9,3-2.1,4.8-16.7,2.5-23.6-4.1-12.7-16.7-20.9-17.8-26.3s3.8-7.7,2.8-15.9-4-14.7-13.6-16c0,0-6.8-1.1-8.3-3.1s-.4-8.3-.4-8.3c2.1-5,2-11.6-.2-15.6a6.8,6.8,0,0,0-5.1-3.8c-8.9-1.3-16.7-8.3-20.4-18.3-.2-.5-.3-1-.5-1.5-3.2,3.8-5.8,7.4-6.2,9.3l-1.1,3-4.4,1.2c-12.7,5.1-14.9,12.8-12.9,28.1l-2.8,3.3-4.4,3.4c-18,11-11,23.4-10.1,31.6l1.6,4.2c-.1-.2-18,10.4-16.6,29.1.4,4.8-1.9,7.5,10.5,15.4a178.1,178.1,0,0,0,33,4.4c11.9.5,22.1,2.3,34.8,2.3Z" transform="translate(2 2)"/><path class="cls-16" d="M388.6,1096.5c-29.6,0-62.6-3.6-73.7-6.8l-.4-.2c-10-4.4-15.5-13.9-14.6-25.5s8.2-22.7,17.4-26.8c-3.3-10.3-7.2-27.3,14.7-40.9-1.8-17.3,3.9-27.2,19.3-33.5,3.5-9.9,21.1-25.6,24.7-26.3a3.2,3.2,0,0,1,3.6,1.6c1.3,2.2-.4,4.2-1.3,5.3s-2.2,7.1-.5,11.7,5.9,9.9,12,10.7a17.2,17.2,0,0,1,12.9,8.9c3.2,5.7,3.9,13.5,2,20.5,9.1,2.8,16.9,12.8,20.1,22,2.4,7,2.3,13.4-.4,18.1,10.4,5.4,17,19.2,18.3,31.5s-4,21.7-11.6,25.5l-1.9.6C419.2,1096,405.9,1096.5,388.6,1096.5Zm-71.7-13c16.9,4.9,87.3,10.4,113.1,2.5,4.9-2.6,7.2-9.5,6.3-18.5-1.2-11.7-8.3-25.2-17.9-27.6a3.1,3.1,0,0,1-2.3-2.4,3.4,3.4,0,0,1,.9-3.2c4.8-4.2,2.8-11.9,1.7-15-3.4-9.7-11.7-18-18.5-18.4a3.3,3.3,0,0,1-2.5-1.6,2.8,2.8,0,0,1-.2-2.9c2.5-6,2.4-13.6-.4-18.5a10.9,10.9,0,0,0-8.2-5.7c-7.4-1-14-6.7-17.1-14.8a22,22,0,0,1-1.6-8.5c-5.7,5.3-12.4,12.8-13.1,16.8a3,3,0,0,1-2,2.5c-14.5,5.6-18.7,13-16.4,29.3a3.2,3.2,0,0,1-1.6,3.3c-21,12.1-16.4,26.1-13,36.4l.3,1c.3.8.5,1.1,0,1.9a4.7,4.7,0,0,1-2.2,2.2c-8.1,2.1-13.6,12.1-15.8,22.2C305.2,1069.9,306.3,1079.1,316.9,1083.5ZM354,965.2Z" transform="translate(2 2)"/><g id="eyes"><circle class="cls-16" cx="349.7" cy="1020.1" r="12.7"/><ellipse class="cls-17" cx="342.8" cy="1013.8" rx="5.6" ry="5.1" transform="translate(-711.6 844.4) rotate(-62.1)"/><ellipse class="cls-17" cx="353.7" cy="1024.1" rx="2.6" ry="1" transform="translate(-618.5 552.1) rotate(-45)"/><circle class="cls-16" cx="386.6" cy="1020.1" r="12.7"/><ellipse class="cls-17" cx="379.6" cy="1013.8" rx="5.6" ry="5.1" transform="translate(-692 877) rotate(-62.1)"/><ellipse class="cls-17" cx="390.6" cy="1024.1" rx="2.6" ry="1" transform="translate(-607.7 578.2) rotate(-45)"/></g></g><g id="poopColorIcon"><circle class="cls-3" cx="902" cy="1015" r="141"/><path class="cls-15" d="M874.5,1073.8c15.7,0,28.3-.4,35.4-2.6,2.7-1.9,4.3-15,2.3-21.1-3.7-11.4-15-18.7-16-23.6s3.5-6.9,2.5-14.3-3.5-13.1-12.2-14.2c0,0-6.1-1-7.4-2.8s-.3-7.5-.3-7.5c1.8-4.4,1.7-10.3-.2-13.9a5.9,5.9,0,0,0-4.6-3.4c-8-1.2-15-7.5-18.2-16.5a5,5,0,0,1-.5-1.3c-2.9,3.4-5.2,6.7-5.5,8.4l-1.1,2.6-3.9,1.1c-11.4,4.6-13.3,11.5-11.5,25.1l-2.6,3-3.9,3.1c-16.1,9.8-9.8,20.9-9.1,28.2l1.5,3.8c-.1-.2-16.1,9.4-14.9,26.1.4,4.3-1.7,6.7,9.4,13.8a176.2,176.2,0,0,0,29.5,4c10.8.4,19.9,2,31.3,2Z" transform="translate(2 2)"/><path class="cls-16" d="M878.5,1078.8c-26.6,0-56.1-3.2-66-6.1h-.4c-9-4-13.8-12.5-13-22.9s7.3-20.3,15.5-24c-2.9-9.2-6.4-24.4,13.2-36.7-1.6-15.4,3.4-24.3,17.3-30,3.1-8.8,18.9-22.9,22.1-23.5a3,3,0,0,1,3.2,1.4c1.2,2-.3,3.8-1.1,4.8s-2.1,6.4-.5,10.5,5.3,8.8,10.8,9.6a15.4,15.4,0,0,1,11.5,7.9c2.9,5.1,3.5,12.1,1.8,18.4,8.2,2.5,15.1,11.5,18,19.7,2.2,6.3,2,11.9-.3,16.2,9.3,4.8,15.2,17.2,16.4,28.2s-3.6,19.4-10.4,22.8l-1.8.6C905.9,1078.4,894,1078.8,878.5,1078.8Zm-64.2-11.6c15.1,4.3,78.2,9.3,101.2,2.2,4.4-2.3,6.6-8.5,5.7-16.6-1.1-10.4-7.4-22.5-16-24.7a2.8,2.8,0,0,1-2.1-2.1,2.8,2.8,0,0,1,.9-2.9c4.2-3.8,2.4-10.6,1.4-13.4-3-8.7-10.4-16.2-16.5-16.5a3.1,3.1,0,0,1-2.3-1.4,3.2,3.2,0,0,1-.2-2.7c2.3-5.3,2.2-12.1-.3-16.5a9.7,9.7,0,0,0-7.4-5.1c-6.6-.9-12.4-6-15.2-13.2a19.9,19.9,0,0,1-1.5-7.7c-5.1,4.8-11.1,11.4-11.7,15.1a2.7,2.7,0,0,1-1.8,2.2c-13,5-16.7,11.6-14.7,26.2a3,3,0,0,1-1.4,3c-18.8,10.8-14.7,23.4-11.7,32.6l.3.9a1.5,1.5,0,0,1,0,1.7c-.4.7-1.2,1.8-2,2-7.2,1.9-12.1,10.8-14.1,19.9C803.8,1055,804.8,1063.2,814.3,1067.2Zm33.2-106Z" transform="translate(2 2)"/><path class="cls-21" d="M948.3,1067.9c15.8,0,28.3-.4,35.5-2.6,2.7-1.9,4.3-15,2.3-21.1-3.8-11.4-15-18.7-16-23.6s3.4-6.9,2.5-14.3-3.5-13.1-12.2-14.2c0,0-6.1-1-7.4-2.8s-.3-7.4-.3-7.4c1.8-4.5,1.7-10.4-.2-14a5.9,5.9,0,0,0-4.6-3.4c-8-1.2-15-7.5-18.3-16.5-.1-.4-.3-.8-.4-1.3-2.9,3.4-5.3,6.7-5.6,8.4l-1,2.6-3.9,1.1c-11.4,4.6-13.4,11.5-11.6,25.1l-2.5,3-3.9,3.1c-16.2,9.8-9.8,20.9-9.1,28.2l1.4,3.8c-.1-.2-16,9.4-14.8,26.1.3,4.3-1.7,6.7,9.4,13.8a176.2,176.2,0,0,0,29.5,4c10.7.4,19.9,2,31.2,2Z" transform="translate(2 2)"/><path class="cls-21" d="M952.4,1072.9c-26.6,0-56.1-3.2-66-6.1H886c-9-4-13.8-12.5-13-22.9s7.3-20.3,15.5-24c-2.9-9.2-6.4-24.4,13.2-36.7-1.7-15.4,3.4-24.3,17.2-30,3.2-8.8,19-22.9,22.2-23.5a3.1,3.1,0,0,1,3.2,1.4c1.2,2-.3,3.8-1.2,4.8s-2,6.4-.4,10.5,5.3,8.8,10.7,9.6a15.2,15.2,0,0,1,11.6,8c2.8,5,3.5,12,1.8,18.3,8.1,2.5,15.1,11.5,18,19.7,2.2,6.3,2,12-.4,16.2,9.4,4.8,15.3,17.2,16.4,28.2s-3.6,19.4-10.3,22.8l-1.8.6C979.8,1072.5,967.9,1072.9,952.4,1072.9Zm-64.2-11.6c15.1,4.4,78.1,9.3,101.2,2.2,4.4-2.3,6.5-8.5,5.7-16.6-1.1-10.4-7.4-22.5-16.1-24.7a2.8,2.8,0,0,1-2-2.1,2.8,2.8,0,0,1,.8-2.9c4.3-3.8,2.5-10.6,1.5-13.4-3-8.7-10.4-16.2-16.5-16.5a3,3,0,0,1-2.3-1.4,2.9,2.9,0,0,1-.2-2.7c2.3-5.3,2.1-12.1-.3-16.5a9.9,9.9,0,0,0-7.4-5.1c-6.6-.9-12.5-6-15.3-13.2a19.7,19.7,0,0,1-1.4-7.7c-5.1,4.8-11.1,11.4-11.7,15.1a3.1,3.1,0,0,1-1.8,2.2c-13,5-16.8,11.6-14.7,26.3a3.1,3.1,0,0,1-1.4,2.9c-18.8,10.8-14.7,23.4-11.7,32.6l.3.9c.2.7.4,1,0,1.7a4.8,4.8,0,0,1-2,2c-7.2,1.9-12.2,10.8-14.2,19.9C877.7,1049.1,878.7,1057.4,888.2,1061.3Zm33.1-106h0Z" transform="translate(2 2)"/><path class="cls-20" d="M911.1,1090.9c17.6,0,31.6-.5,39.6-2.9,3-2.1,4.8-16.7,2.5-23.6-4.1-12.7-16.7-20.9-17.8-26.3s3.8-7.7,2.8-15.9-4-14.7-13.6-16c0,0-6.8-1.1-8.3-3.1s-.4-8.3-.4-8.3c2.1-5,2-11.6-.2-15.6a6.8,6.8,0,0,0-5.1-3.8c-8.9-1.3-16.7-8.3-20.4-18.3-.2-.5-.3-1-.5-1.5-3.2,3.8-5.8,7.4-6.2,9.3l-1.1,3-4.4,1.2c-12.7,5.1-14.9,12.8-12.9,28.1l-2.8,3.3-4.4,3.4c-18,11-11,23.4-10.1,31.6l1.6,4.2c-.1-.2-18,10.4-16.6,29.1.4,4.8-1.9,7.5,10.5,15.4a178.1,178.1,0,0,0,33,4.4c11.9.5,22.1,2.3,34.8,2.3Z" transform="translate(2 2)"/><path class="cls-16" d="M915.6,1096.5c-29.6,0-62.6-3.6-73.7-6.8l-.4-.2c-10-4.4-15.5-13.9-14.6-25.5s8.2-22.7,17.4-26.8c-3.3-10.3-7.2-27.3,14.7-40.9-1.8-17.3,3.9-27.2,19.3-33.5,3.5-9.9,21.1-25.6,24.7-26.3a3.2,3.2,0,0,1,3.6,1.6c1.3,2.2-.4,4.2-1.3,5.3s-2.2,7.1-.5,11.7,5.9,9.9,12,10.7a17.2,17.2,0,0,1,12.9,8.9c3.2,5.7,3.9,13.5,2,20.5,9.1,2.8,16.9,12.8,20.1,22,2.4,7,2.3,13.4-.4,18.1,10.4,5.4,17,19.2,18.3,31.5s-4,21.7-11.6,25.5l-1.9.6C946.2,1096,932.9,1096.5,915.6,1096.5Zm-71.7-13c16.9,4.9,87.3,10.4,113.1,2.5,4.9-2.6,7.2-9.5,6.3-18.5-1.2-11.7-8.3-25.2-17.9-27.6a3.1,3.1,0,0,1-2.3-2.4,3.4,3.4,0,0,1,.9-3.2c4.8-4.2,2.8-11.9,1.7-15-3.4-9.7-11.7-18-18.5-18.4a3.3,3.3,0,0,1-2.5-1.6,2.8,2.8,0,0,1-.2-2.9c2.5-6,2.4-13.6-.4-18.5a10.9,10.9,0,0,0-8.2-5.7c-7.4-1-14-6.7-17.1-14.8a22,22,0,0,1-1.6-8.5c-5.7,5.3-12.4,12.8-13.1,16.8a3,3,0,0,1-2,2.5c-14.5,5.6-18.7,13-16.4,29.3a3.2,3.2,0,0,1-1.6,3.3c-21,12.1-16.4,26.1-13,36.4l.3,1c.3.8.5,1.1,0,1.9a4.7,4.7,0,0,1-2.2,2.2c-8.1,2.1-13.6,12.1-15.8,22.2C832.2,1069.9,833.3,1079.1,843.9,1083.5ZM881,965.2Z" transform="translate(2 2)"/></g><g id="Layer_12" data-name="Layer 12"><text class="cls-22" transform="translate(399.7 200.8)">DIGESTIBLES</text></g><g id="dietIcon"><circle class="cls-3" cx="902" cy="544" r="141"/><path class="cls-17" d="M995,549.2v44.3a6.5,6.5,0,0,1-12.9,0V548.9h.1a9,9,0,0,0,2.8.4Z" transform="translate(2 2)"/><path class="cls-20" d="M995,477.9v71.3H985a9,9,0,0,1-2.8-.4,10.2,10.2,0,0,1-7.4-9.9V498.1A20.2,20.2,0,0,1,995,477.9Z" transform="translate(2 2)"/><path class="cls-20" d="M901.9,484.3a61.1,61.1,0,1,1-61.1,61A61,61,0,0,1,901.9,484.3Zm35.3,61a35.4,35.4,0,1,0-35.3,35.4A35.3,35.3,0,0,0,937.2,545.3Z" transform="translate(2 2)"/><circle class="cls-17" cx="903.9" cy="547.3" r="35.3"/><path class="cls-17" d="M818.4,477.9h12.2l2.2,40.8a11.2,11.2,0,0,1-8,10.9v63.9a6.5,6.5,0,0,1-12.9,0V529.9a11.3,11.3,0,0,1-7.7-11.2l2-40.8Z" transform="translate(2 2)"/><circle class="cls-23" cx="903.9" cy="547.3" r="61"/><circle class="cls-23" cx="903.9" cy="547.3" r="35.3"/><path class="cls-23" d="M995,549.2v44.3a6.5,6.5,0,0,1-12.9,0V548.9" transform="translate(2 2)"/><line class="cls-23" x1="820.4" y1="479.9" x2="820.4" y2="510.4"/><path class="cls-23" d="M995,549.2V477.9a20.2,20.2,0,0,0-20.2,20.2v40.8a10.2,10.2,0,0,0,7.4,9.9,9,9,0,0,0,2.8.4Z" transform="translate(2 2)"/><path class="cls-23" d="M832.8,518.7l-2.2-40.8H806.2l-2,40.8a11.3,11.3,0,0,0,7.7,11.2v63.6a6.5,6.5,0,0,0,12.9,0V529.6A11.2,11.2,0,0,0,832.8,518.7Z" transform="translate(2 2)"/></g><g id="backButton"><circle class="cls-6" cx="93" cy="88" r="54"/><path class="cls-17" d="M112.8,75.9h-21V66.8a6,6,0,0,0-10.1-4.4L74,69.5l-10.7,10a8.8,8.8,0,0,0,0,13l10.7,10,7.7,7.1a6,6,0,0,0,10.1-4.4V95.7h21a8.7,8.7,0,0,0,8.8-8.8V84.7A8.7,8.7,0,0,0,112.8,75.9Z" transform="translate(2 2)"/></g><g id="nextButton"><circle class="cls-6" cx="1155" cy="2118" r="54"/><path class="cls-17" d="M1131.2,2126.1h21v9.1a6,6,0,0,0,10.1,4.4l7.7-7.1,10.7-10a8.8,8.8,0,0,0,0-13l-10.7-10-7.7-7.1a6,6,0,0,0-10.1,4.4v9.5h-21a8.7,8.7,0,0,0-8.8,8.8v2.2A8.7,8.7,0,0,0,1131.2,2126.1Z" transform="translate(2 2)"/></g></g></svg>