<svg xmlns="http://www.w3.org/2000/svg" viewBox="0 0 332.1 264.1"><defs><style>.cls-1{isolation:isolate;}.cls-2{fill:#94b791;stroke:#202020;stroke-linecap:round;stroke-linejoin:round;stroke-width:6.59px;opacity:0.05;}.cls-3{fill:#fcfbfe;}.cls-4{fill:#c9d6d4;}.cls-5{fill:#4c3c2e;}.cls-6{fill:#ba9570;mix-blend-mode:multiply;}.cls-7{fill:#152c2f;}.cls-8{fill:#f9b2b8;}.cls-9{fill:#366463;}.cls-10{fill:#635637;}</style></defs><title>fact_logo</title><g class="cls-1"><g id="fact_logo"><path class="cls-2" d="M569.8,315.2c-6.7,5.5-47.1-1.1-35,27,9.6,22.4,62.7,23.1,82.1,24.8,24.1,2.2,94.3,6.9,110-17.3C751.7,311.8,563.2,317.4,569.8,315.2Z" transform="translate(-521.9 -108)"/><path class="cls-3" d="M848.1,121.7a1.3,1.3,0,0,1-.8-.3c-42.8-30.8-90.2,15.6-133.4,34.7-8,3.5-16,6.8-23.7,9.3-51,16.4-106.2,4.4-152.9-20.9-7.5,27.8-12.2,55.8-12.1,84.9a304.3,304.3,0,0,0,13.2,87.8c20,21.5,46.3,30.6,73.9,33.4s60.1,3.7,87.2-8.8c36.1-16.5,77.7-74.6,119.2-61.7a62.3,62.3,0,0,1,13,5.9c2.9-13.3,7.5-26.2,10.3-39.6a365.2,365.2,0,0,0,6.4-40.4A402.6,402.6,0,0,0,848.1,121.7ZM551.5,306.5c-4.9-.1-8.7-3.7-8.6-9.2s4-9.1,8-9.4,9.4,3,9.3,9.8S556.5,306.5,551.5,306.5Zm12.8-18.9c-2.8-.4-5.7-7-6.2-9.6-.8-4.8-.5-13,4.7-14.7s6.6,6.1,7.2,9.8S569.7,288.3,564.3,287.6Zm38.6,30.1c-5.7-1-12.1-5.4-14.1-11.7-.4-1.3-2.1-11,.3-10.5a133.3,133.3,0,0,0,14.3,2.4,95.1,95.1,0,0,0,14.1.6,1.1,1.1,0,0,1,1.1.6c.4.2.6.6.5,1.3C618,310.6,613.9,319.8,602.9,317.7Zm46.5-31.4c-.8,10.4-11.9,10.7-12.3.1-.2-5.7.1-13.6,7.4-12.2C649.4,275.2,649.7,282.2,649.4,286.3Zm11.3,26.5c-4.5,1.4-8.8-1.1-9.2-6.4-.8-10.1,14.3-17.1,16.3-5.1A10.4,10.4,0,0,1,660.7,312.8Zm67.6-118.4a1,1,0,1,1-2,0,40.1,40.1,0,0,1,.1-6,.9.9,0,1,1,1.8,0A40.1,40.1,0,0,1,728.3,194.4Zm0,13.9a1,1,0,1,1-2-.1,40.1,40.1,0,0,1,.1-6,.9.9,0,1,1,1.8,0A41.4,41.4,0,0,1,728.3,208.3Zm0,15.2a1,1,0,1,1-2-.1,40.1,40.1,0,0,1,.1-6,.9.9,0,1,1,1.8,0A41.4,41.4,0,0,1,728.3,223.5Zm0,15.2a1,1,0,1,1-2-.1,40.1,40.1,0,0,1,.1-6,.9.9,0,1,1,1.8,0A41.4,41.4,0,0,1,728.3,238.7Zm-1.5-66.8c1.4,1.8,2,6.4.3,8.2a.9.9,0,0,1-1.6-.4,12.9,12.9,0,0,1,0-3.4c-.1-1.2-.5-2.3-.5-3.5S726.2,171.1,726.8,171.9Zm-1.4-16.4a63.4,63.4,0,0,1,.7,7.5c.1,1.4-1.7,1.3-1.9,0a56.7,56.7,0,0,1-.6-7.2C723.6,154.7,725.2,154.4,725.4,155.5Zm4.1,164.3c-.4,1.2-2,.6-1.9-.6.4-3.4.8-6.8,1-10.2a1,1,0,0,1,1.9,0A35.4,35.4,0,0,1,729.5,319.8Zm1-18.8c-.2,1.2-1.8.9-2-.1a26.3,26.3,0,0,1-.2-5.6,32.2,32.2,0,0,1,.3-6.2c.2-1.1,1.7-1.4,1.9-.1a30.2,30.2,0,0,1,.3,6A29.8,29.8,0,0,1,730.5,301ZM728,258.7c-.1,1.1-1.8,1.6-2,.2a42.1,42.1,0,0,1-.4-5.1,21.7,21.7,0,0,1,0-5.1,1,1,0,0,1,1.9,0,19.5,19.5,0,0,1,.4,4.8A29.9,29.9,0,0,1,728,258.7Zm.5,12.2a1.1,1.1,0,0,1,2.1.1,29.7,29.7,0,0,1,.1,5.2c-.1,1.5,0,3.1-.2,4.7a1,1,0,0,1-1.9,0,30.2,30.2,0,0,1-.2-5.2A25.7,25.7,0,0,1,728.5,270.9Z" transform="translate(-521.9 -108)"/><path class="cls-3" d="M708,154.9l3.1-1.3c-6.4-17.5-26-22.9-41.2-27.5a194.6,194.6,0,0,0-46-8,158.5,158.5,0,0,0-46,4.1c-13.2,3.1-30.9,7.3-39.8,19.5h0C592,169.6,651.3,179.3,708,154.9ZM591,140.4c18.6-14.3,47.3-9.1,65.3,3.3a2.9,2.9,0,0,1-.2,3.3c-8.6,6.7-21.3,6.7-31.5,6.2s-23.7-3.4-33.7-10.2a1.1,1.1,0,0,1-.3-1.7A1,1,0,0,1,591,140.4Z" transform="translate(-521.9 -108)"/><path class="cls-4" d="M537.3,144.5c-8.7,8-14.3,77.5-13.4,92.9s4.8,68.4,14.5,79.8,55.1,55.8,161,26.4c-43.5.5-87.3-13.3-109-24.2C535.4,291.7,536.2,216.7,537.3,144.5Z" transform="translate(-521.9 -108)"/><path class="cls-5" d="M623.8,135.6c-11-.7-20.1,2.7-30.3,6.1,10.1,4.8,20,7.8,31.1,8.3,9.2.4,20.3.6,28.5-4.6A59.5,59.5,0,0,0,623.8,135.6Z" transform="translate(-521.9 -108)"/><path class="cls-6" d="M599.4,145.5c5.3,1,9.9,4.8,15.9,4.7s23.9-8.4,14.4-14.8c5-.2,24.5,2.1,24.7,9.5s-14.4,6.1-19,6.7c-7.3.9-14.6.2-21.9-.4a31.6,31.6,0,0,1-9.5-2.4C602.3,148.1,599.7,146.3,599.4,145.5Z" transform="translate(-521.9 -108)"/><path class="cls-7" d="M646.5,280.7c-.6-3.4-4.2-4.5-5.6-1.2s-1.3,11,1.5,12a2,2,0,0,0,1.1,0c1.7-.5,3.1-5.7,3.1-7.3S646.6,281.8,646.5,280.7Z" transform="translate(-521.9 -108)"/><path class="cls-7" d="M590.7,298.6a13.3,13.3,0,0,0,3.7,11c4.7-4.2,14.3-4.1,18.9.5a25.4,25.4,0,0,0,2.7-8.7A77.5,77.5,0,0,1,590.7,298.6Z" transform="translate(-521.9 -108)"/><path class="cls-7" d="M565.8,267.8c-4.4-5-5.1,5.8-5,7.3s.3,8.2,3.4,8.9c2.7-2.1,3.4-5.3,3.1-8.9C567.1,273.2,567,269.2,565.8,267.8Z" transform="translate(-521.9 -108)"/><path class="cls-8" d="M667.8,301.3c-2-12-17.1-5-16.3,5.1.4,5.3,4.7,7.8,9.2,6.4A10.4,10.4,0,0,0,667.8,301.3Z" transform="translate(-521.9 -108)"/><path class="cls-8" d="M596.2,311.3a18.6,18.6,0,0,0,6,2.9c4.3,1.1,7.3.2,9.4-1.9a13.7,13.7,0,0,0-7.8-2.5C601.1,309.7,598.7,310.6,596.2,311.3Z" transform="translate(-521.9 -108)"/><path class="cls-8" d="M550.9,287.9c-4,.3-7.8,3.4-8,9.4s3.7,9.1,8.6,9.2,8.7-3.1,8.7-8.8S555.5,287.5,550.9,287.9Z" transform="translate(-521.9 -108)"/><path class="cls-9" d="M851.2,119.5c-42.5-33.1-95.1,13.9-137,32.7-5.8-15.4-20.1-21.7-34-26.5a203.8,203.8,0,0,0-53.4-11,164.7,164.7,0,0,0-52.3,4.6c-12.9,3.4-33.5,8.1-39.9,22.3a1.7,1.7,0,0,0-.1,1.2c-9,28-12.8,58.6-12.6,88.1.1,16.3.9,32.8,4,48.7,6.4,32.9,7.7,38.6,17.4,46.7a118.9,118.9,0,0,0,56.8,26.2c12.8,2.1,25.9,2.7,38.8,2.9s28.7,0,42.6-3.4c44.3-11.2,88.4-81.9,135.8-68.1a66.4,66.4,0,0,1,13.9,6c1.2.7,2.1-.2,2.3-1.3l.3-.4c5.5-12.1,8.3-26.5,11.2-39.6a376.4,376.4,0,0,0,6.8-43.6C854.7,176.6,854.9,121.7,851.2,119.5Zm-273.3,2.7a158.5,158.5,0,0,1,46-4.1,194.6,194.6,0,0,1,46,8c15.2,4.6,34.8,10,41.2,27.5l-3.1,1.3c-56.7,24.4-116,14.7-169.9-13.2h0C547,129.5,564.7,125.3,577.9,122.2ZM848.4,206a365.2,365.2,0,0,1-6.4,40.4c-2.8,13.4-7.4,26.3-10.3,39.6a62.3,62.3,0,0,0-13-5.9c-41.5-12.9-83.1,45.2-119.2,61.7-27.1,12.5-58.3,11.7-87.2,8.8s-53.9-11.9-73.9-33.4a304.3,304.3,0,0,1-13.2-87.8c-.1-29.1,4.6-57.1,12.1-84.9,46.7,25.3,101.9,37.3,152.9,20.9,7.7-2.5,15.7-5.8,23.7-9.3,43.2-19.1,90.6-65.5,133.4-34.7a1.3,1.3,0,0,0,.8.3A402.6,402.6,0,0,1,848.4,206Z" transform="translate(-521.9 -108)"/><path class="cls-9" d="M730.5,289c-.2-1.3-1.7-1-1.9.1a32.2,32.2,0,0,0-.3,6.2,26.3,26.3,0,0,0,.2,5.6c.2,1,1.8,1.3,2,.1a29.8,29.8,0,0,0,.3-6A30.2,30.2,0,0,0,730.5,289Z" transform="translate(-521.9 -108)"/><path class="cls-9" d="M730.5,251.5a1,1,0,0,0-1.9-.1,17.5,17.5,0,0,0-.2,5.1,44.7,44.7,0,0,0,.1,5.2c.2,1.3,1.9,1,2.1-.2a45.1,45.1,0,0,0,.1-5.2A25.7,25.7,0,0,0,730.5,251.5Z" transform="translate(-521.9 -108)"/><path class="cls-9" d="M728.4,275.7a30.2,30.2,0,0,0,.2,5.2,1,1,0,0,0,1.9,0c.2-1.6.1-3.2.2-4.7a29.7,29.7,0,0,0-.1-5.2,1.1,1.1,0,0,0-2.1-.1A25.7,25.7,0,0,0,728.4,275.7Z" transform="translate(-521.9 -108)"/><path class="cls-9" d="M728.6,309c-.2,3.4-.6,6.8-1,10.2-.1,1.2,1.5,1.8,1.9.6a35.4,35.4,0,0,0,1-10.8A1,1,0,0,0,728.6,309Z" transform="translate(-521.9 -108)"/><path class="cls-9" d="M726.4,188.4a40.1,40.1,0,0,0-.1,6,1,1,0,1,0,2,0,40.1,40.1,0,0,0-.1-6A.9.9,0,1,0,726.4,188.4Z" transform="translate(-521.9 -108)"/><path class="cls-9" d="M725,172.8c0,1.2.4,2.3.5,3.5a12.9,12.9,0,0,0,0,3.4.9.9,0,0,0,1.6.4c1.7-1.8,1.1-6.4-.3-8.2S725,171.9,725,172.8Z" transform="translate(-521.9 -108)"/><path class="cls-9" d="M726.1,163a63.4,63.4,0,0,0-.7-7.5c-.2-1.1-1.8-.8-1.8.3a56.7,56.7,0,0,0,.6,7.2C724.4,164.3,726.2,164.4,726.1,163Z" transform="translate(-521.9 -108)"/><path class="cls-10" d="M590.9,143c10,6.8,22.1,9.6,33.7,10.2s22.9.5,31.5-6.2a2.9,2.9,0,0,0,.2-3.3c-18-12.4-46.7-17.6-65.3-3.3a1,1,0,0,0-.4.9A1.1,1.1,0,0,0,590.9,143Zm32.9-7.4a59.5,59.5,0,0,1,29.3,9.8c-8.2,5.2-19.3,5-28.5,4.6-11.1-.5-21-3.5-31.1-8.3C603.7,138.3,612.8,134.9,623.8,135.6Z" transform="translate(-521.9 -108)"/><path class="cls-9" d="M644.5,274.2c-7.3-1.4-7.6,6.5-7.4,12.2.4,10.6,11.5,10.3,12.3-.1C649.7,282.2,649.4,275.2,644.5,274.2Zm-1,17.3a2,2,0,0,1-1.1,0c-2.8-1-2.4-10-1.5-12s5-2.2,5.6,1.2c.1,1.1.1,2.3.1,3.5S645.2,291,643.5,291.5Z" transform="translate(-521.9 -108)"/><path class="cls-9" d="M618.6,299.1a1.1,1.1,0,0,0-1.1-.6,95.1,95.1,0,0,1-14.1-.6,133.3,133.3,0,0,1-14.3-2.4c-2.4-.5-.7,9.2-.3,10.5,2,6.3,8.4,10.7,14.1,11.7,11,2.1,15.1-7.1,16.2-17.3C619.2,299.7,619,299.3,618.6,299.1Zm-16.4,15.1a18.6,18.6,0,0,1-6-2.9c2.5-.7,4.9-1.6,7.6-1.5a13.7,13.7,0,0,1,7.8,2.5C609.5,314.4,606.5,315.3,602.2,314.2Zm11.1-4.1c-4.6-4.6-14.2-4.7-18.9-.5a13.3,13.3,0,0,1-3.7-11,77.5,77.5,0,0,0,25.3,2.8A25.4,25.4,0,0,1,613.3,310.1Z" transform="translate(-521.9 -108)"/><path class="cls-9" d="M562.8,263.3c-5.2,1.7-5.5,9.9-4.7,14.7.5,2.6,3.4,9.2,6.2,9.6,5.4.7,6.3-10.6,5.7-14.5S568,261.5,562.8,263.3Zm1.4,20.7c-3.1-.7-3.4-6.2-3.4-8.9s.6-12.3,5-7.3c1.2,1.4,1.3,5.4,1.5,7.3C567.6,278.7,566.9,281.9,564.2,284Z" transform="translate(-521.9 -108)"/></g></g></svg>