<?xml version="1.0" encoding="utf-8"?>
<!-- Generator: Adobe Illustrator 22.1.0, SVG Export Plug-In . SVG Version: 6.00 Build 0)  -->
<svg version="1.1" xmlns="http://www.w3.org/2000/svg" xmlns:xlink="http://www.w3.org/1999/xlink" x="0px" y="0px"
	 viewBox="0 0 100 100" style="enable-background:new 0 0 100 100;" xml:space="preserve">
<style type="text/css">
	.st0{display:none;}
	.st1{display:inline;}
	.st2{fill:#FFFB78;}
	.st3{fill:none;stroke:#0D3B46;stroke-width:15.1127;stroke-linecap:round;stroke-linejoin:round;stroke-miterlimit:10;}
	.st4{fill:#0D3B46;}
	.st5{display:inline;fill:#0D3B46;}
	.st6{fill:#A7CE38;}
	.st7{fill:#7D7E81;}
	.st8{fill:#ABADB0;}
	.st9{fill:#B1C0C9;}
	.st10{fill:#0D0E1F;}
</style>
<g id="Title" class="st0">
	<text transform="matrix(1 0 0 1 -130.949 -135.5356)" class="st1" style="font-family:'CaviarDreams-Bold'; font-size:72px;">POOSH-IT!</text>
</g>
<g id="Logo" class="st0">
	<g id="LOGO_1_" class="st1">
		<g>
			<path class="st2" d="M83.3-258.2c46,0,82.7-1.2,103.5-7.7c8-5.3,12.6-43.6,6.7-61.7c-10.9-33.2-43.7-54.6-46.7-68.9
				c-3-14.4,10.1-20.1,7.4-41.6c-2.9-23.4-10.4-38.5-35.6-41.7c0,0-17.9-2.9-21.7-8.2c-3.8-5.3-1.1-21.7-1.1-21.7
				c5.3-13.1,5.1-30.3-0.5-40.9c-3.1-5.8-7.4-9-13.5-9.9c-23.3-3.5-43.7-21.9-53.3-48c-0.5-1.3-0.9-2.6-1.3-3.8
				c-8.4,9.8-15.3,19.4-16.2,24.4l-3,7.7L-3.4-577c-33.2,13.4-39,33.6-33.7,73.4l-7.3,8.7l-11.5,9.1c-47.2,28.7-28.7,61.1-26.5,82.5
				l4.2,11.1c-0.3-0.7-47,27.2-43.3,76.2c0.9,12.7-5,19.7,27.4,40.4c18.3,4,49.4,10,86.3,11.5C23.4-262.9,50-258.2,83.3-258.2
				C83.3-258.2,83.3-258.2,83.3-258.2z"/>
			<line class="st3" x1="-37.4" y1="-498.2" x2="16.5" y2="-498.2"/>
			<line class="st3" x1="114.8" y1="-400" x2="174.1" y2="-400"/>
			<line class="st3" x1="69.9" y1="-400" x2="95.6" y2="-400"/>
			<line class="st3" x1="34.2" y1="-498.2" x2="60" y2="-498.2"/>
			<path class="st4" d="M95.2-243.6c-77.7,0-164-9.2-193-17.8c-0.3-0.1-0.7-0.2-1-0.4c-26.3-11.5-40.5-36.5-38.1-66.7
				c2.4-30.9,21.3-59.4,45.4-70.2c-8.5-27-18.7-71.4,38.5-107.1c-4.9-45.1,10-71,50.4-87.6c9.1-25.9,55.3-67,64.8-68.8
				c3.8-0.7,7.4,0.9,9.3,4.1c3.4,5.8-1,11.1-3.4,13.9c-5.4,6.6-5.9,18.6-1.2,30.7c4.7,12.1,15.4,25.8,31.3,28.1
				c14.7,2.1,26.4,10.2,33.8,23.3c8.3,14.8,10.1,35.2,5.2,53.5c23.9,7.4,44.3,33.6,52.6,57.6c6.4,18.4,5.9,34.9-1,47.3
				c27.2,14.1,44.5,50.2,47.9,82.4c3.3,31.3-10.5,56.8-30.3,66.7c-0.4,0.2-4.6,1.5-5,1.6C175.1-244.8,140.5-243.6,95.2-243.6z
				 M-92.5-277.5c44.1,12.7,228.4,27.2,295.9,6.5c12.9-6.9,19-25,16.5-48.6c-3.2-30.4-21.6-65.7-46.8-72.2c-3-0.8-5.4-3.2-6.1-6.2
				c-0.7-3,0.3-6.2,2.6-8.3c12.3-11,7.1-31.1,4.3-39.2c-8.8-25.5-30.5-47.2-48.3-48.3c-2.7-0.2-5.2-1.7-6.7-4
				c-1.4-2.3-1.7-5.2-0.6-7.8c6.7-15.6,6.3-35.5-1-48.4c-4.8-8.5-12-13.5-21.4-14.8c-19.4-2.8-36.5-17.6-44.7-38.7
				c-3-7.6-4.4-15.3-4.3-22.5c-14.8,14-32.3,33.5-34,44.1c-0.5,3-2.5,5.4-5.3,6.5c-38.1,14.5-48.9,33.9-43,76.7
				c0.5,3.4-1.2,6.8-4.1,8.5c-54.9,31.7-42.9,68.4-34.1,95.3l0.9,2.7c0.7,2.2,1.1,2.9,0,4.9c-1.1,2-3.7,5.3-5.9,5.9
				c-21,5.5-35.4,31.6-41.3,58.2C-123.2-313.1-120.2-289-92.5-277.5z M4.4-587.2L4.4-587.2L4.4-587.2z"/>
		</g>
	</g>
</g>
<g id="dot" class="st0">
	<circle class="st5" cx="178.4" cy="-631.5" r="10.5"/>
</g>
<g id="X" class="st0">
	<path class="st5" d="M-10-661.4l-12-5.5l5.5-12c0.9-1.9,0-4.3-1.9-5.2c-1.9-0.9-4.3,0-5.2,1.9l-5.5,12l-12-5.5
		c-1.9-0.9-4.3,0-5.2,1.9c-0.9,1.9,0,4.3,1.9,5.2l12,5.5l-5.5,12c-0.9,1.9,0,4.3,1.9,5.2c1.9,0.9,4.3,0,5.2-1.9l5.5-12l12,5.5
		c1.9,0.9,4.3,0,5.2-1.9C-7.2-658.2-8-660.5-10-661.4z"/>
</g>
<g id="fly_x5F_1" class="st0">
	<g id="Bee_1_" class="st1">
		<path class="st6" d="M107-487.3c-0.7,0.5-1.7,0.3-2.2-0.4c-0.5-0.7-0.3-1.7,0.4-2.2c0.7-0.5,1.7-0.3,2.2,0.4
			C107.9-488.8,107.7-487.8,107-487.3z"/>
		<path class="st7" d="M114-487.9c0.3,1.4,1,3.3,2.4,5.5c-0.8-0.3-1.5-0.8-2-1.5C113.6-485,113.5-486.5,114-487.9z"/>
		<path class="st8" d="M107.4-485.3c0.3-0.1,0.5-0.2,0.7-0.4c0.9-0.6,1.4-1.6,1.5-2.7c0.9,0.3,1.9,0.9,2.3,1.2l0,0
			c-0.1,0.5-0.1,1.1-0.1,1.6c-1,0.4-2.7,0.9-3.7,0.8C107.7-484.8,107.5-485,107.4-485.3z"/>
		<path class="st7" d="M124.2-500.3c1.2,0,2.3,0.9,2.7,2.1c0.9,2.5-1.7,4.3-4.3,5.3c-0.5-0.2-0.9-0.4-1.4-0.5
			C123.1-495.6,124.1-497.9,124.2-500.3z"/>
		<path class="st9" d="M116.2-490.6c0.1-0.1,0.2-0.1,0.3-0.2c0.1,1.2,0.6,4.4,3.4,8.4c-0.6,0.2-1.3,0.3-1.9,0.3
			c-2.3-3.4-2.9-6.1-3.1-7.3C115.3-489.9,115.7-490.3,116.2-490.6z"/>
		<path class="st9" d="M116-492.8c-0.2-0.3-0.4-0.7-0.5-1c0.3-2.2,2.4-4.5,2.4-4.5c-1.8,1.1-2.5,2.6-2.8,3.4
			c-1.1-3.6,0.2-6.8,0.2-6.8c-2.5,3.6-1.2,8.1-0.6,9.8c-0.4,0.3-0.8,0.7-1.1,1c-1.4-2.2-4.2-7.6-2-12.5c0.5-1,2.2-4.3,5.5-4.1
			c2.8,0.2,4.4,2.7,4.9,5c0.9,3.9-1.3,7-3.5,8.9C117.7-493.5,116.8-493.2,116-492.8z"/>
		<path class="st9" d="M123.1-490.1c1,1.3,0.9,3.1,0.1,4.7c-1.7-2.8-2.3-5-2.6-6.2C121.7-491.4,122.6-490.9,123.1-490.1z"/>
		<path class="st10" d="M114.6-476.5c0.2,0.2,0.5,0.2,0.7,0c0,0,0.1-0.1,0.1-0.1c0.2-0.3,0.2-0.6-0.1-0.8c-1.5-1.2-2.8-2.6-2.9-3
			c0.2-0.4,0.9-0.8,1.4-1.1c1,0.8,2.2,1.3,3.5,1.3c0.1,0.6,0.3,1.7,1,2.3c1.1,1,3,0.5,3.2,0.5c0.1,0,0.1,0,0.2-0.1
			c0.2-0.1,0.3-0.4,0.2-0.6c-0.1-0.3-0.4-0.5-0.7-0.4c-0.4,0.1-1.6,0.3-2.2-0.2c-0.4-0.4-0.6-1-0.6-1.5c1.3-0.1,2.7-0.6,3.9-1.5
			c3.3-2.3,4.3-6.6,2.2-9.5c-0.1-0.2-0.2-0.3-0.4-0.5c0.7-0.3,1.4-0.7,1.9-1.1c2.4-1.7,3.2-3.8,2.4-6.1c-0.7-2-2.6-3.4-4.7-3.4
			c0-0.2-0.1-0.5-0.1-0.7c-0.9-3.7-3.5-6.2-6.7-6.5c-3-0.2-5.8,1.7-7.4,5.2c-3,6.5,1.2,13.2,2.6,15.1c-0.7-0.5-2.1-1.2-3.4-1.4
			c0,0-0.1-0.1-0.1-0.1c-1.1-1.6-3.3-1.9-4.9-0.8c-1.6,1.1-2,3.3-0.8,4.9c0.5,0.8,1.3,1.2,2.2,1.4c0.3,1.3,1.3,2.1,2.5,2.3
			c1.4,0.1,3.3-0.4,4.4-0.8c0.2,0.3,0.3,0.7,0.6,1c0.1,0.1,0.1,0.2,0.2,0.3c-0.6,0.4-1.3,0.9-1.6,1.4
			C110.8-479.8,112.8-477.9,114.6-476.5z M107.3-489.5c0.5,0.7,0.3,1.7-0.4,2.2c-0.7,0.5-1.7,0.3-2.2-0.4c-0.5-0.7-0.3-1.7,0.4-2.2
			C105.8-490.4,106.8-490.2,107.3-489.5z M121.2-493.5c1.9-2.1,2.9-4.4,3-6.8c1.2,0,2.3,0.9,2.7,2.1c0.9,2.5-1.7,4.3-4.3,5.3
			C122.2-493.2,121.7-493.4,121.2-493.5z M118.6-493.6c-0.9,0.1-1.7,0.4-2.6,0.8c-0.2-0.3-0.4-0.7-0.5-1c0.3-2.2,2.4-4.5,2.4-4.5
			c-1.8,1.1-2.5,2.6-2.8,3.4c-1.1-3.6,0.2-6.8,0.2-6.8c-2.5,3.6-1.2,8.1-0.6,9.8c-0.4,0.3-0.8,0.7-1.1,1c-1.4-2.2-4.2-7.6-2-12.5
			c0.5-1,2.2-4.3,5.5-4.1c2.8,0.2,4.4,2.7,4.9,5C123-498.6,120.7-495.5,118.6-493.6z M123.3-485.4c-1.7-2.8-2.3-5-2.6-6.2
			c1,0.2,1.8,0.8,2.4,1.6C124.1-488.7,124.1-486.9,123.3-485.4z M121-483c-3.3-4.8-3.3-8.3-3.3-8.3l-0.2,0c0.7-0.3,1.4-0.4,2.2-0.5
			c0.2,1.4,0.8,4.1,3,7.4c-0.3,0.4-0.7,0.8-1.2,1.1C121.3-483.2,121.1-483.1,121-483z M118-482.1c-2.3-3.4-2.9-6.1-3.1-7.3
			c0.3-0.4,0.8-0.8,1.3-1.2c0.1-0.1,0.2-0.1,0.3-0.2c0.1,1.2,0.6,4.4,3.4,8.4C119.3-482.2,118.6-482.1,118-482.1z M114.4-483.8
			c-0.8-1.2-0.9-2.7-0.4-4.1c0.3,1.4,1,3.3,2.4,5.5C115.6-482.6,114.9-483.1,114.4-483.8z M108.1-484.8c-0.4,0-0.6-0.3-0.7-0.5
			c0.3-0.1,0.5-0.2,0.7-0.4c0.9-0.6,1.4-1.6,1.5-2.7c0.9,0.3,1.9,0.9,2.3,1.2l0,0c-0.1,0.5-0.1,1.1-0.1,1.6
			C110.7-485.2,109.1-484.7,108.1-484.8z"/>
		<path class="st7" d="M117.4-491.3c0.7-0.3,1.5-0.5,2.2-0.5c0.2,1.4,0.8,4.1,3,7.5c-0.3,0.4-0.7,0.8-1.2,1.1
			c-0.2,0.1-0.3,0.2-0.5,0.3c-3.3-4.8-3.3-8.3-3.3-8.4L117.4-491.3z"/>
	</g>
</g>
<g id="fly_x5F_2">
	<path class="st6" d="M73.4,64.4c1.8,1.3,4.4,0.9,5.7-0.9c1.3-1.8,0.9-4.4-0.9-5.7c-1.8-1.3-4.4-0.9-5.7,0.9
		C71.2,60.6,71.6,63.1,73.4,64.4z"/>
	<path class="st7" d="M55.4,62.8c-0.9,3.5-2.6,8.4-6.2,14.1c2.1-0.7,3.9-1.9,5.2-3.7C56.6,70.3,56.8,66.4,55.4,62.8z"/>
	<path class="st8" d="M72.4,69.4c-0.6-0.3-1.3-0.6-1.9-1c-2.3-1.6-3.6-4.2-3.7-6.8c-2.4,0.8-4.9,2.3-5.8,3l0,0
		c0.2,1.4,0.3,2.8,0.2,4.2c2.7,1,6.9,2.3,9.5,2C71.5,70.7,72.1,70.1,72.4,69.4z"/>
	<path class="st7" d="M29.5,31.2c-3,0.1-5.8,2.2-6.9,5.3c-2.2,6.5,4.4,10.8,10.9,13.4c1.2-0.6,2.4-1,3.7-1.3
		C32.4,43.2,29.8,37.3,29.5,31.2z"/>
	<path class="st9" d="M50,55.9c-0.3-0.2-0.5-0.4-0.8-0.5c-0.3,3-1.6,11.1-8.7,21.3c1.6,0.6,3.3,0.9,4.9,0.9
		c5.8-8.6,7.4-15.5,7.8-18.6C52.3,57.8,51.2,56.8,50,55.9z"/>
	<path class="st9" d="M50.4,50.4c0.5-0.9,1-1.7,1.4-2.6c-0.8-5.6-6.1-11.6-6.1-11.6c4.6,2.7,6.5,6.6,7.2,8.7
		c2.8-9.1-0.6-17.2-0.6-17.2c6.5,9.2,3.2,20.7,1.6,24.9c1,0.8,1.9,1.7,2.7,2.6c3.6-5.7,10.8-19.3,5-31.9c-1.2-2.6-5.7-11-14-10.4
		c-7.2,0.5-11.2,6.9-12.6,12.7c-2.4,10,3.4,17.8,8.9,22.7C46.1,48.6,48.3,49.3,50.4,50.4z"/>
	<path class="st9" d="M32.2,57.4c-2.4,3.4-2.4,7.9-0.3,11.9c4.4-7,6-12.7,6.5-15.9C35.9,53.9,33.7,55.3,32.2,57.4z"/>
	<path class="st10" d="M62,80.5c-0.8-1.5-2.6-2.8-4.1-3.7c0.2-0.2,0.4-0.5,0.6-0.7c0.6-0.8,1.1-1.7,1.5-2.6
		c2.9,1.1,7.7,2.5,11.2,2.1c3.1-0.3,5.5-2.5,6.4-5.7c2.2-0.4,4.2-1.6,5.6-3.6c2.9-4,1.9-9.6-2.1-12.5c-4-2.9-9.6-1.9-12.5,2.1
		c-0.1,0.1-0.1,0.2-0.2,0.3c-3.4,0.5-6.9,2.3-8.7,3.5C63,54.9,73.6,37.9,66,21.3C62,12.5,54.9,7.5,47.2,8c-8.1,0.6-14.8,7-17,16.5
		c-0.1,0.6-0.3,1.2-0.3,1.7c-5.1,0-10.1,3.5-11.9,8.7c-2,5.9,0.2,11.3,6.2,15.6c1.4,1,3.1,2,4.9,2.9c-0.3,0.4-0.6,0.7-0.9,1.1
		c-5.3,7.4-2.8,18.2,5.6,24.2c3.1,2.2,6.5,3.4,9.9,3.7c-0.2,1.2-0.6,2.8-1.6,3.7c-1.4,1.2-4.5,0.8-5.5,0.6c-0.8-0.2-1.6,0.3-1.8,1.1
		c-0.1,0.6,0.1,1.2,0.6,1.6c0.1,0.1,0.3,0.2,0.5,0.2c0.5,0.1,5.4,1.2,8.2-1.2c1.9-1.6,2.5-4.3,2.7-5.9c3.3-0.2,6.5-1.4,9-3.4
		c1.4,0.8,3,1.8,3.6,2.8c-0.1,1.2-3.5,4.7-7.3,7.7c-0.6,0.5-0.8,1.4-0.2,2.1c0.1,0.1,0.2,0.2,0.3,0.3c0.5,0.4,1.2,0.4,1.8,0
		C58.4,88.2,63.5,83.4,62,80.5z M78.1,57.8c1.8,1.3,2.2,3.8,0.9,5.7c-1.3,1.8-3.8,2.2-5.7,0.9c-1.8-1.3-2.2-3.8-0.9-5.7
		C73.8,56.9,76.3,56.5,78.1,57.8z M33.5,49.9c-6.4-2.6-13-7-10.9-13.4c1.1-3.1,3.9-5.2,6.9-5.3c0.2,6.1,2.8,12.1,7.6,17.4
		C35.9,48.9,34.7,49.3,33.5,49.9z M35,25.6c1.4-5.8,5.4-12.2,12.6-12.7c8.3-0.6,12.8,7.8,14,10.4c5.8,12.6-1.4,26.3-5,31.9
		c-0.8-0.9-1.7-1.8-2.7-2.6c1.6-4.2,4.9-15.6-1.6-24.9c0,0,3.4,8.1,0.6,17.2c-0.7-2.1-2.6-6-7.2-8.7c0,0,5.3,5.9,6.1,11.6
		c-0.4,0.9-0.8,1.7-1.4,2.6c-2.1-1.1-4.3-1.8-6.5-2.1C38.4,43.4,32.6,35.7,35,25.6z M32.2,57.4c1.5-2.1,3.7-3.4,6.2-4
		c-0.5,3.2-2.1,8.9-6.5,15.9C29.8,65.3,29.8,60.8,32.2,57.4z M36.6,74.7c-1.1-0.8-2.1-1.7-3-2.8c5.6-8.5,7.3-15.4,7.8-18.9
		c1.8,0,3.7,0.4,5.5,1.2l-0.6,0c0,0.1,0,9.1-8.5,21.2C37.4,75.2,37,74.9,36.6,74.7z M40.5,76.7c7.1-10.2,8.5-18.3,8.7-21.3
		c0.3,0.2,0.6,0.4,0.8,0.5c1.2,0.9,2.3,1.9,3.2,3c-0.4,3.1-2,10-7.8,18.6C43.7,77.6,42.1,77.3,40.5,76.7z M49.3,77
		c3.5-5.7,5.3-10.6,6.2-14.1c1.4,3.6,1.1,7.4-1,10.4C53.2,75,51.3,76.3,49.3,77z M61.1,68.7c0.1-1.4,0.1-2.8-0.2-4.2l0,0
		c0.9-0.7,3.4-2.2,5.8-3c0.2,2.6,1.4,5.2,3.7,6.8c0.6,0.4,1.2,0.8,1.9,1c-0.3,0.7-0.9,1.2-1.8,1.3C68,71,63.8,69.7,61.1,68.7z"/>
	<path class="st7" d="M46.8,54.1c-1.9-0.8-3.8-1.2-5.6-1.3c-0.4,3.5-2,10.5-7.6,19c0.9,1,1.9,2,3.1,2.8c0.4,0.3,0.8,0.5,1.2,0.8
		c8.5-12.1,8.4-21.2,8.4-21.3L46.8,54.1z"/>
</g>
<g id="fly_x5F_3" class="st0">
	<g id="Bee" class="st1">
		<path class="st6" d="M-28.2-503.8c0.7,0.5,1.7,0.3,2.2-0.4c0.5-0.7,0.3-1.7-0.4-2.2c-0.7-0.5-1.7-0.3-2.2,0.4
			C-29.1-505.3-29-504.3-28.2-503.8z"/>
		<path class="st7" d="M-35.3-504.4c-0.3,1.4-1,3.3-2.4,5.5c0.8-0.3,1.5-0.8,2-1.5C-34.8-501.5-34.8-503-35.3-504.4z"/>
		<path class="st8" d="M-28.6-501.9c-0.3-0.1-0.5-0.2-0.7-0.4c-0.9-0.6-1.4-1.6-1.5-2.7c-0.9,0.3-1.9,0.9-2.3,1.2l0,0
			c0.1,0.5,0.1,1.1,0.1,1.6c1,0.4,2.7,0.9,3.7,0.8C-29-501.4-28.8-501.6-28.6-501.9z"/>
		<path class="st7" d="M-45.4-516.9c-1.2,0-2.3,0.9-2.7,2.1c-0.9,2.5,1.7,4.3,4.3,5.3c0.5-0.2,0.9-0.4,1.4-0.5
			C-44.3-512.1-45.4-514.5-45.4-516.9z"/>
		<path class="st9" d="M-37.4-507.2c-0.1-0.1-0.2-0.1-0.3-0.2c-0.1,1.2-0.6,4.4-3.4,8.4c0.6,0.2,1.3,0.3,1.9,0.3
			c2.3-3.4,2.9-6.1,3.1-7.3C-36.5-506.4-36.9-506.8-37.4-507.2z"/>
		<path class="st9" d="M-37.3-509.3c0.2-0.3,0.4-0.7,0.5-1c-0.3-2.2-2.4-4.5-2.4-4.5c1.8,1.1,2.5,2.6,2.8,3.4
			c1.1-3.6-0.2-6.8-0.2-6.8c2.5,3.6,1.2,8.1,0.6,9.8c0.4,0.3,0.8,0.7,1.1,1c1.4-2.2,4.2-7.6,2-12.5c-0.5-1-2.2-4.3-5.5-4.1
			c-2.8,0.2-4.4,2.7-4.9,5c-0.9,3.9,1.3,7,3.5,8.9C-39-510-38.1-509.8-37.3-509.3z"/>
		<path class="st9" d="M-44.4-506.6c-1,1.3-0.9,3.1-0.1,4.7c1.7-2.8,2.3-5,2.6-6.2C-43-507.9-43.8-507.4-44.4-506.6z"/>
		<path class="st10" d="M-32.7-497.5c-0.3-0.6-1-1.1-1.6-1.4c0.1-0.1,0.1-0.2,0.2-0.3c0.2-0.3,0.4-0.7,0.6-1c1.1,0.4,3,1,4.4,0.8
			c1.2-0.1,2.2-1,2.5-2.3c0.9-0.2,1.7-0.6,2.2-1.4c1.1-1.6,0.8-3.8-0.8-4.9c-1.6-1.1-3.8-0.8-4.9,0.8c0,0-0.1,0.1-0.1,0.1
			c-1.3,0.2-2.7,0.9-3.4,1.4c1.4-1.9,5.5-8.6,2.6-15.1c-1.6-3.5-4.4-5.4-7.4-5.2c-3.2,0.2-5.8,2.8-6.7,6.5c-0.1,0.2-0.1,0.5-0.1,0.7
			c-2,0-4,1.4-4.7,3.4c-0.8,2.3,0.1,4.4,2.4,6.1c0.6,0.4,1.2,0.8,1.9,1.1c-0.1,0.1-0.2,0.3-0.4,0.5c-2.1,2.9-1.1,7.2,2.2,9.5
			c1.2,0.9,2.6,1.3,3.9,1.5c-0.1,0.5-0.2,1.1-0.6,1.5c-0.5,0.5-1.8,0.3-2.2,0.2c-0.3-0.1-0.6,0.1-0.7,0.4c-0.1,0.2,0,0.5,0.2,0.6
			c0.1,0,0.1,0.1,0.2,0.1c0.2,0.1,2.1,0.5,3.2-0.5c0.7-0.6,1-1.7,1-2.3c1.3-0.1,2.5-0.6,3.5-1.3c0.6,0.3,1.2,0.7,1.4,1.1
			c-0.1,0.5-1.4,1.9-2.9,3c-0.3,0.2-0.3,0.6-0.1,0.8c0,0,0.1,0.1,0.1,0.1c0.2,0.1,0.5,0.1,0.7,0C-34.1-494.5-32.1-496.4-32.7-497.5z
			 M-26.4-506.4c0.7,0.5,0.9,1.5,0.4,2.2c-0.5,0.7-1.5,0.9-2.2,0.4c-0.7-0.5-0.9-1.5-0.4-2.2C-28.1-506.8-27.1-506.9-26.4-506.4z
			 M-43.9-509.5c-2.5-1-5.1-2.7-4.3-5.3c0.4-1.2,1.5-2.1,2.7-2.1c0.1,2.4,1.1,4.7,3,6.8C-43-509.9-43.4-509.7-43.9-509.5z
			 M-43.3-519c0.5-2.3,2.1-4.8,4.9-5c3.3-0.2,5,3.1,5.5,4.1c2.3,5-0.5,10.3-2,12.5c-0.3-0.4-0.7-0.7-1.1-1c0.6-1.7,1.9-6.1-0.6-9.8
			c0,0,1.3,3.2,0.2,6.8c-0.3-0.8-1-2.3-2.8-3.4c0,0,2.1,2.3,2.4,4.5c-0.2,0.3-0.3,0.7-0.5,1c-0.8-0.4-1.7-0.7-2.6-0.8
			C-42-512.1-44.2-515.1-43.3-519z M-44.4-506.6c0.6-0.8,1.4-1.4,2.4-1.6c-0.2,1.2-0.8,3.5-2.6,6.2
			C-45.4-503.5-45.4-505.3-44.4-506.6z M-42.7-499.8c-0.4-0.3-0.8-0.7-1.2-1.1c2.2-3.3,2.9-6.1,3-7.4c0.7,0,1.4,0.2,2.2,0.5l-0.2,0
			c0,0,0,3.6-3.3,8.3C-42.4-499.6-42.5-499.7-42.7-499.8z M-41.2-499c2.8-4,3.3-7.2,3.4-8.4c0.1,0.1,0.2,0.1,0.3,0.2
			c0.5,0.3,0.9,0.7,1.3,1.2c-0.2,1.2-0.8,3.9-3.1,7.3C-39.9-498.7-40.5-498.8-41.2-499z M-37.7-498.9c1.4-2.2,2.1-4.2,2.4-5.5
			c0.5,1.4,0.4,2.9-0.4,4.1C-36.2-499.7-36.9-499.2-37.7-498.9z M-33.1-502.1c0-0.5,0-1.1-0.1-1.6l0,0c0.4-0.3,1.3-0.8,2.3-1.2
			c0.1,1,0.6,2,1.5,2.7c0.2,0.2,0.5,0.3,0.7,0.4c-0.1,0.3-0.4,0.5-0.7,0.5C-30.4-501.2-32-501.7-33.1-502.1z"/>
		<path class="st7" d="M-38.7-507.9c-0.7-0.3-1.5-0.5-2.2-0.5c-0.2,1.4-0.8,4.1-3,7.5c0.3,0.4,0.7,0.8,1.2,1.1
			c0.2,0.1,0.3,0.2,0.5,0.3c3.3-4.8,3.3-8.3,3.3-8.4L-38.7-507.9z"/>
	</g>
</g>
</svg>
