<svg xmlns="http://www.w3.org/2000/svg" xmlns:xlink="http://www.w3.org/1999/xlink" viewBox="0 0 1245 2210"><defs><style>.cls-1{isolation:isolate;}.cls-2{fill:url(#linear-gradient);}.cls-3,.cls-5{fill:#d1997e;}.cls-4{fill:#deb7a3;}.cls-5{font-size:85.98px;font-family:CaviarDreams-Bold, Caviar Dreams;font-weight:700;}.cls-6{letter-spacing:-0.03em;}.cls-7{letter-spacing:-0.02em;}.cls-8{letter-spacing:-0.01em;}.cls-9{fill:#afd9b0;}.cls-10{fill:none;}.cls-10,.cls-11,.cls-12{stroke:#202020;stroke-linecap:round;stroke-linejoin:round;stroke-width:15.23px;}.cls-11{fill:#5c722b;}.cls-12{fill:#783e9e;}.cls-13{fill:#7a9079;}.cls-14{fill:#fcfbfe;}.cls-15{fill:#c9d6d4;}.cls-16{fill:#4c3c2e;}.cls-17{fill:#ba9570;mix-blend-mode:multiply;}.cls-18{fill:#152c2f;}.cls-19{fill:#f9b2b8;}.cls-20{fill:#366463;}.cls-21{fill:#635637;}.cls-22{fill:#fff;}</style><linearGradient id="linear-gradient" x1="624" y1="2210" x2="624" y2="293" gradientUnits="userSpaceOnUse"><stop offset="0.02" stop-color="#aed9b0"/><stop offset="0.09" stop-color="#b0dab2"/><stop offset="0.53" stop-color="#b2dbb4"/><stop offset="0.74" stop-color="#b7ddb9"/><stop offset="1" stop-color="#c6e4c8"/></linearGradient></defs><title>pFact_1</title><g class="cls-1"><g id="bg"><rect class="cls-2" x="3" y="293" width="1242" height="1917"/></g><g id="waterLayout"><path class="cls-3" d="M1243,1955H1V1278c788,200,876,153,1242,0Z" transform="translate(2 2)"/><path class="cls-4" d="M-2,2208H1240V1380c-604.3,246.9-908,458.9-1242,0Z" transform="translate(2 2)"/></g><g id="dyk"><text class="cls-5" transform="translate(293.8 525.8)">DID<tspan class="cls-6" x="128" y="0"> </tspan><tspan class="cls-7" x="155.2" y="0">Y</tspan><tspan x="212.9" y="0">OU KN</tspan><tspan class="cls-8" x="487.8" y="0">O</tspan><tspan x="566.2" y="0">W?</tspan></text></g><g id="headDiv"><path class="cls-9" d="M1243,291Q641.2,358.5,1,291V-2H1243Z" transform="translate(2 2)"/></g><g id="berry"><path class="cls-10" d="M623.3,694V592.4" transform="translate(2 2)"/><path class="cls-11" d="M735,592.5c0,60.9-38.1,71-91.4,71C643.6,611.2,675.1,592.5,735,592.5Z" transform="translate(2 2)"/><path class="cls-11" d="M603,663.5c-53.3,0-91.3-10.1-91.3-71C571.6,592.5,603,611.2,603,663.5Z" transform="translate(2 2)"/><circle class="cls-12" cx="544.1" cy="736.6" r="30.5"/><circle class="cls-12" cx="625.3" cy="726.4" r="30.5"/><circle class="cls-12" cx="706.5" cy="736.6" r="30.5"/><circle class="cls-12" cx="584.7" cy="797.5" r="30.5"/><circle class="cls-12" cx="665.9" cy="797.5" r="30.5"/><circle class="cls-12" cx="625.3" cy="868.5" r="30.5"/></g><g id="factLogo"><path class="cls-13" d="M581.5,221.3c-6,5-42.2-.9-31.4,24.2,8.6,20.1,56.3,20.8,73.6,22.3,21.7,2,84.6,6.2,98.8-15.5C744.6,218.3,575.6,223.4,581.5,221.3Z" transform="translate(2 2)"/><path class="cls-14" d="M831.1,47.8l-.7-.3c-38.4-27.7-80.8,14-119.6,31.1A228.8,228.8,0,0,1,689.5,87c-45.7,14.7-95.2,3.9-137.1-18.8-6.8,25-11,50.1-10.9,76.2a276.3,276.3,0,0,0,11.8,78.7c18,19.3,41.6,27.5,66.4,30s53.8,3.3,78.2-7.9c32.3-14.8,69.7-66.9,106.9-55.3a50.5,50.5,0,0,1,11.7,5.3c2.6-12,6.7-23.5,9.2-35.5a342.4,342.4,0,0,0,5.7-36.3A347.4,347.4,0,0,0,831.1,47.8Zm-266,165.7c-4.4,0-7.8-3.3-7.7-8.2s3.5-8.2,7.1-8.5,8.5,2.7,8.4,8.9S569.6,213.6,565.1,213.5Zm11.5-16.9c-2.6-.4-5.2-6.3-5.6-8.6-.7-4.3-.5-11.7,4.2-13.2s5.9,5.4,6.5,8.8S581.4,197.2,576.6,196.6Zm34.6,27c-5.2-.9-10.9-4.8-12.6-10.5-.4-1.2-2-9.9.2-9.4,4.2.8,8.5,1.7,12.8,2.2a107.9,107.9,0,0,0,12.7.5,1,1,0,0,1,1,.5,1,1,0,0,1,.4,1.1C624.7,217.2,621,225.5,611.2,223.6Zm41.7-28.2c-.7,9.4-10.7,9.6-11,.1-.2-5.1,0-12.2,6.6-10.9C652.9,185.4,653.1,191.7,652.9,195.4Zm10.2,23.8c-4.1,1.3-7.9-1-8.3-5.7-.7-9.1,12.8-15.4,14.6-4.6A9.4,9.4,0,0,1,663.1,219.2ZM723.7,113a.9.9,0,1,1-1.8,0,32.5,32.5,0,0,1,.1-5.4.8.8,0,1,1,1.6,0A32.5,32.5,0,0,1,723.7,113Zm0,12.4a.9.9,0,1,1-1.8,0,32.5,32.5,0,0,1,.1-5.4.8.8,0,1,1,1.6,0A32.5,32.5,0,0,1,723.7,125.4Zm0,13.7a.9.9,0,1,1-1.8-.1,32.5,32.5,0,0,1,.1-5.4.8.8,0,1,1,1.6,0A33.9,33.9,0,0,1,723.7,139.1Zm0,13.6a.9.9,0,1,1-1.8,0,32.5,32.5,0,0,1,.1-5.4c.1-1.2,1.6-1.2,1.6,0A32.5,32.5,0,0,1,723.7,152.7Zm-1.4-59.9c1.3,1.7,1.8,5.7.3,7.4a.8.8,0,0,1-1.4-.4,15.1,15.1,0,0,1-.1-3c0-1.1-.4-2.1-.4-3.2S721.8,92.1,722.3,92.8Zm-1.2-14.7c.4,2.2.5,4.5.7,6.7s-1.6,1.2-1.8.1a47.4,47.4,0,0,1-.5-6.5A.8.8,0,0,1,721.1,78.1Zm3.6,147.4c-.3,1.1-1.7.5-1.6-.5.3-3.1.7-6.1.9-9.2a.8.8,0,0,1,1.6,0A28.8,28.8,0,0,1,724.7,225.5Zm1-16.9a.9.9,0,0,1-1.8-.1,21,21,0,0,1-.2-5,33.3,33.3,0,0,1,.2-5.5c.2-1,1.5-1.3,1.8-.2a33.3,33.3,0,0,1,.2,5.5A23.3,23.3,0,0,1,725.7,208.6Zm-2.3-38c0,1.1-1.6,1.5-1.8.3a35.5,35.5,0,0,1-.3-4.6,17.7,17.7,0,0,1,0-4.6.8.8,0,0,1,1.6,0,21,21,0,0,1,.5,4.3A35.3,35.3,0,0,1,723.4,170.6Zm.5,11a.9.9,0,0,1,1.8.1,23.6,23.6,0,0,1,.1,4.6,30.9,30.9,0,0,1-.1,4.3.9.9,0,0,1-1.8,0,37.3,37.3,0,0,1-.1-4.7A20.6,20.6,0,0,1,723.9,181.6Z" transform="translate(2 2)"/><path class="cls-14" d="M705.5,77.5l2.7-1.2c-5.7-15.6-23.3-20.5-36.9-24.6a176.3,176.3,0,0,0-41.2-7.2,143.3,143.3,0,0,0-41.3,3.7C576.9,51,561,54.8,553,65.7h0C601.4,90.7,654.6,99.5,705.5,77.5Zm-105-13c16.7-12.8,42.5-8.1,58.6,3a1.2,1.2,0,0,1,.4,1.7,1.4,1.4,0,0,1-.6,1.3c-7.7,6-19.1,6-28.2,5.5s-21.3-3-30.3-9.1a1.1,1.1,0,0,1-.2-1.6A.8.8,0,0,1,600.5,64.5Z" transform="translate(2 2)"/><path class="cls-15" d="M552.4,68.2c-7.9,7.2-12.9,69.5-12.1,83.3s4.4,61.4,13,71.6,49.5,50.1,144.5,23.7c-39,.5-78.4-11.9-97.8-21.7C550.7,200.3,551.3,133,552.4,68.2Z" transform="translate(2 2)"/><path class="cls-16" d="M630,60.2c-9.9-.6-18.1,2.5-27.2,5.5,9,4.3,17.9,7,27.8,7.5,8.3.3,18.3.5,25.6-4.2A54.2,54.2,0,0,0,630,60.2Z" transform="translate(2 2)"/><path class="cls-17" d="M608,69.1c4.9,1,8.9,4.3,14.3,4.2s21.5-7.5,13-13.3c4.4-.1,21.9,1.9,22.1,8.6s-13,5.4-17.1,6c-6.5.8-13,.1-19.6-.3a27.3,27.3,0,0,1-8.5-2.2C610.7,71.5,608.4,69.9,608,69.1Z" transform="translate(2 2)"/><path class="cls-18" d="M650.3,190.4c-.5-3-3.8-4-5-1.1s-1.2,9.9,1.3,10.8h1c1.5-.5,2.8-5.1,2.8-6.6S650.4,191.4,650.3,190.4Z" transform="translate(2 2)"/><path class="cls-18" d="M600.3,206.5a11.7,11.7,0,0,0,3.3,9.8c4.2-3.7,12.8-3.7,16.9.4A21.8,21.8,0,0,0,623,209,69.8,69.8,0,0,1,600.3,206.5Z" transform="translate(2 2)"/><path class="cls-18" d="M577.9,178.9c-3.9-4.5-4.6,5.1-4.5,6.5s.3,7.3,3.1,8c2.4-1.9,3-4.7,2.7-8C579.1,183.7,578.9,180.1,577.9,178.9Z" transform="translate(2 2)"/><path class="cls-19" d="M669.4,208.9c-1.8-10.8-15.3-4.5-14.6,4.6.4,4.7,4.2,7,8.3,5.7A9.4,9.4,0,0,0,669.4,208.9Z" transform="translate(2 2)"/><path class="cls-19" d="M605.2,217.8a15.2,15.2,0,0,0,5.4,2.7c3.8,1,6.5.2,8.4-1.7a12,12,0,0,0-7-2.3C609.5,216.4,607.5,217.3,605.2,217.8Z" transform="translate(2 2)"/><path class="cls-19" d="M564.5,196.8c-3.6.3-7,3.1-7.1,8.5s3.3,8.2,7.7,8.2,7.7-2.8,7.8-7.8S568.6,196.5,564.5,196.8Z" transform="translate(2 2)"/><path class="cls-20" d="M834,45.8c-38.2-29.7-85.4,12.5-122.9,29.3-5.2-13.7-18.1-19.5-30.5-23.8a183.9,183.9,0,0,0-47.9-9.8,146,146,0,0,0-47,4.1c-11.5,3-30,7.3-35.8,20a2.1,2.1,0,0,0-.1,1.1c-8,25.1-11.5,52.5-11.2,79.1.1,14.6.7,29.3,3.5,43.6,5.7,29.5,7,34.7,15.7,42a106.5,106.5,0,0,0,50.9,23.4c11.5,1.9,23.2,2.4,34.8,2.6s25.7.1,38.2-3.1c39.8-9.9,79.3-73.4,121.8-61a56.3,56.3,0,0,1,12.5,5.4c1,.6,1.9-.2,2-1.2l.3-.4c4.9-10.9,7.5-23.8,10.1-35.5a365.4,365.4,0,0,0,6.1-39.1C837.1,97,837.3,47.8,834,45.8ZM588.8,48.2a143.3,143.3,0,0,1,41.3-3.7,176.3,176.3,0,0,1,41.2,7.2c13.6,4.1,31.2,9,36.9,24.6l-2.7,1.2C654.6,99.5,601.4,90.7,553,65.7h0C561,54.8,576.9,51,588.8,48.2Zm242.6,75.2a342.4,342.4,0,0,1-5.7,36.3c-2.5,12-6.6,23.5-9.2,35.5a50.5,50.5,0,0,0-11.7-5.3c-37.2-11.6-74.6,40.5-106.9,55.3-24.4,11.2-52.3,10.5-78.2,7.9s-48.4-10.7-66.4-30a276.3,276.3,0,0,1-11.8-78.7c-.1-26.1,4.1-51.2,10.9-76.2,41.9,22.7,91.4,33.5,137.1,18.8a228.8,228.8,0,0,0,21.3-8.4C749.6,61.5,792,19.8,830.4,47.5l.7.3A347.4,347.4,0,0,1,831.4,123.4Z" transform="translate(2 2)"/><path class="cls-20" d="M725.7,197.8c-.3-1.1-1.6-.8-1.8.2a33.3,33.3,0,0,0-.2,5.5,21,21,0,0,0,.2,5,.9.9,0,0,0,1.8.1,23.3,23.3,0,0,0,.2-5.3A33.3,33.3,0,0,0,725.7,197.8Z" transform="translate(2 2)"/><path class="cls-20" d="M725.6,164.3c-.2-.9-1.4-1.1-1.6-.1a17.1,17.1,0,0,0-.3,4.5,34.6,34.6,0,0,0,.2,4.6c.1,1.2,1.7.9,1.8-.1a37,37,0,0,0,.2-4.7A14.6,14.6,0,0,0,725.6,164.3Z" transform="translate(2 2)"/><path class="cls-20" d="M723.8,185.9a37.3,37.3,0,0,0,.1,4.7.9.9,0,0,0,1.8,0,30.9,30.9,0,0,0,.1-4.3,23.6,23.6,0,0,0-.1-4.6.9.9,0,0,0-1.8-.1A20.6,20.6,0,0,0,723.8,185.9Z" transform="translate(2 2)"/><path class="cls-20" d="M724,215.8c-.2,3.1-.6,6.1-.9,9.2-.1,1,1.3,1.6,1.6.5a28.8,28.8,0,0,0,.9-9.7A.8.8,0,0,0,724,215.8Z" transform="translate(2 2)"/><path class="cls-20" d="M722,107.6a32.5,32.5,0,0,0-.1,5.4.9.9,0,1,0,1.8,0,32.5,32.5,0,0,0-.1-5.4A.8.8,0,1,0,722,107.6Z" transform="translate(2 2)"/><path class="cls-20" d="M720.7,93.6c0,1.1.4,2.1.4,3.2a15.1,15.1,0,0,0,.1,3,.8.8,0,0,0,1.4.4c1.5-1.7,1-5.7-.3-7.4S720.7,92.8,720.7,93.6Z" transform="translate(2 2)"/><path class="cls-20" d="M721.8,84.8c-.2-2.2-.3-4.5-.7-6.7a.8.8,0,0,0-1.6.3,47.4,47.4,0,0,0,.5,6.5C720.2,86,721.8,86.1,721.8,84.8Z" transform="translate(2 2)"/><path class="cls-21" d="M600.4,66.9c9,6.1,19.8,8.6,30.3,9.1s20.5.5,28.2-5.5a1.4,1.4,0,0,0,.6-1.3,1.2,1.2,0,0,0-.4-1.7c-16.1-11.1-41.9-15.8-58.6-3a.8.8,0,0,0-.3.8A1.1,1.1,0,0,0,600.4,66.9ZM630,60.2A54.2,54.2,0,0,1,656.2,69c-7.3,4.7-17.3,4.5-25.6,4.2-9.9-.5-18.8-3.2-27.8-7.5C611.9,62.7,620.1,59.6,630,60.2Z" transform="translate(2 2)"/><path class="cls-20" d="M648.5,184.6c-6.6-1.3-6.8,5.8-6.6,10.9.3,9.5,10.3,9.3,11-.1C653.1,191.7,652.9,185.4,648.5,184.6Zm-.9,15.5h-1c-2.5-.9-2.1-8.9-1.3-10.8s4.5-1.9,5,1.1c.1,1,.1,2.1.1,3.1S649.1,199.6,647.6,200.1Z" transform="translate(2 2)"/><path class="cls-20" d="M625.3,206.9a1,1,0,0,0-1-.5,107.9,107.9,0,0,1-12.7-.5c-4.3-.5-8.6-1.4-12.8-2.2-2.2-.5-.6,8.2-.2,9.4,1.7,5.7,7.4,9.6,12.6,10.5,9.8,1.9,13.5-6.4,14.5-15.6A1,1,0,0,0,625.3,206.9Zm-14.7,13.6a15.2,15.2,0,0,1-5.4-2.7c2.3-.5,4.3-1.4,6.8-1.3a12,12,0,0,1,7,2.3C617.1,220.7,614.4,221.5,610.6,220.5Zm9.9-3.8c-4.1-4.1-12.7-4.1-16.9-.4a11.7,11.7,0,0,1-3.3-9.8A69.8,69.8,0,0,0,623,209,21.8,21.8,0,0,1,620.5,216.7Z" transform="translate(2 2)"/><path class="cls-20" d="M575.2,174.8c-4.7,1.5-4.9,8.9-4.2,13.2.4,2.3,3,8.2,5.6,8.6,4.8.6,5.6-9.5,5.1-13S579.9,173.2,575.2,174.8Zm1.3,18.6c-2.8-.7-3-5.6-3.1-8s.6-11,4.5-6.5c1,1.2,1.2,4.8,1.3,6.5C579.5,188.7,578.9,191.5,576.5,193.4Z" transform="translate(2 2)"/></g><g id="backButton"><circle class="cls-13" cx="93" cy="88" r="54"/><path class="cls-22" d="M112.8,75.9h-21V66.8a6,6,0,0,0-10.1-4.4L74,69.5l-10.7,10a8.8,8.8,0,0,0,0,13l10.7,10,7.7,7.1a6,6,0,0,0,10.1-4.4V95.7h21a8.7,8.7,0,0,0,8.8-8.8V84.7A8.7,8.7,0,0,0,112.8,75.9Z" transform="translate(2 2)"/></g><g id="nextButton"><circle class="cls-13" cx="1155" cy="2118" r="54"/><path class="cls-22" d="M1131.2,2126.1h21v9.1a6,6,0,0,0,10.1,4.4l7.7-7.1,10.7-10a8.8,8.8,0,0,0,0-13l-10.7-10-7.7-7.1a6,6,0,0,0-10.1,4.4v9.5h-21a8.7,8.7,0,0,0-8.8,8.8v2.2A8.7,8.7,0,0,0,1131.2,2126.1Z" transform="translate(2 2)"/></g></g></svg>