<svg id="cityLights" xmlns="http://www.w3.org/2000/svg" xmlns:xlink="http://www.w3.org/1999/xlink" viewBox="0 0 305.89 109.16"><defs><style>.cls-1{fill:url(#linear-gradient);}</style><linearGradient id="linear-gradient" x1="783.91" y1="187.77" x2="788" y2="265.38" gradientTransform="matrix(1.14, 0, 0, -1.14, -104.2, 862.91)" gradientUnits="userSpaceOnUse"><stop offset="0" stop-color="#fcf9ed"/><stop offset="1" stop-color="#ffd389"/></linearGradient></defs><title>cityLights</title><path id="path5625" class="cls-1" d="M773.12,556.08c-4,0-8.13.28-12,.28a41.81,41.81,0,0,1-7.75.45h-3.5c-5.22-.49-10.52,0-15.65,0,1.55,1.82,4.75,1.2,7.45,1.2a63.2,63.2,0,0,1,6.83-.3h0c2.57.83,5.61.45,8.36.45,8.06,1,16.18.15,24.31.15-1,1.08-2.62.87-3.94,1.2-2.7.49-3.26,2.12-2.13,3.61-1.1.11-.41.92-.61,1.36-2.35.25-5.56,3-1.06,3,5.69-.26.87-.69,2.27-1.8a7.09,7.09,0,0,0,2-1.36c.8-.87.83.09,1.36.15a10.43,10.43,0,0,0-.76,3.31c1.13.8,2.42.6,3.8.6-.73-.32-.86-.85-1.21-1.2,3.17-2.53-.28-3-2.74-3.61-.23-1.25-.86-.67-1.37-1.06-.16-.66.51-.92.76-1.35,2.52.17,4.7-.8,7-1.5.43-.69.12-1.41.15-1.81a33,33,0,0,0-11.56-1.78Zm16.14,4.78a15.67,15.67,0,0,0-2,.76c1,2.46,2.37,2.12,4.4,1.66.75-1.52.92-.62-.45-1.81A2,2,0,0,0,789.26,560.86Zm20.2,6c-1.36.11-2.51-.18-2.44,1.5a6,6,0,0,0,3.81-.15c-.43-.42-.22-1.44-1.37-1.35Zm-11.28,1.17c-.56.12-.86.58-.73,1.83.11.57.17,1.1.3,1.66-4.06.8-6.12,4.4-.45,4.36.5-.81,1.22-.47,1.22-2,.82-.12.9.33,2-.3-.53-1-.2-1.69-1.37-2.55,1,.52,1.89,1.35,3.19,1.35a5,5,0,0,0,3.2.3c.31-1.85-.16-3-3.65-1.8-.68-.3,0,.24-1.37-.61l.31-.15c-.11-.65-.21-1.29-.31-2a9.75,9.75,0,0,0-2.31-.18Zm-2.86,0c-2.09,0-3.44-.08-3.19,1.8,1.32,1,2.39,1.54,4.25.45C796.2,570,796.5,568.24,795.32,568.09Zm13.16,1.58c-.41.16-.16.9-.54,1.28,1.21,1.16,1.08.31,2.12.6,2.53-1.12,1.05-1.61-.9-1.8a1,1,0,0,0-.68-.08Zm10.23.06c-.57.16-.28.78-.74,1.07-1,.85.47.82.61,1.05.83.25,1.51-.3,2.28-.46.09-1.1-.44-1.06-1.22-1.64a2.08,2.08,0,0,0-.93,0Zm6.92,1c-.33.05-.57.24-.82.78.16.12.14,1.67,1.22.9a4.45,4.45,0,0,0,1.66-.15,4.83,4.83,0,0,0-.76-1.5,12.4,12.4,0,0,0-1.3,0Zm-11.92,0a3.83,3.83,0,0,0-2.13,1.5c.17,1.41.92,1,2.13,1.21a6.53,6.53,0,0,0,1.68-1.06C815,571.55,814.57,571.31,813.71,570.8Zm8.06,1.81c-.45,0-.89.11-1.37.15a4.38,4.38,0,0,0-.15,1.65c-2,0-2,.32-2.89,1.5.4,2.16,2.21,1.37,4.11,1.06,1.56-.08,1.21-1.5,1.36-1.81,1.91-1.62.16-1.13.31-2.26h0a2.52,2.52,0,0,0-1.36-.29Zm-5,.76c-.41-.12-1.06.31-1.55,1.34-.35-.05-.76.61-1.06-.15-1.27-.84-2.19-1.54-3.8-.3,0,.08-.9.58.15,1.2a4.83,4.83,0,0,0,2.59-.3c0,.2,1.36-.85.15.6-2,2-.54,2.45,2.28,2.41,1-1,1.47-1,1.36-2.86.47-1.16.29-1.82-.12-1.94Zm10.07,2.28c-.58.06-.72.42.39,1.32,1.57.31,1.76.65,1.37-1.06a7.84,7.84,0,0,0-1.07-.23,3.38,3.38,0,0,0-.69,0Zm-35.91,1.52c-.21-.11-.48,0-1.24,1.15,1.35,1.34,2,2.17,3.95,1.06,1.6.1,3.12.37,4.65-.29-.07.18-.08.23-.24.59,1.4,1.15,2.56.69,4.25.59,2.66-.12,2.62-1.23.77-2.25a8.93,8.93,0,0,0-3.5-.3c-1,.65-1.09.82-1.27,1.31-.84-.49-1.17-1.53-2.84-1-5-.75-1.17-1.09-3.65-.6-.52.22-.66-.13-.88-.24Zm-4.59,1c-.19-.16-.81,0-1.51.72-1.85-.47-.72,1.14-.76,1.21-1.18,0-1,.47-1.52,1.19-1.74.06-1,.48-1.67,1.52-.59-.05-1,.44-1.37.6-.54-.33-1.21.3-1.82.45-2.1-.51-2.14.56-2.9,1.5-2.36.32-1.28,1-1.36,2-1.29,2.1-1,2.68,1.06,2.87-.53.89.57.48,1.07.9a11.76,11.76,0,0,1,3.11,2.12,1.28,1.28,0,0,0,0,.86,6.77,6.77,0,0,0,.78,0,15.07,15.07,0,0,1,1.85,2.87c-.22,1.47.85.53,1.22.75,1.05.11.81-1.13,1.07-1.5-.59-1-1.75-1.31-2.74-1.81a4.07,4.07,0,0,0-.13-.45,3.24,3.24,0,0,0,2.43-1.72,3,3,0,0,0-2.8-.36c-.27.17-.52.33-.79.48-.35-.24-.7-.46-1.15-.8-.7-1.87-.89-2.41-2.88-2.41,1.53-.92.1-1,.14-1.35.5-.33.42-.92.61-1.35a7,7,0,0,1,1.83-1.66c1.94.76,1.34-.48,2.13-.75,2,.24,3.38-.56,5-1.36,1.81-2.37-.12-.85-.3-2.1.53-.25.2-.71.3-1.06,1-.66,1.24-1.16,1.06-1.32Zm40.43.12c-.83.08-1.71-.05-2.35.68-2.51,2.14.22,1.54,2.35,1.43C828.63,579.77,830.12,578.78,826.78,578.32Zm-11.09,4.21a11.5,11.5,0,0,0-2.28.15c-2-.32-1.88.07-2.89,1.2.84.88,1.49.32,2.43.16,4.14.1,3-.38,2.74-1.51Zm-46.37,8.26c-.68.15-.7.75-1.05,1.37.69.92,2,1.07,2.89,1.36a8.09,8.09,0,0,0,1.67-1.36c-.75-1.3-1.46-1.15-2.58-1.36a2.63,2.63,0,0,0-.93,0Zm178,1.26c-16.66,0-33.62,6-49.8,6.69-1.74,0-2.54-.23-3.21,1.43-4,1.3-7.49,2.81-10.44,5.72-.66.55-1,1.27-1.92,1.59-1.29.75-3.06,1.91-.49,2.23.52,1.88,1.35,3.73,1.45,5.72-.67-1.57-.76-3.41-2.89-3.34.23,3,2.26,4.08,4.18,6.36.47.95.63,2.24,2.08,2.54.79-.2,1.52-.54,2.25-.79,2.51,1.24,1.32.76,2.73-.48-.42-1.54-.66-1.48-2.25-1.91,0-1.12-1.17-.92-1.61-1.27-7.27-14.45,17.26-15.91,26.67-18.12l33.25-6.37Zm-172,1.4c-.41,0-.72.21-.9,1,.3.16.6.59.91.46,1.12-.89.38,2,1.52-1.21C776.18,593.62,775.66,593.43,775.25,593.45Zm-5.34.11a7.54,7.54,0,0,0-1.83.07c-1,.57-2.7,1.06-1.77,2.4.14,0,.27,0,.41,0-.15.23-.3.51-.58.93.87,1.94.33,1.35,2.74,1.35,1.9-.6,1.82-1.69.43-2.45a3.83,3.83,0,0,0,.61-.3c.41,0,.82,0,1.24,0,.87,1,1.92.54,3,.46-.05-1.37,1-1.26-1.21-1.06a2.22,2.22,0,0,0-1.75-.53,4.65,4.65,0,0,0,.3-.59,5.62,5.62,0,0,0-1.63-.34Zm79.09.59c-.27-.07-.54.12-.71.73.63.62.83.84,1.49.17a1.56,1.56,0,0,0-.78-.9Zm-4.6.1c-.25,0-.46.3-.75,1,.61.4,1.23,1,1.74-.24C844.94,594.52,844.65,594.25,844.4,594.25Zm2.27.08c-.2,0-.38.1-.62.55.54.67,1.27,1.46,1.41-.08a2.76,2.76,0,0,0-.79-.47Zm-16.18.14a1,1,0,0,0-.54.66s.31,1.46.92.66c1-.72.24-1.57-.38-1.32Zm-74.16.13c-.25-.06-.52,0-.92.51,0,0,.68,1.51,1.68-.19-.29-.09-.51-.27-.76-.32Zm70.9.82a.45.45,0,0,0-.34,0,1.24,1.24,0,0,0-.5.52c-.09,1,.22,1.52,1.82.49-.34-.44-.65-.9-1-1Zm-3.63.36c-.66.13-1.14.78-.86,2.14,1.57.28,2.65.75,2.82-1.15a2,2,0,0,0-2-1Zm-73.75.33a3.43,3.43,0,0,0-2.09.84c-.61.48-2.24,1.35-1.31,2.12a7.57,7.57,0,0,0,4.11-.27c1-.82,2.11-1.12,1.58-2.58a15,15,0,0,0-2.29-.11Zm22.68,1c-1.48.24-.86,1.13-1.37,1.8C775.08,599.26,773.49,598.35,772.53,597.13Zm48.54.69c-.27,0-.56.18-.82.6-.24-.09-.59-.71-1.33-.34-.91.08-1.37.13-1.9.91-1.12.47-1.57.88-.59,2.13a8.61,8.61,0,0,0,1.91-.24c.3.22.57.61,1.08.57h2c.31.34.57.85,1.08,1,1-.22,1.4-.2.66-1.23-.39-.77-.69-1.13-2.07-.74a3.34,3.34,0,0,1-1.91-.25c.3-.26.78,0,.75-.65.56-.17.83.23.83-.58.45-.15.42.41,1-.33-.17-.54-.41-.81-.68-.84Zm-79.85.3a4.31,4.31,0,0,0-.92,0c-1.88,0-3.64.81-4,2.59a4.26,4.26,0,0,0,3.73-.19h0c.77-.59,2.8-2.27,1.21-2.43Zm62.52.59a14.28,14.28,0,0,0-2.12,0c-.27,3.64-1.94-2-.15,2.86,1.53.66,3.07.41,4.72.31a2.44,2.44,0,0,1,1.31.23c-.67.17-1.14.38,0,.53.76.21,2,.71,1.67.07.8,0,.48-1,.85-1.29-.52-.65-1.35-.41-2-.6a9.16,9.16,0,0,0-2.29-1.66,6.23,6.23,0,0,0-2-.5Zm-19,.48c-.28,0,.08.53-.07.65a4.68,4.68,0,0,1,2.59,1.65c1.67,1,4,.74,5.62.9a6.08,6.08,0,0,1,2.43,1.8c-3.16.4-2,1.81.61,1.81,3.77.25-4.43.15,2.28.15,1.19,1,2.78.61,4.26.61a11.17,11.17,0,0,1,2.58-.31,3.54,3.54,0,0,0,.22.44c-.07.38.09.81,0,1.19l-.06,0c-.89-.25-1.52.26-2.23.46-1.21-.09-2.43-.08-3.65-.15-2.92-1-3.81-.08-3.81,2.86,1.88,1,3.63-.08,5.48-.75a13.42,13.42,0,0,1,1.68-.3c.91,1.22,2.07.72,3.5.6l2.14-.15.3-.15A4.78,4.78,0,0,0,810.7,609l.18-.09,4.3-.44.16-1.21a3,3,0,0,0,2.54-.14c.13.38.41.69.54,1,1,.33,2.06-.18,2.9-.29.12-.81.24-1.05.09-1.21h0c-.58-1.74.42-.84-1.83-1.36h-.11a2.81,2.81,0,0,1-.31-.29,2.09,2.09,0,0,0-1-.47c-.58-.07-1,.35-1.39.76a14.08,14.08,0,0,0-4.07.31,3.85,3.85,0,0,1-.66.25c-.05,0-.19-.06-.19-.09-.38-1.23-1.06-.52-1.83-.91a31.1,31.1,0,0,1-4.1-.14c-1.7-1.21-3.77-.91-5.77-.91a11.59,11.59,0,0,1-2.74-.9c-4-1.37-8.1-2.21-12.16-3.46a1.24,1.24,0,0,0-.54-.19Zm-23.67.06a2.41,2.41,0,0,0-.72.19c-.81.54-1.86.76-1.46,1.93a5.39,5.39,0,0,0,2.42-.28c1.33,1.43,1.94.8,2.84-.58-1-1.16-1.65-1.33-2.29-1.14a2,2,0,0,0-.79-.11Zm-31.51.37c-2,0-4.26.66-4.29,3a6.94,6.94,0,0,0,3.18-.36C729.64,601.63,732.9,600.06,729.57,599.62Zm84.64.29a2.82,2.82,0,0,0-1.18.39,10.23,10.23,0,0,1-1.66.82,4,4,0,0,0-.21.52.75.75,0,0,0-.26,0,.93.93,0,0,0-.53.35c.26.25.49.78.81.94.4.53,1.46.54,2.52.54a4.52,4.52,0,0,0,2.57-.09,2.45,2.45,0,0,0,2,.57l.66-.65V603c-.95-.81-1.2-.58-2.57-.58a5,5,0,0,0-1.58-.41c.78-.62.83-.91.59-1.73a2.29,2.29,0,0,0-1.15-.39Zm35.39,0c-.37-.17-.8,0-1.48.77s-1.33,2.34.67,1.49c.08-.14.16-.28.25-.41.94.59,2.3.84,1.66-.75C850.27,600.59,850,600.11,849.6,599.94Zm60.58.7c-2.19.34-2-.16-1.77,1.59C909.77,602,910.07,602.66,910.18,600.64Zm-86.72.06c-.21,0-.16.28.44,1.09a2.51,2.51,0,0,0-.75,1.14h-1.66a5.1,5.1,0,0,0-1-.18c-.25,0-.43.18-.52.68-.69.79-.69,1.18.92,1.15.36-.15.73,0,1-.41.14.31.66.44.41.9.41.46.64,1.12,1.23,1.3.88.56,1.38,1,2.56.49a2.66,2.66,0,0,0-.39.83,3.51,3.51,0,0,1,.5,1.73c.07.21,0,1.88,1.08,1.64a2.69,2.69,0,0,0,1.91-.41c1.25,0,2.68.07,3.57-1,0-.95,0-1.4-.75-2-.1-.5-.1-.79-.49-1.14a24.18,24.18,0,0,0-4.24-.25l-.65.25c0-.15.52-.71-.32-1.15-.5.1-1,.13-1.42.23a2,2,0,0,0-.09-.89c-.3-.33-.44-.53-.64-.71a3.25,3.25,0,0,0,1.36-.36.47.47,0,0,0,0,.33c.2.77-.11,1.15,1.08,1,.69-.16,1.54-.11,2.07-.66.43.22.8,0,1.08.58,1.11.27,2,.58,2.82-.5-1.06-1.45-1.25-1.38-3-.9-.7-.17-.49-.33-1.33-.33a13.36,13.36,0,0,0-1.38-.31c-.08,0-.23.07-.31.08-.36-.37,0-1.55-1.34-1a4.7,4.7,0,0,0-1.81-1.25Zm-72.23.21a7,7,0,0,0-1.58.06c-.91.5-2.36.93-1.55,2.09,1.92.35,3.9-.15,4.55-1.84a4.91,4.91,0,0,0-1.42-.31Zm-30.6.47c-1.26.11-2.37,0-3.54.74-.68.67-1.72,1.24-.94,2.12a7,7,0,0,0,4.48-.65C721.8,603,722.44,602,720.63,601.38Zm195.12.21c-.55,0-1,.23-1.08.81,1.26.56,2.63,1.78,2.89-.8-.59,0-1.26-.05-1.81,0Zm-129.29,0c-1.12,0-2.15.12-2.06,1.51a3.39,3.39,0,0,0,.39.08c-.14.07-.35.1-.87-.08-.53,1-.22.88-.46,1.81a6.52,6.52,0,0,0,3.35.6c.93.6,1.69.39,2.74.3.17-2.28-1.35-1.8-3-1.8a9.22,9.22,0,0,0-.88-.71,4,4,0,0,0,1-.12c1-.39,2.07-.84,1-1.56-.36,0-.74,0-1.12,0Zm-26.7.16c-2.4.15-4,.48-1.53,2C762.1,603.45,760.06,602.78,759.76,601.79Zm-20.36,0c-.21,0-.46,0-.81.45,0,0,.6,1.33,1.47-.16-.25-.07-.44-.24-.66-.29Zm182.52.68c-.4-.12-.91.1-1.78.7.91.41,1.48,1,2.89.64C922.6,603.07,922.32,602.61,921.92,602.49Zm-216.5.31a7.69,7.69,0,0,0-1.41.27c-1.31.13-3.64,1-2.1,2.37a2.64,2.64,0,0,0,1.74.35c-.71.39-1.12.74-.65,1.72,1.28.11,2.51.19,3.4-.71.78-.34,1.44-.53.94-1.52a3.2,3.2,0,0,0-1.44-.71C706.65,603.23,706.51,602.71,705.42,602.8Zm28.33.34a3,3,0,0,0-1.82.73c-.53.42-1.95,1.18-1.14,1.85a6.62,6.62,0,0,0,3.58-.24c.82-.71,1.84-1,1.38-2.26a13.6,13.6,0,0,0-2-.08Zm22.29.08c-3.5,0-1.76,1.35-1,2.33C759.26,606,758,604.1,756,603.22Zm25.2,0c-1.13,0-2.76.34-3.36,1.1a8.8,8.8,0,0,1-1,.17c-1.14,1.11.49,1.47.61,1.8.93.44,1.52,0,2.28-.14,0,0,0,0,0-.07a3.25,3.25,0,0,0,1.95-.64c1.17-1,1.85-2.38-.55-2.22Zm67.71.53c-1.06.2-.81.26-.49,1a6.35,6.35,0,0,0-.34,1.15,13.72,13.72,0,0,0,1.17,2.22c.5,1.08,1.07.86,1.9.49.61-.83.17-1-.58-1.56.32-.8-.29-.93-.41-1.31C849.65,604.94,849.35,604.32,849,603.76Zm-157.05.06a8.8,8.8,0,0,0-1,0c-1.31.72-2.61,1-2.54,2.94a4.16,4.16,0,0,0,3-.37,2.62,2.62,0,0,0,2.17-1.29,1.48,1.48,0,0,0-1.62-1.31Zm210.28.13a1.36,1.36,0,0,0-.84,0,14.41,14.41,0,0,0-3.37,1.43c-.86-1.75-1.15-1.19-2.41,1-5.41,6.08-.13.58-.64,2.86a10,10,0,0,0,2.56.16c.51.3,1.08.1,1.61.15,1.2,1.43,1.23-.67,1.45-.79.67.89,1.65.87,2.57,1.12a6.53,6.53,0,0,0,3.69,3.18c-.8-.55-1,.42-1.44.63a16.54,16.54,0,0,1-1.77,1.43c1.14,1.23.72.71,2.41.32l2.09-.79.64-.16a11.63,11.63,0,0,0,3.21-.8c.84.32,1.72.53,2.57.8-.64,1.76.89,1.1,1.29,1.59h1.29c.75.59,1.68.32,2.81.4.66-.13,1.61,1.71,1.84-.72a5.46,5.46,0,0,0,1.93-.16c-1.62-1-2.49-1.91-4.66-1.75l-.64-.16-2.25.32c-.72-.46-.77-1.08-1.77-1.11-.53-.11-1.15.23-1.61-.32-.19-.05-.77-1-1.28-.32-.68-.37-1.06-1.08-2.09-1.12l-.32-.47-1.76-.8v-2.7c-.2-.12-.8-1.1-1.29-.8l-1.28-1.11h-2.41c-.23-.29.32-1.1-.13-1.31Zm-132.58.24c-.58.16-1,.69-1.48.91-.71.33,0,1.17,0,1.5a9.49,9.49,0,0,0,3.19,0c2.79-1.12.53-2.12-1.06-2.41A1.42,1.42,0,0,0,769.6,604.19Zm145.52.46c-.52.1-1,.48-1.14.47-.89,1.73.49.88.93,1.66.14.45,2.21-.37,2.23-.37a7.87,7.87,0,0,0,2.42.18c1.89-1.35-.68-1.17-.74-1.29-.78-.5-1.65,0-2.42,0a1.5,1.5,0,0,0-.74-.61,1.11,1.11,0,0,0-.54,0Zm-195,.15a4.79,4.79,0,0,0-2.14.65C718.24,605.84,720.3,607.16,720.16,604.8Zm32,.05a9,9,0,0,0-1.33.25,6.09,6.09,0,0,0,.16,1.65c2.1.31,4.28.75,2.58-1.5a2.62,2.62,0,0,0-1.41-.4Zm-25.88,0a3.45,3.45,0,0,0-.81,0c-1.64,0-3.17.7-3.49,2.25a3.69,3.69,0,0,0,3.25-.17c.66-.51,2.46-2,1-2.12Zm34.89.07c-1.68-.22-1.06.86-1.67,1.35,1.71.77,2.39-.16,3.19-.44a5.74,5.74,0,0,0-1.52-.91Zm-14.64.82c-.77.12-1.15.77-1,2.19a2.61,2.61,0,0,0,0,.64,1.61,1.61,0,0,0-.35-.1c-.93-.17-2.36,0-2.88.82.57.57,1.2.95,2.7.27a3,3,0,0,0,.64-.26c.35.58,1.2.39,2.15.14,1.49-1.46,1.71-1.36,1.22-3.17a8.79,8.79,0,0,0-1.58-.5,2.81,2.81,0,0,0-.9,0Zm-67,.38a2.2,2.2,0,0,0-1.47,1.36,2.41,2.41,0,0,0,3.11-.65A1.41,1.41,0,0,0,679.51,606.15Zm36.58.05c-1.74,0-3.72.57-3.74,2.58a9.4,9.4,0,0,0,1.95-.13.9.9,0,0,0-.09.5c1.16.57,3,.19,3.19-1.36a4.6,4.6,0,0,0-1,0c1-.59,1.66-1.29-.3-1.55Zm51.08.09a4.14,4.14,0,0,0-.77.09c-1.94,0-3.51.43-3.44,2.48a5,5,0,0,0,.92.21,1.23,1.23,0,0,0,0,.2,3.33,3.33,0,0,0,1.66.11c-.82.18-.9.46-.29,1.9,1-.11,2,0,2.74-.76-.6-.68,0-1.25-1.22-1.35l-.86.13c.51-.2,1-.43,1.08-.72a3.08,3.08,0,0,0,1.11-1.1c-.08-.88-.3-1.17-.91-1.18Zm92.13.35a5,5,0,0,0-1.72.4,13.14,13.14,0,0,1-2.07-.17c-.6.18-.61.59-.83,1.08.05.61.63.95,1,1.39a6.26,6.26,0,0,0,1.82-.24,2.3,2.3,0,0,1,1.5-.33c1.47.38,1.29-.84,1.74-1.32a1.39,1.39,0,0,0-1.44-.8Zm-151,1.1a5.83,5.83,0,0,0-3.09.64c-.59.58-1.49,1.07-.81,1.84a6.15,6.15,0,0,0,3.9-.56C709.32,609.11,709.88,608.23,708.29,607.74Zm50.94.19c-1.83,0-4.85.2-4.2,2.6a4.18,4.18,0,0,0,3,.14,1.31,1.31,0,0,0,.41,1.16c1.14,0,2.22.18,3.16-.56s1.61-2.07-.48-1.93a5.68,5.68,0,0,0-2,.4c.38-.57.82-.94.11-1.81Zm155.5.7c-.3,0-.55.24-.75.91.3.34,0,2,1.3,1.48,1-1.3,1.65,0,1.31-1.66-.72-.15-1.36-.75-1.86-.73Zm-67.6.14c-.83.48-.61.85-.67,1.72-.16,1.58,1.45,1,2.33.66.29-.74-.06-1-.33-1.56,0-1,.15-.71-1.33-.82Zm13.68.13c-.31-.06-.33.19-.74.43-.29.72.48.76,1,1,1.49.09.86-.62.16-1.23a1.53,1.53,0,0,0-.42-.19ZM857,610.27a6.49,6.49,0,0,0-.61.3c-.14.46-.09.67,0,.82l-2.14.1s-.06,0-.09-.06a.57.57,0,0,0-.52.09c-2.87.14-5.75.24-8.63.23a17.34,17.34,0,0,0,6.45,1.22c-.17.36.07.7,1.25.8a2.6,2.6,0,0,1,1.66,1c1.05-.08,1.63-.1,1.91-1.39l-.17-.25-.23-.18a45.08,45.08,0,0,1,9.61.11c3.23,0,6.5.24,9.5-1.11a22.3,22.3,0,0,0-4.28-1.11c-4.1,0-8.22.24-12.36.46,0-.18-.22-.39-.66-.71s-.54-.34-.72-.31Zm-113.93.14a2.07,2.07,0,0,0-1.58.56c-1.09.72-2.76,1.54-1,2.5,2-.18,3.73-.25,4-2.31a2.84,2.84,0,0,0-1.4-.75Zm-33.06.22a2.06,2.06,0,0,0-.43,0,3.75,3.75,0,0,0-1.76,1c-.85,2,2.24.85,3,0-.07-.63-.37-.9-.78-1Zm-2.15.07a4.11,4.11,0,0,0-1.88.57C706.2,611.61,708,612.75,707.89,610.7Zm72.5.83c-1.37.12-2.86.49-3,1.94a4.52,4.52,0,0,0,2.89-.28c1.64-.16,2.46-1.6.09-1.66Zm19.47.34a4.66,4.66,0,0,0-1.59.46l.15,2a6,6,0,0,0,3.2-.45c.07-1.47-.24-1-1.06-1.82a2.26,2.26,0,0,0-.7-.15Zm-51,.13a5,5,0,0,0-.66.07c-1.69,0-3.06.38-3,2.17,1.32.53,3.56.37,4.47-1.2-.08-.77-.27-1-.81-1Zm59.17.17c-1-.06-1.53.27-.9,1.67.5,1.57,1.55,1.25,2.89,1.35h1.83l.61-.3c.63-.17,1.08-.95,1.37-1.21l1.07-.14c.71,2.1.77.77,1.68.6h1.06c1.33,1.73,1.11,1.31,2.29.15l.91.15c1.06,1.62.92.81,2.14.14-.52-1.17-.59-.79-1.84-.9h-2.28a15.5,15.5,0,0,0-3.81-.75,19.06,19.06,0,0,0-3.2-.15c-1.3-.12-2.8-.56-3.81-.61Zm23.07.23c-.69,0-1,.37-.37,1.45-.31.34-.74.16-.76.82.47.69.73,1.32,1.66,1.32,1.73.17,3.91.71,5.4-.41,0-.39.11-.89.16-1.32-.13-.48-.08-1-.91-1.31-1.45-.22-3-.07-4.39-.41a3.16,3.16,0,0,0-.79-.13Zm-115.21.7c-1.91,0-4.63.31-4,2.49C713.32,615.3,717.77,614.52,715.87,613.1Zm-39.09.1a2.81,2.81,0,0,0-2.72,1.47c-.86,2.11,3.9.77,3.83-1.14a3.07,3.07,0,0,0-1.11-.33Zm150.38.09a1.27,1.27,0,0,0-.77.31c-1,.07-2-.06-1.66,1.23-.62,0-.18.32.58,1.32a4.5,4.5,0,0,0,2.57-.41c.9-.18,1.52-.34,1.33-1.48-.69-.34-1.32-1-2.05-1Zm-85.23.14c-1.6,0-4.23.17-3.66,2.26,1.06.47,2.79.57,3.5-.56.35-.58.83-.87.16-1.7Zm-11.44.05a2.1,2.1,0,0,0-1.38.36l-.26.1a2.06,2.06,0,0,0-1.71.7,1.49,1.49,0,0,0,.28.23,1.08,1.08,0,0,0-.11.79,2.13,2.13,0,0,0-.83.43c-.94.62-2.39,1.34-.88,2.17,1.67-.15,3.14-.24,3.44-1.9a3.64,3.64,0,0,0,1.56-.48c1.34-.74,1-2.24-.11-2.4Zm109,.17h0c-1.22.13-2.2.68-.85,1.42-.56-.13-1,.32-1.33.5-.22,1,.81,1.34,1.33,1.8,2.46-.34,4.64.41,7,.74,0,.47.33.77.49,1.15,1.42.46,3,.29,4.48.57.7,1,1.79.9,2.83,1.07,1.14-.63,1.28-1.43,0-1.89-.37-.5-1.06-.47-1.58-.57-.19-.21,0-.33.08-.49,1.61,0,1.52-.9.67-1.65-1-1.11-2.06-.56-2.66.33a4.21,4.21,0,0,0,.66.74H849l-.24.08c-.46.2-1.06.45-1.42.58-.55-.86-1-.82-2.23-.58-.87-.25-1.83-.43-2.66-.66-.47-.28-.41-.23-.47-.24.66-.27.69-.6,1-1.15,1.44.05,2.87.08,4.32.08h5.64c-.17-.09.07-.39,0-.5-1.65-.11-3.31-.08-5-.08a15.93,15.93,0,0,0-3.32-.49,18.2,18.2,0,0,0-3.82-.74,6.18,6.18,0,0,0-1.22,0ZM745,614c-1.39,0-3.78-.06-2.32,1.66C743.66,615.52,745.94,615.75,745,614Zm112.28.08h0a.93.93,0,0,0-1,.75c.71.7.47,1.72,2.19,1.49,0,.54.31.88,1.4.77,1.16-.66,1.27-.28,1.07-1.48-.57-.48-1.34-1.09-1.9-1a.8.8,0,0,0-.32.24,1.76,1.76,0,0,0-.2-.76,3.26,3.26,0,0,1-1.24,0Zm-169.51.06a4.2,4.2,0,0,0-3,.92c-1.16.38-3.36.81-2.24,2.51.42,1.36,1.77.6,3,.43a3.22,3.22,0,0,0,2.6-2.15c1-.4,1.43-1.79-.29-1.71ZM928,615.1c-.26,0-.41.09-.14.64a18.58,18.58,0,0,1,3.21.48c.12,0,.29,1.14.81.32.55.33.91.81,1.6,1-4,1.49,3.64-1.51-2.57,1-1.73,0-2.35-.46-2.41,1.43,1.57-.32,2.91.24,4.5-.32.48-.1.88-.52,1.44-.32.63,0,1.56.48,2.25-.15l.8-.48c-.39-1.92-.1-1.45-1.6-2.23v-.79a36.12,36.12,0,0,0-4.18-.48h-2.89c-.18.12-.55,0-.82,0h0Zm-208.85.4c-1.23.3-5.09,1.58-2.78,2.8a2.33,2.33,0,0,0-.68.28c-1,.39-2,.68-1.54,1.85a2.68,2.68,0,0,0,2.84-.08c1-.55.94-1.59.26-2a6.53,6.53,0,0,0,3.2-.87c1-1.1.9-2.34-1.3-2Zm157.79.1a11.25,11.25,0,0,0-3.37.57h-3.72c-1.67.25-2.06-.41-2.61,1.47,1.66,1.1,2.93,2,5.22,1.3l2.6,1.29c1.94,0,2.66.49,3-2l1.12-.74c-.76-1.25-1.4-1.76-2.23-1.86ZM665,615.74c-1.74.18-5,1.07-3.5,3.1C663.53,618.78,670,616.7,665,615.74Zm33.92,0a2.84,2.84,0,0,0-1.15,0c-1.19.24-3.5.37-3.25,1.72a1.53,1.53,0,0,0-.73,2.44,9,9,0,0,0,2.32-.15c1.2-.52,2.94-.71,3.18-2.15.92-.91.59-1.69-.37-1.88h0Zm100.33.14a6.74,6.74,0,0,0-3.64.61c.76.65,1,1.17,2.22,1.19l-.34.79c1.2,1,1.51.7,2.89.45a7.4,7.4,0,0,0,2.29-.3c.35-1.79.53-1.09-1.07-1.81a1.1,1.1,0,0,0-.59-.5c-.35-.1-.64.16-.93.39a2.38,2.38,0,0,0-.83-.82Zm65.22.14c-.45-.1-1,0-1.54.84.86,1.53-.8,2.1,2.6,1.48l.19-2c-.4.08-.8-.2-1.25-.3Zm-104.13.51c-1.19.1-2.49.43-2.59,1.69a4.06,4.06,0,0,0,2.52-.25c1.43-.14,2.14-1.39.07-1.44Zm72,.24a2.79,2.79,0,0,1-1.33,1c.45,1.68,0,1.29,1.4,1.64a13.34,13.34,0,0,1,4.23-.49,3.44,3.44,0,0,1,.26-1.15c-1.21-1.3-3-.68-4.56-1Zm-120.69.62c-1.33.13-4,1.13-2.9,2.49C711.35,620.62,716.12,617.88,711.68,617.43Zm-7.53.51c-1.66,0-4,.26-3.5,2.16C701.92,619.85,705.8,619.17,704.15,617.94ZM881,618c-1.77.32-1.91-.43-2.79,1.84.19.37-.84,1.76.56,1.11a18.28,18.28,0,0,1,3.54.18c1.54-.25,2,.42,2.23-1.28-.6-.1-1.29-1.08-2.23-.37-.44-.49-1.16-.74-1.31-1.47Zm-88.27.33c-1.12.41-.36.87-.61,1.5,1.62,1,2,.31,2.66-.68C794.1,617.73,793.55,618.67,792.74,618.34Zm15.44,0c-.35.78-1.47,1,.15,1.36,1.16.2,1.07.92,2.59.45,0-.33,1.39-1.41-.16-1.66v-.15Zm-83,.18a4.75,4.75,0,0,0-1.67.09c-1.39.49-3,1-2.8,2.86,2.07.37,4.91.13,5.5-2.12a1.45,1.45,0,0,0-1-.83Zm100.53,0c-.26,0-.52.14-1,.64s-1.53,1.35-.66,2.3c.68,0,1.28.14,1.65-.66s2.62-.43,1-2a4.78,4.78,0,0,0-1-.31Zm94.33.13c-.3.07-.66.43-1.2,1.2,1.07.44.84,1.51,2.57.32-.57-.94-.87-1.63-1.37-1.51Zm-190.55.06c-1.22,0-3.3-.06-2,1.45C728.36,620,730.35,620.24,729.5,618.74Zm196.27,0a.3.3,0,0,0-.31,0,1.35,1.35,0,0,0-.5.62,1.81,1.81,0,0,1,.54.84c-2.45.28-4.85.81-7.13,1.24-1.38,2.35,8.36-.3,11.24-.49,1.3-2-.32-.63-.48-.95a24.83,24.83,0,0,0-3,.11c.15-.15.29-.27.58-.59-.39-.21-.66-.68-1-.81h0Zm-3.25.24a.9.9,0,0,0-.62.25c.64,1.13,0,2.19,1.93.47-.18,0-.71-.71-1.31-.73Zm-140.73.19a7.94,7.94,0,0,0-3.45.56,3.92,3.92,0,0,0-1,1c-.25,0-.34.18-.17.49a.87.87,0,0,0,.37.83c.1,0,.23,0,.33,0s.09.1.17.17c-.78.62-1-1.1-1.52,1.21.49.09,1.37.9,2.58.14.2-.49.75-.85.65-1.53,1.57-.19,2.92-.93,2.08-2.88h0Zm-11.7.06a38.82,38.82,0,0,0-11.4,1.65c-1.37-.81-2.42-1.62-3.19.45-.4,0-.8.12-1.21.18a2,2,0,0,0-.38-.58c-.39,0-.81,0-1.22,0-.59-.79-1.23-1.4-2.36.52-1,1-1,1,.5.8a1.91,1.91,0,0,0,.1.58c.5.11,2.69.14,3.3-.57a3.1,3.1,0,0,0,2.49-.21c.83-.11,1.4.44,2.13-.29a7.12,7.12,0,0,0,2.28.14c-.4.73-.81,1.09-.8,1.35a5.41,5.41,0,0,0-1.75.43c-.76.53-1.58,1.28-.74,2a2,2,0,0,0-.29.67,1.64,1.64,0,0,0,2.33-.66c1.14-.16,2.08-.67,1.86-1.89,2.37-.54,3.16-2.18,0-2.65,2.61-.57,5.47-1.63,8.36-2Zm-120,0c-1.27.25-2.6.2-3.52,1.39,1.71.7-3.5,2.4,1.65.7C649.6,619.85,650.47,623.39,650.08,619.31Zm266.61.11c-.25,0-.42.21-.41,1,1.63.9,1.33,1.31,1.61-.32-.2,0-.79-.62-1.2-.64Zm-58.56,0a.39.39,0,0,0-.35,0,.75.75,0,0,0-.39.45c.46.52-2,1.78,1.07,1.21.35-.64,1.4,1,.76-1.36-.29,0-.71-.25-1.09-.32Zm-125.32,0a7.4,7.4,0,0,0-1.55.15c-.83.61-1.51,1.19-1.41,2.3,1.2.2,2.69.48,3.73-.27a2.26,2.26,0,0,0,.66-2,8.84,8.84,0,0,0-1.43-.15Zm7.8.12h0a4.21,4.21,0,0,0-1.42.37c-1.46,0-2.56.11-2.42,1.88,1.47.44,2.38.82,3.69-.25.42-.12.4,0,.89-.25,1.56-1.15.62-1.85-.74-1.76Zm-34.77.06a4.38,4.38,0,0,0-.88.08c-1.51.47-3,.73-3.51,2.25a3.61,3.61,0,0,0-1-.2c-1.15.11-3.5,1-2.52,2.16,1.42.39,3.6-.43,4-1.18h.14a8.89,8.89,0,0,0,2-.46,2.4,2.4,0,0,0,.62.37,6.16,6.16,0,0,0,3.33-.8c.85-1,.78-2.05-1.14-1.78a2.33,2.33,0,0,0-.29.09.93.93,0,0,0-.86-.52v0Zm186.69.11s-.09,0-.16,0a3.87,3.87,0,0,0-.93,1.23l1.12.55c0-.17.27-1.66,0-1.81Zm-145.68,0a2.88,2.88,0,0,0-2,.68c-.67.76-1.45,1.51-1.21,2.77,1.26.25,2.8.43,3.73-.37a1.28,1.28,0,0,0,.82-.4l-.18-.28c.48-.58.93-1.07.75-1.89a10.13,10.13,0,0,0-1.93-.51Zm167.66,0c-.18,0-.21.2-.31,1,1.7.77,2.06,1.07,1.44-1a3,3,0,0,1-1.13,0Zm-4.17.46c-2.65.28-2.69.14-5,1.28-2.4.7-2.7,1.65-2.89,4.29,1.43,2.51,4.92,2.77,7.55,3.81,1.77,1.16,3.87,1,5.94,1a13.61,13.61,0,0,0-1.76-.79c.26-2.09-.75-2.1-2.26-1.44-.32-1.84-.83-1.57-2.09-.48-.76-1.92-.72-1-1.92-.79-.13-2.22-.46-1.73-2.25-1.43,2.37-1.81.13-.56.48-2.07.41.24,1-.12,1.28-.16.91,1.72,3.29.34,5.15.16,1.18.14,1.32-1.07,1.76-1.43-1.58-.13-.92-.4-1.28-1.59a15.65,15.65,0,0,0-2.73-.32Zm-16.06,0c-.36,0-.64.15-.61.93,1.58,1,1.55,1.78,3.92.37l-2.24-1.29c-.27.14-.71,0-1.07,0h0Zm5.8.26a1.31,1.31,0,0,0-1.38.49v1.29a5.52,5.52,0,0,0,2.24.36c.17-.5,1-.94.56-1.65-.5-.14-1-.4-1.42-.49Zm-78.77.25a17.4,17.4,0,0,0-2,.64c-1-.89-.89.63-1.07.76.33,1.94,1.42.4,2.14.6L822,622C822,621,821.76,620.72,821.31,620.75Zm28.47.38c-.32.06-.45.39,0,1,.34.37.47.87,1.08.91.5.35.92,1.06,1.83.82,1.22-.12,1.41-.82.49-1.57-.73-.2-.49-1.69-2.32-.65a1.15,1.15,0,0,0-1.08-.54Zm-51.23.21c-.45,0-.91.08-1.4.16-2.14,0-4.51,0-5.17,2.26a17.9,17.9,0,0,0-5.17-.45c.16-.29.31-.6.46-.9-1.14-.49-2.76-1.83-2.89.61-1.64-.23-2.91-.67-4.1.74h3c1,.53-.82,1.93,2.13,1.06,2.93.16,6.09.48,9-.45a34.09,34.09,0,0,0,4.26-.45,84.55,84.55,0,0,0,9.58.76c-.39.11-.74.39-1.14.49-2.9-.75-3.24.12-4.88,1.2,1.29.48,1.81.22,3,0a12.41,12.41,0,0,0,3.81.46c2.76,1.86,1.92.15,1.83-.76l1.83-.45.3-.15c-.59-1.1.72-.71.91-.9a2.08,2.08,0,0,0-1.6-.41,11,11,0,0,0-1.29.56h-2.13a.76.76,0,0,0-.35-.06c.64,0,1.29,0,1.93-.13-3.23-.54-7.33-.88-10-1.51,1.28-.1,1.39.3,1.82-.9a6.78,6.78,0,0,0-3.75-.78Zm57.62.24c-.35,0-.66,0-.76.27.13.3-1.3,1.36.61,1.36a4.94,4.94,0,0,0,1.67-.15c1.85.18,1.39.42,1.83-.91a5.45,5.45,0,0,0-2.28-.45,6.14,6.14,0,0,1-1.07-.12Zm-84.95.06a3.23,3.23,0,0,0-2.5.77c1.28.63-.14,1.2,2.13,1.06C773.34,622.65,772.57,621.76,771.22,621.64Zm-4.71.11h0a3.66,3.66,0,0,0-2.06.5c-.77.67-1.7,1.42-1.49,2.58,2.21,0,4.67-.24,5.5-2.49a4.63,4.63,0,0,0-2-.6Zm-71.63,0a2.33,2.33,0,0,0-1.28.36,3.52,3.52,0,0,0-2.39,1.79c-1.24,1.64.48,1.65,2,1.22,1,0,2,.29,2.81-.43,1.16-.29,1.57-.42,1.45-1.72-.2-.72-.19-1-1.08-1.14-.54,0-1-.09-1.47-.08Zm119.51.41c-.46.09-.45,1.1-.58,1.19,2.45.73,2.14.7,1.7.54a1.38,1.38,0,0,0-1,1.64c.05.48-.11.85.5,1s.92.33,1.49-.25h1.08c.08.25,1,0,.24.74.7.61.82.77,1.83.66a16.76,16.76,0,0,1,3.32.16,3,3,0,0,0,.91-.41c0,1.36.93,1.16,2.08.91.47-.67.81-.06,1-1.4-.66-.75-1.18-.75-2.24-.66l-.75-.65c-1-.8-2.65-1.5-2.23.41a9,9,0,0,1-1.33-.25,8,8,0,0,0,.08-1.47c-.56-.11-1.07-.27-1.66-.33a10.47,10.47,0,0,0-3.3-.08c-.46-.19-1-.49.86-.38a4.22,4.22,0,0,0,1.07-.46c-.53-1.14-1.27-.69-2.44-.6-.28-.24-.49-.32-.64-.28Zm19.3.09c-.35-.11-.66,0-.68.65.35.25-.79,2.05,1.53,1.05,0,0,1-1.22,0-1.35C834.4,622.64,834,622.35,833.69,622.25Zm-91.66.17c-.37-.08-.78.06-1.42.73-1.42,0-2.22,0-3.49,1.2-1.43-.43-1.94-.68-2.89,1a4.5,4.5,0,0,0-1.6-.23,1.37,1.37,0,0,0,.2-1c-1.33-.39-2-.82-3.42.17-.58.65-1.27,1.31-1,2.41a5.53,5.53,0,0,0,2.68,0v0a5,5,0,0,0,2.44,0c1,.5,1.14,1.39,2.43,0l.37-.32c.8-.09,1.54-.34,1.43-.94a7.08,7.08,0,0,0,2.91-.84c.45.05.93-.12,1.37.15.48-.49,1.5-.82,1.21-1.81a7.2,7.2,0,0,0-1.16-.57h0Zm106.61,0a.4.4,0,0,0-.32,0,.83.83,0,0,0-.36.44c-.47.48-.71.34-.41,1.08a2.24,2.24,0,0,0,3.23.16c-.43-.73-.06-1-1.33-1.23a3.47,3.47,0,0,0-.81-.46Zm-136.37.24a5.18,5.18,0,0,0-1.46.08c-1.21.43-2.63.91-2.44,2.5,1.81.32,4.29.11,4.8-1.85a1.27,1.27,0,0,0-.9-.73Zm38.45.34c.64-.29.75-.29-2.82.88-.21.29-2.08-.51-.76,1.05,1.66.33,2.15.49,3.19-1.05C748.89,623.91,750.07,623.33,750.72,623Zm95.17,0h0c-4.16.3,1,0-1.91.08-.8.33-1.26-.12-.83,1.07a4.9,4.9,0,0,0,3.65.23c0-.69.09-1.15-.91-1.39Zm-118.69,0c-1.15.21-1.84.25-2.43,1.4,1.18.46,1.7.92,3.18-.13-.48-.79,1.26-.89-.75-1.27Zm164,.17c.15,1.26,1.48,2,2.41,2.86,2,.66,2.28,2.8,3,4.46a4.87,4.87,0,0,0-4.33.94c-2.79,1,.85,1.28,1.92,1.28-.79,1.71.65,1.18,1,1.75a5.33,5.33,0,0,0,2.57,1c-2.67,4.84-8.69,7-13.34,8.75l-.8-.32A105.19,105.19,0,0,1,864,649.65a2.22,2.22,0,0,0-.43-.15,2.33,2.33,0,0,0-1.61.58h0l-2.76.57a14.85,14.85,0,0,0-1.64-.32c-.91-.9-2-.83-3.23-.91a5.3,5.3,0,0,0-1.57-.24c.32-.11.62-.27.94-.36.86-1.11,2.21-2.93,3.17-4.24H857c-.13-.61-.25-1.23-.37-1.84l-.33-.25c.12,0,.26,0,.38,0,1.32-.13,2.24,0,2.4-1a1.74,1.74,0,0,0-.2-.62c2.34-1.17,1.85.13,2-3.26l-1.3.18a14.49,14.49,0,0,0-3,2.59c.16.16,0,.62,0,1-.7-.54-1-.86-1.18.55a4.9,4.9,0,0,1-1.83,0c-.58-.66-1.5-1.08-.83.41a8.49,8.49,0,0,0-1.9.41c0-1.77-1.32-.52-1.5.49a21.81,21.81,0,0,1-2.32.08c-1.55.1-2.62,0-3.73,1.07h-2.25c-.91.09-1.37.12-1.82.82.73.43.63.75,1.74.24a19.7,19.7,0,0,1,3.07-.41,20.12,20.12,0,0,0,4-1.07,43.9,43.9,0,0,1,7.69-1.36c-.55,1.67-1,2.85-2.85,3.68A13.89,13.89,0,0,0,849,649a7.34,7.34,0,0,0-1.6-.4,9.45,9.45,0,0,0-2-.08c-.8-1.68-1.83-1.08-3-.91A6,6,0,0,1,841,647a7.58,7.58,0,0,0-3.49-.41,2.43,2.43,0,0,0-1.49.73c-.61.22-.89-.15-1.32-.41a4.91,4.91,0,0,0-3.15.57c-1.64-.13-2.11,1.39-.5,1.65l1.82-.08v-.33c.81-.23.54.18.83.57-.33,2.08,2.09,1.93,3.65,2.06a3.61,3.61,0,0,1,1.91-.83c.4,1.95,2,1.14,3.74,1.49a4.43,4.43,0,0,1,.55-.13,5.16,5.16,0,0,0,2.34,0,26.51,26.51,0,0,0,3.57.16,7.73,7.73,0,0,0,1.88.37c-1.43.32-2.86.6-4.28.95-.36.5,0,.93,0,1.43l6.17-1.38c-.16.59.2.71.63,1.18a20.94,20.94,0,0,0,2.16-.25c.15-.8-.16-.81-.5-1.32h-.57l2.24-.5c-.43.34-.11.54-.26,1,.85.88,2.5.57,3.82.57-.32-.1-.12-.4-.17-.57.34-.29.72.06,1,.07a5.07,5.07,0,0,0,2.07.25c.5-1.69-1.88-1.41-3.15-1.48-1,0-2,0-3,.07l5.14-1.15a3.46,3.46,0,0,0,1.82,0,1.15,1.15,0,0,0,.3-.48l2.84-.64c4.49-1.79,14.46-.6,16.55-5.24,2.14-.57,1,.29,2.25.63,2.6-.8,4.72-1.67,7.22-2.7.57-2-.26-1,1.61-1.75,4.8.75,7-2.76,7.39-7,.86,1.24,1.78,1.2,3,1.43,3-.41.67-.54,1.76-1.43-.54-.71-1.39-.75-2.08-1.11l-1-.64L906,632h.32c3.08-3.39-.08-.36-.32-1.43-1.59-2.45-1.44-1.23-2.25-.17-1.25-1.84-1.16-.87-2.25-.16a11.51,11.51,0,0,0-6.58-6.52c-.93.45.12,1,.15,1.27a26.33,26.33,0,0,0-3.85-1.75Zm-31.27.14c-.37,0-.61.26-.73.88,0,.15-2,1,.3,1.21,1.16-.19,1.56.3,2.75-.45-.28-.54.19-1.36-.77-1.51a10.59,10.59,0,0,0-1.55-.13Zm16.22,0-.93.56c-.62.18-1.46-.84-1.87.55.87.37,1.75,1.48,2.62,1.1h4.09c-.28-.39.84-1.7-.93-1.29l-3-.92Zm-157.26.06a7,7,0,0,0-1.36.13c-.72.54-1.31,1-1.22,2,1,.17,2.34.41,3.25-.25a2,2,0,0,0,.57-1.77,7.86,7.86,0,0,0-1.24-.13Zm-16.25.25a2.42,2.42,0,0,0-1.76.65c-.27.59-.72.58-.65,1.39,1.44,0,3.17.26,4-1.14A2.83,2.83,0,0,0,702.66,623.69Zm76.73.21a3.76,3.76,0,0,0-1.89.74c-.65.86-1.9,1.08-1,1.93a3.57,3.57,0,0,0,3,.09c.91-.68,1.93-1,1.78-2.39a4.48,4.48,0,0,0-1.85-.37Zm-94.62.36c-1.34,0-2.37-.21-3.4.79-.19.93-2,1.55-.15,2a4.06,4.06,0,0,0,2.32-.58c.84-.09,1.61-.06,2.17-.86s.73-1.43-.94-1.36Zm196.42.54a.66.66,0,0,0-.36.23c.27.38-1.61,1.51.93,1.29.83,0,1.47.9,2.42,0a15.94,15.94,0,0,0,3.72-.18c-1.11-.37-2.19-1.31-3.72-.74-.62-.13-1.4,1.15-1.86-.37-.34,0-.75-.31-1.13-.24Zm8.82.32a1.34,1.34,0,0,0-1.36.47l.74.56,1.87-.56C890.83,625.46,890.43,625.21,890,625.12Zm-141.74.35a3.24,3.24,0,0,0-1.8.43,3.36,3.36,0,0,0-1.27,1.7,3.77,3.77,0,0,0-1,.45c-.89.88-2.26,2.25-.38,2.68,1.6.15,3,.24,3.82-1.2,1-.55,1.39-1,.55-1.83A2.84,2.84,0,0,0,750,626a4,4,0,0,0-1.69-.51Zm105.53,0a1.33,1.33,0,0,0-.53.11c-.77.36-1.24-.32-2,.9.76.76.26,1.84,2.59.91a9.38,9.38,0,0,1,1.68-.3c1.65.32.82.88,2-.61a3.42,3.42,0,0,0-2.28-.6,15.15,15.15,0,0,0-1.46-.42Zm-15.51.3a3.86,3.86,0,0,0-1.45.54l-2.82.74c-1.6.16-3.22-.13-4.73.58-1.24-.22-1.65,0-1.65,1.31,1,.67,2.21,0,3.31-.08.3-1,.45-.56,1.08-.9v.33c.45.27.93.11,1.41.17l.83-.25h.25c.12.29.39.44.58.66,1.25.76,1-.24,1.33-.33a4,4,0,0,1,2.24-.49l.41.08,1.25.41c.18-.17,1.11.58.66-.58.39.72.35,1,1.24.9.39,0,.78-.13,1.17-.16v.07l.74.58a4.37,4.37,0,0,0,2.74-.74c.06.08.5,0,.34.41.26.12.52.2.78.3-1.17.15-1.09,0-1.44,1.58l1.67.37a2.29,2.29,0,0,1,.48.47,4.91,4.91,0,0,0-1.25.4c-.14,0-.47-.5-.66-.08a2.84,2.84,0,0,0-.83-.16,13,13,0,0,0-2.74-.17c-.14-.22-.28-.44-.41-.66a1.81,1.81,0,0,0-3.32.49c-.44,0-.35.45-1.08.08-.33-.26-.36-.67-.92-.74a4.07,4.07,0,0,0-2.56.08l-.92.5a2.41,2.41,0,0,0-3.48.74c-.65.86-.58,1.11.17,1.88-.11.55-.56,1.24-.09,2a8.75,8.75,0,0,0,4.07.16c1-.38,1.2-.4,1.32-1.48.62.45.87.85,1.75.66h.74c.91,0,1.45.12,2-.66.48,1,1,1.41,2.08.9.78.37,1.45,1.2,2.49.42.52-1.23.77-2.22-.91-2.47.18-.27.44-.43.57-.82h1.91c1.19,1.18,4.14,1.22,5.48.17.38.12.61.49,1.07.33a3.7,3.7,0,0,0,1.59-.49c.52.14.73-.25,1.15.33,1.1.33,1.72.45,1.66-1,.17.19.87.1.59.66.5.4,1.53.95,1.43-.06.43.56.87,1.11,1.3,1.66.36.72-1.18,1.36.93,1.84,3.23-.65,4.73.76,3.35-2,1.45-2.33,3-.44,1.49-2.4-.81-.13-1.93-.73-3,0-.41-1.45-3.87-3.56-5.33-1.19a2.44,2.44,0,0,0-1.94.28c-.36-.17-.38-.42-1-.32a.5.5,0,0,0-.25-.58,13.58,13.58,0,0,0-1.6-.59c-.08,0-.18.07-.27.08a.88.88,0,0,0-.48,0c-.31.07-.57.38-.75.88a2.53,2.53,0,0,0-.26.23c1.86.92-2.24,1.88,1.26,1.27a1.7,1.7,0,0,1,0,.5,5.3,5.3,0,0,1-1.16.25,3.74,3.74,0,0,0-1.68-.77c.39-.27,1.15-.79.29-1.25.06-.37,2,.13.19-1.11h-.19l-1.27-.12a1.11,1.11,0,0,0,.34-.45,2.18,2.18,0,0,0-.17-2.46c-.64-.34-1.25-1-1.58.16-.27,0-.45.87-.83-.08-.15,0-.57-.59-.91-.32-.83.37-1,.27-.91,1.48-1.46,0-.46,0-1.33-.41,0-.43.83-.65-.08-1.32-1.38,0-2.77,0-4.15-.08a6.5,6.5,0,0,0-1.29-.05Zm-49.88.4a15,15,0,0,0-2.33.46c0,.52-.51.71-.76,1.06-1.65-.77-1.22.56-2,.91.79.7,1.75.45,2.75.45,1.35,1.12,2.13.59,3.51.3-1.37,1.91.57.8.76,1.06a23.6,23.6,0,0,0,3.66-.15v-1.36c1.61.82,1.33-.28,2.13-.45-.55-1.17-1.34-.75-2.44-.75a5.79,5.79,0,0,1-2.75.3c-.82.35-1.46.48-2.28.75-.7-.94.31-.6.46-.9.16-1.26-.14-1.65-.72-1.67Zm-36.88.28a3.86,3.86,0,0,0-2.11,1.17c1.86.82,2.36,1,4.11-.75A4.7,4.7,0,0,0,751.53,626.49Zm61.27.84c-.35,0-.66.09-.82.85,1.07,1.42.77,1.3,2.14.61-.08-.35,2.93-.24-.31-1.36-.29.12-.67-.07-1-.1Zm-53.3,0a3.16,3.16,0,0,0-1.65.64c-.57.75-1.66,1-.89,1.69a3.13,3.13,0,0,0,2.59.07c.8-.59,1.68-.89,1.55-2.08a4.26,4.26,0,0,0-1.6-.32Zm13,.83a1.65,1.65,0,0,0-1.35,1.16,1.72,1.72,0,0,0,3-.46A2.12,2.12,0,0,0,772.52,628.19ZM705,628.3a2,2,0,0,0-1.67,1.19s.15.6.49.28c1.92-.52,2.09-1.16,1.63-1.39a1,1,0,0,0-.45-.08Zm-16.84.07c-1.72,0-3.37-.07-3.32,1.9C686.24,629.84,687.77,629.81,688.13,628.37Zm53.22,0c-.4.09-.74.43-.88,1.16a1.47,1.47,0,0,0,2.19-.81A1.83,1.83,0,0,0,741.35,628.37Zm28.2,0a3.47,3.47,0,0,0-1.28,0c-.67.88-1.71,1.28-1.77,2.49a4.72,4.72,0,0,0,3.27-.83c1.68-.74,1-1.5-.22-1.69h0Zm53.11.31c-.46-.11-.62.43-1,.93,1.44.5,1.68.53,1.58-.58A1.51,1.51,0,0,0,822.66,628.71Zm-7.74.27c-.27.07-.44.29-.65.74.78.82,1.37.57,2.25.09.25-.4-.29-.47-.42-.67a2.75,2.75,0,0,0-1.18-.16Zm-4.16.24c-.23,0-.4.3-.91,1.08.12.1.14,1.59,1.07.91,1.46-.27,2.13-.1,1.06-1.67-.73-.14-1-.34-1.22-.32Zm64.23.69c1.38.16,2.81.44-.31.85a24.91,24.91,0,0,1-6.52.36c.9.65.51,2.53,3.91,1.48l1.87.37c1.43-.14,1.85-.23,3.16-.37h2.61l1.49,1.11a13.92,13.92,0,0,0,2.79-.55c4.74,0-2.26,1.11,3.35,0,2.41.21,2.82.63,3.35-1.67-2.77-1-2.23-1.22-5.21.2-.67-.24-.1-.86-1.49-.56h-3.35c-.52-.28-1.84,1-1.67-.91-2.51-.16-3.21-.24-4-.31Zm-138.46.32a2.41,2.41,0,0,0-1.55.6c-1,.56-2.1.92-2.23,2.12a5.19,5.19,0,0,0,3.82,0c.85-.65,1.75-1.13,1.21-2.49a5.24,5.24,0,0,0-1.25-.23Zm-6,.21a3.42,3.42,0,0,0-1.65.53c-.77.77-2,2-.33,2.34,1.39.13,2.61.22,3.33-1,.9-.49,1.27-.87.41-1.69a6.54,6.54,0,0,0-1.76-.13Zm75.08,0c-1.24.56-2.69.87-.3,2C807.57,632.4,807.87,631.43,805.58,630.44Zm118.82.39h0a2.57,2.57,0,0,0-.73,0c-.43.48-2,0-1.28,1.43l1,.8c-.72.57-1.46-.25-1.61,1.27h-.48l-1.61-1.43c-1.23-.12-1.88-.1-3.21-.33-.4,0-1.37-1.32-2.24,0-3.32,0-1.66-.27-3.22,1.27a9.31,9.31,0,0,0,3.53-.31c-.67.47.42.83.48,1a20.84,20.84,0,0,0,3.7.16c2,.29,4,.28,5.94.48.92-.28.28-1.4.32-1.59a4,4,0,0,0,3.54.48c.79,1.87.7,1.27,3.69,1.27h1.61c1.51,1.45,3.1.88,4.66.79,1.8-.44,3.43,0,5.14.33.91.63,1.57-.45,2.25-.64-.26-2.12-1.4-2.08-3.06-2.38a11.45,11.45,0,0,0-3.21.15c-1.09-.51-1.58-.09-2.57,0-.52-.21-1-.45-1.44-.64-1.28-.69-2.44-2-3.38-.16h-1c-1.62-.61,1-1.29-2.09-.79-1.08-.83-.75-1.66-2.73-.64a9.29,9.29,0,0,0-2-.51Zm-170.9.25a1.48,1.48,0,0,0-1.18,1,1.51,1.51,0,0,0,2.6-.4,1.84,1.84,0,0,0-1.42-.61Zm8.89.16h0c-.83.06-1.49.36-1.21,1.3,1,.7,3.07.51,2.05-1.28a6,6,0,0,0-.84,0Zm-11.47,0a2.83,2.83,0,0,0-1.12,0c-.58.77-1.48,1.12-1.53,2.18a4.09,4.09,0,0,0,2.83-.73c1.48-.65.85-1.31-.18-1.47h0Zm-24.61.84c-1.4,0-5.64.68-6.4,1.78a1.74,1.74,0,0,0-1.06,1.34,4.55,4.55,0,0,0,3.33,0s0,0,.06-.05c2.77-.34,8.6-.95,4.07-3.07Zm62.91.25a2.66,2.66,0,0,0-1.92,1c-3.31-.55-4.55,1.44-.76,1.66-.52,1.22-1.68,2.38,1.37,2.11,1.68-.42-2.31-1.23,2.44-.6.78.15,1.5.23,2.28.45a8,8,0,0,0,3.51-.45c-.1-.66.64-1.61-.31-2.11-1.42-.12-2.45-.27-3.2,1L789,635c1.18-.1,1.88.19,2.58-.91.33-.73,1.34-.81,0-1.66-.89,0-1.65-.11-2.34-.06Zm31.7.16c-1,.06-1.72,0-2.08,1.07.68,1.2,1.31.69,2.91.65a6.09,6.09,0,0,0,2.48-.65c.7-.11,1.14.09,1.25-.82a4.42,4.42,0,0,0-2.16-.25,4.43,4.43,0,0,1-2.4,0Zm6.53.25c-.41,0-.66.2-.4,1a1.7,1.7,0,0,0,2.41.57c-.62-.92,1.15-.42-.67-1a3.1,3.1,0,0,0-1.34-.57Zm-82.77,1c-.72,0-1.3.33-1,1.15.82.61,2.68.43,1.79-1.14a3.05,3.05,0,0,0-.74,0h0Zm82.46.72c-1.32,0-2.59.32-3.9.41h-3.32c-1.53.19-2.79.41-4.23.67a5.18,5.18,0,0,1-1.66.16c-1.27,0-.91.06-1,1a5.38,5.38,0,0,1,1.41,1.72,13.78,13.78,0,0,0,2.57.08c.09-.16.17-.33.25-.49a8.14,8.14,0,0,1,1.91-.34c1.4-.58,1,0,1.75-.07,1.35-.19.66-.62,1.16-1.07l-.09-.83c1.07-.19,2.08-.23,3.16-.33.68-.09,1.33-.12,2-.16.15-.24,0-.65,0-.74Zm-113.89,0c-1.71,0-8.31,1.15-4.64,2.82C710,637,717.82,636.63,713.25,634.49Zm139.12.61c-.74,0-1.07.22-1.26,1.43.36.35.39.69,1.08.65,1.56,0,1.87-.14,1.08-2a7.51,7.51,0,0,0-.9-.12Zm-22.75,0-1,.25c.11.2.13.6.42.74.67.2,1.41.43.83-1Zm57.45.26h0c-.3.08-.36.48-.47,1.62,1.32.39,2.36.9,3.91.55.74,0,1.76.46,2.61,0-.6-.65.22-2.11-1.68-1.84-.81,0-1.62-.46-2.42,0a11.57,11.57,0,0,0-1.95-.33Zm-83.3,1.5c-.42.1-.69.5-.93,1.39l3.5.46c-.25-.46,1.16-1.44-.75-1.36A3.34,3.34,0,0,0,803.77,636.89Zm-37.66.09h0a6.13,6.13,0,0,0-1.48.08c-1.41.63-2.42,1-2,2.78,1.39.12,2.77.19,3.63-1.11.48-.36,1.27-.69,1.3-1.58a12.62,12.62,0,0,0-1.41-.18Zm-14,.06a3.72,3.72,0,0,0-1.92.78,4,4,0,0,0-1.61,1,5.27,5.27,0,0,0-1.94,0c-1.23.54-2.13.87-1.79,2.41,1.21.11,2.42.17,3.17-1l.38-.27a1.48,1.48,0,0,0,0,.21c1.15-.12,2.33,0,3.36-.56s1.63-.89,2-1.94a2.11,2.11,0,0,0-1.61-.68h0Zm-73.44.17c-.88.14-1.76,1-2.49,3a54.14,54.14,0,0,0,6.11,0C681.59,638.69,680.14,637,678.67,637.21Zm-16,.2c-.12-.18-.82.07-3.42.47a41.27,41.27,0,0,0-2.82,3.27c2.89.24,3.92-.46,6.11-1.64a5.86,5.86,0,0,1,.13-2.1Zm160.9.1h0c-.06.67-.39,1,.5,1.48.25.21.42.61.82.66a13.47,13.47,0,0,0,4.16-.33c.61-.07,1.33.09,1.73-.5-.4-.47-.62-1.14-1.4-1.23a31.85,31.85,0,0,0-3.4.08l-2-.17h-.41Zm13.1,0c-.91.18-1.59.22-1.16,1.48.08.56-.71.37.17,1.15.89.2,1.26.45,2.08-.17.64-.64.89-.55.41-1.72-.81-.7-.5-.55-1.5-.74Zm-102.23,0a5,5,0,0,0-.76.17c-1.37,0-4.07.95-2.24,2.31l1.7-.11a1.25,1.25,0,0,0-.64,1.64,6.73,6.73,0,0,0,2.93-.49c.77-.46,1.42-.77,1.7-1.68a1.86,1.86,0,0,0-1.23-.56,2.25,2.25,0,0,0,.39-.84,3.41,3.41,0,0,0-1.18-.42h0a3.63,3.63,0,0,0-.67,0Zm-33.36.09h0a10.41,10.41,0,0,0-2.1.22c-1.56.28-3.72.23-3.76,2.1,2.2.43,3.21.62,5.64-.47-.89-.77,1.12-1.75.22-1.86Zm140.24,0c-.69.46-1.41.61-.66,1.48-1.62.71-2.09,1.27-.09,2,1,.26,1.67.83,2.42-.25a5.77,5.77,0,0,1,1.49-.41c.8-.47,1.44-.49.49-1.56-.57-.35-.83-.9-1.74-.66-.88-.44-1-.61-1.91-.57Zm-51.16.14c-.68,0-1.39.11-2.1.17-1.64,2.4.31.7.46,1l.3,1.51c1,.46,1.37.21,2.44,0,1,.74,2.38-.24,3-.3,3.16.54.29,0,2.59-.15,1.15-1.39-.74-1-.92-1.21h-2a5.68,5.68,0,0,0-1.84-.6,4,4,0,0,0-2-.47Zm-124,.5c-1.26.1-2.34,1.33-2.16,3.76,2.24.66,3.31,1.21,5.4-.71C668.83,639.26,667.38,638.23,666.12,638.32Zm242.54.19h0c-.45,0-.7.38-.73,1.42l2.73-1.11a12,12,0,0,0-2-.32Zm-24.7.23c-.23.06-.27.39-.52,1.41,1.85.82,2.42,1.24,2.23-1.28-1,0-1.47-.2-1.71-.13ZM866,638.8a2,2,0,0,0-1,.43c-.42.57-1.5-.54-.94,1.29-.77.28-1.49-.64-2,.74,2,1.09,2.92,1.22,5-.55.69-.44,2.7.88,2.05-1.29C868.25,639.28,867.1,638.66,866,638.8Zm-145.7.46a3.39,3.39,0,0,0-.66.14c-1.2,0-3.55.82-2,2,1.67-.14,3.76.09,4.23-1.78a3,3,0,0,0-1-.36h0a2.21,2.21,0,0,0-.58,0Zm-71.85.19c-.68-.09-1.39.3-1.92.3a25,25,0,0,0-5.17,5.59c1.12.49,2.09-.32,3.06-.47a27.07,27.07,0,0,0,4.7-5.12,1.34,1.34,0,0,0-.67-.3Zm154,.13a1,1,0,0,0-.73.21c-2.28-.17-1.85-.41-2,1.21,1.23,1.62,2.7,1.29,4.73,1.06.77.06-.17,1.83,2,.15-.37-.92-.29-1.92-2.44-1.51-.57-.23-.92-1.05-1.55-1.13Zm-151,.17c-.89.78-2.22-.44-2.12,1.86l.7-.24c.11,0,1.46,2.19,2.59-.23-.24-.29,1.8-1.49-1.17-1.39Zm195.79.07a.58.58,0,0,0-.45,0,1.39,1.39,0,0,0-.62.65c.47,1.31,1,1.79,2.24.49-.34-.42-.74-1-1.17-1.15Zm-33.35.66c-.76.57-2.13,1-.83,1.64.48.86,1.64,1.55,1.75,0,.68-.51.72-.28.58-1.15C814.8,640.76,814.86,640.53,813.94,640.48Zm20.06.06c-.48.06-.94.45-1.22,1.25.65,1,.87,1.4,2.32,1.23,1.3.34,2.37.67,3.65,1a6.74,6.74,0,0,0,4.07-.9c1.62,0,3.68.32,4.89-.66a5.81,5.81,0,0,0-3.23-.25,3.06,3.06,0,0,0-2.08-.49c-1.41,0-2.68,0-4.06-.16a10.81,10.81,0,0,0-2.91-.25,1.66,1.66,0,0,0-1.43-.75Zm-23.51,1.39a1.78,1.78,0,0,0-.79.43c0,.24-.45.9,0,1.2.72.48.49,1.64,2.28.31.45.28.29,1.37,1.68,1,.14-.23,1.56,0,.76-1.2a10.46,10.46,0,0,0-2-1.06c-.68-.26-1.23-.86-2-.72Zm-127.26.61h0c-3,.18-4.56-.27-4.7,3H675l-.46.23-2.82.47c-3.5-.35-5.64-.67-8.7,1.86a18.7,18.7,0,0,0,8.7.93,22.8,22.8,0,0,0,8.69.93c2.65,0,3.52.33,5.64-1.4,1.25-1.23,2-.46,1.65-2.79.62-1.24,2.47,1.41,1.18-2.32-1.73-.32-3.63-1.12-5.65-.94Zm138.15.53-1,0a2.88,2.88,0,0,1-2.16.74c-1.38-.23-.93.34-1,1.15,1.1.89,1.56,1,2.24-.07.36-.58.72-.21,1.17-.34,1,0,1.26-.49,1.82-1.23a2,2,0,0,0-1-.27ZM660,643.94c-2.93.34-5.07-.2-4.47,3.49-1.39,1-1.79.87-1.88,2.55,1.24-.36,2.66-.65,4-.92a15.62,15.62,0,0,1,1.87-2.79C662,645.82,664.08,644.22,660,643.94Zm98.66.23a5.15,5.15,0,0,0-2.51.93c-3,0-5.58.61-8.7.7-.6-.14-1.09-1-1.88-.46-1.66,1.64-3-.58-1,3.64,5.62,1.43,11.86.07,17.67.55,2.55.36,4.55,1.22,6.58-.94,2.59-.14,4.64.62,4.47-2.79-2.46-.44-5.13-.93-7.53.47a19.42,19.42,0,0,0-4.7.23c-.74-1.47-1.36-2.32-2.42-2.33ZM744.55,649c-.22-.06-.45-.09-.67-.16l.71.23,0-.07Zm-93.75-4.6h0c-1.64,0-2.55.3-2.83,2.34.92.27,1.83,1.66,4.46,0,1.83-1.81,2.18-1.19.24-2.32-.7,0-1.33,0-1.87,0Zm141.27,0c-4,.58-8.24.69-12.22,1.86.21,1.48-.34,3.13,1.41,4h-1.18c2.68,0,4.42.48,5.65-2.1h2.81C792,648.14,793.42,647.76,792.07,644.42Zm23.82,0c-.47,0-.51.25-.7.95,1.4.53,1.62.18,1.33-.9a4.74,4.74,0,0,0-.63-.06Zm-78.84.06h0a3.48,3.48,0,0,0-3,1.53c-.35.69,2.82,1.58-.94,1.87-2.69-1.48-3.69-1.59-6.11.23,2.54,1.37,5.24,1,8.69-.47,3,0,4.44,0,4.94-2.55a19.32,19.32,0,0,0-3.54-.61Zm95.87.2c-.12,0-.22.21-.39.78l-2.16.08c-1.35-.93-1.41.37-1.49.41,0,.57-.45.61-.67.9,2.11.56,4.42-1.2,6.73-.58a11.53,11.53,0,0,0,3.06-.57c.51-1.18-.65-.53-1.4-.49-.6-.91-.66-.4-1.25-.17a3.18,3.18,0,0,1-1.74.58l-.25-.5c-.21-.24-.33-.44-.44-.44ZM708.7,645a5.57,5.57,0,0,0-4.55,2.21c-2.6-.18-4.79-.76-7,.93.52.67-1.57,2.92,3.53,1.86,1.37.41,3,.37,3,2.33-2.86,5.09-9.68,5.81-14.58,8.15,5.56-2.45,14.72-3.28,16.7-8.39,1.23-1.34,2.66-2.56,3.06-4.42,2.33-.38,3.76,0,4.22-2.56-.91,0-1.77-.06-2.6-.09-.61,0-1.21,0-1.78,0Zm149.2.49c-.83,0-1.06.27-1.41,1.36-.79.51-.29,1.12.26,1.67,1.22.62,2,.41,2-.55a4,4,0,0,0,1.42-.44v-.37l-.23-.34c.38-.24.14-.49-.1-1.09a.54.54,0,0,0-.37-.14.65.65,0,0,0-.29.11l-.13-.2H857.9ZM723.36,646c-1.62,0-2.88.39-3,2.2,1.54.68,2,2.06,4.47-.47,0-.35,2.78-1,.24-1.63-.59,0-1.18-.09-1.72-.1Zm-30.43.66c-2.82,0-5.45.76-4.76,3.87a26,26,0,0,1,4.7-1.16c1.24-.61,3.34-.73,2.82-2.57a27.41,27.41,0,0,0-2.76-.14Zm22.51.6h0c-2.18.43-4.23.28-3.3,1.86.61.07,1.24.45,1.88.22,1,.15,1.16,2,3.06.47.49-.66,2.1-1.3,1.89-2.56h-3.53Zm-53.6.71c-1.77.35-2.48.06-3.3,2.09a10,10,0,0,0,2.12,0C660.94,649.53,664.1,649.82,661.84,647.93Zm188.73,2.12a10.47,10.47,0,0,0,4.36.54,5.07,5.07,0,0,0,1.81.57,2,2,0,0,0-.24.05,6.72,6.72,0,0,0-2.56-.13c-1.49-.16-3-.26-4.47-.52l1.1-.51Zm-65.78,1.13c-2.24,0-3.89-.15-5.88,1.17.77,1.72-.11,3.47,5.64.93.11-1,3.43.49.24-2.1Zm-117.61.08a8.77,8.77,0,0,0-4.64,1.32c-3.66.66-7.2,2.62-.47,3.26a13.62,13.62,0,0,0,3.3-2.56c2.61.2,4.8,1.17,5.4-1.86-.66,0-1.34-.11-2-.14-.51,0-1,0-1.56,0Zm11.11,1.32c-2.27,0-4.89,0-7,1.4.31.47.38,1.33.94,1.4,1.89-.19,3.77-.38,5.65-.7.17-.76,1-.8.46-2.1Zm2.65.42a3.29,3.29,0,0,0-2.41.75c.55.69.77,2.29,1.64,2.09,1.56-1.21,2.64.88,3.3-2.56-.8-.06-1.68-.26-2.53-.28Zm48.85.41c-2.18.07-3.74.81-3.07,3.59,2.82-.69,5.06-.54,5.41-3.49a21.14,21.14,0,0,0-2.34-.1Zm-24.15,2.76a2.53,2.53,0,0,0-.79.14c-3.3.65-6.05,1-8.22,4,2.61,1.44,5,2,8,.46,2.65,0,3.78-.22,5.18-2.55-1.13-.56-2.41-2.07-4.16-2Zm26.73,1.06c-2.08.29-4.13.25-5.89,1.63.94.5-.58,3.24,3.53,1.86,1.71-.42,3.25-.29,4.47-2.09v-.23c-.71-.38-1.41-.78-2.11-1.16Zm7.08,4.16c-1.88.18-3.19,1-4.27,3.29.59.09,7.3,2.42,6.35-3.26a11.27,11.27,0,0,0-2.08,0Zm6.29.27c-.71.05-1.42.17-2.1.23-2.3,1-.56,1.8-.94,3,3.51.25,4.54.15,5.18-3A5.41,5.41,0,0,0,745.74,661.66Z" transform="translate(-641.39 -556.07)"/></svg>