<svg id="clouds" xmlns="http://www.w3.org/2000/svg" viewBox="0 0 1203 223"><defs><style>.cls-1{opacity:0.73;}.cls-2{fill:#f9f9f9;}</style></defs><title>clouds</title><g id="Clouds-2" data-name="Clouds" class="cls-1"><path class="cls-2" d="M326.36,70.42A49.5,49.5,0,0,1,400,11.33,64.48,64.48,0,0,1,500.65,38.22,41.68,41.68,0,0,1,505,38a43,43,0,0,1,37.52,64H300c0-.17,0-.33,0-.5A31.51,31.51,0,0,1,326.36,70.42Z" transform="translate(-119 3)"/><path class="cls-2" d="M340.64,135.42A49.5,49.5,0,0,0,267,76.33a64.48,64.48,0,0,0-100.67,26.89A41.68,41.68,0,0,0,162,103a43,43,0,0,0-37.52,64H367c0-.17,0-.33,0-.5A31.51,31.51,0,0,0,340.64,135.42Z" transform="translate(-119 3)"/><path class="cls-2" d="M794.64,176.42A49.5,49.5,0,0,0,721,117.33a64.48,64.48,0,0,0-100.67,26.89A41.68,41.68,0,0,0,616,144a43,43,0,0,0-37.52,64H821c0-.17,0-.33,0-.5A31.51,31.51,0,0,0,794.64,176.42Z" transform="translate(-119 3)"/><path class="cls-2" d="M1108.64,130.42A49.5,49.5,0,0,0,1035,71.33,64.48,64.48,0,0,0,934.35,98.22,41.68,41.68,0,0,0,930,98a43,43,0,0,0-37.52,64H1135c0-.17,0-.33,0-.5A31.51,31.51,0,0,0,1108.64,130.42Z" transform="translate(-119 3)"/><path class="cls-2" d="M1295.64,188.42A49.5,49.5,0,0,0,1222,129.33a64.48,64.48,0,0,0-100.67,26.89A41.68,41.68,0,0,0,1117,156a43,43,0,0,0-37.52,64H1322c0-.17,0-.33,0-.5A31.51,31.51,0,0,0,1295.64,188.42Z" transform="translate(-119 3)"/></g></svg>