<svg id="rudolf" xmlns="http://www.w3.org/2000/svg" viewBox="0 0 183.04 254.69"><defs><style>.cls-1{fill:#c36b21;}.cls-2{fill:#ae6729;}.cls-3{fill:#e31e27;}.cls-4{fill:#fff;}.cls-5{fill:#1f1a1c;}.cls-6{fill:#e24033;}</style></defs><title>rudolf</title><g id="Rudolf-2" data-name="Rudolf"><path class="cls-1" d="M893.68,580a154.63,154.63,0,0,1-14.83-24.14c1-5,3.61-16,7.26-20.89a3.55,3.55,0,0,0-5.68-4.26c-2.62,3.49-4.64,8.83-6.09,13.69-3.27-10.81-3-19.28-2.63-28,.32-8.52.65-17.33-2.31-28.41a3.55,3.55,0,0,0-6.86,1.84,66.85,66.85,0,0,1,2.26,16.78c-3.43-3.79-8-8-11.7-8a3.14,3.14,0,0,0-3.14,3.13,3.1,3.1,0,0,0,3.1,3.12c1.62.21,6.59,4.92,10.44,9.88a3.08,3.08,0,0,0,1.13.91c0,.15,0,.3,0,.44-.44,11.78-.88,23.84,7.25,41.52,0,.1.09.2.15.3A156.44,156.44,0,0,0,888,584.13a3.55,3.55,0,1,0,5.73-4.18Z" transform="translate(-849.96 -485.31)"/><path class="cls-1" d="M932.28,582.61a152.66,152.66,0,0,0,14.83-24.14c-1-5-3.61-16-7.26-20.89a3.55,3.55,0,1,1,5.68-4.26c2.62,3.5,4.65,8.84,6.09,13.69,3.28-10.81,3-19.27,2.63-28-.32-8.52-.65-17.33,2.32-28.41a3.55,3.55,0,0,1,6.86,1.84,66.56,66.56,0,0,0-2.27,16.78c3.43-3.78,8-8,11.7-8a3.15,3.15,0,0,1,3.15,3.13,3.11,3.11,0,0,1-3.1,3.12c-1.62.21-6.6,4.92-10.44,9.88a3.09,3.09,0,0,1-1.14.91c0,.15,0,.3,0,.45.44,11.77.88,23.83-7.26,41.51,0,.1-.09.2-.14.3A157.79,157.79,0,0,1,938,586.79a3.55,3.55,0,1,1-5.74-4.18Z" transform="translate(-849.96 -485.31)"/><path class="cls-1" d="M1031.92,594c-4.42,22.1-23.46,19.31-21.32,35.31-9.85-11.72-30.38-19.78-54.11-19.78-33.33,0-60.35,15.89-60.35,35.5,0,9,5.67,17.15,15,23.4l-1.6,66.5a3.2,3.2,0,0,0,6.39.35l5.31-61.45a77.66,77.66,0,0,0,7.5,2.71l-1.45,60.16a3.2,3.2,0,0,0,6.39.36l5-58.11a99.91,99.91,0,0,0,17.8,1.57,97.33,97.33,0,0,0,24.4-3l-1.25,52.11A3.2,3.2,0,0,0,986,730l4.82-55.76c1.85-.75,3.61-1.56,5.3-2.43l-1.42,62.92a3.34,3.34,0,0,0,3.2,3.52,3.3,3.3,0,0,0,3.19-3.14l5.68-70.44c6.34-5.62,10-12.36,10-19.6a22.21,22.21,0,0,0-2.33-9.77h1C1041.23,630,1030.59,611.32,1031.92,594Z" transform="translate(-849.96 -485.31)"/><ellipse class="cls-2" cx="63.05" cy="126.9" rx="31.95" ry="41.71"/><ellipse class="cls-3" cx="63.93" cy="154.41" rx="16.86" ry="11.54"/><ellipse class="cls-4" cx="55.06" cy="113.59" rx="7.99" ry="10.65"/><ellipse class="cls-4" cx="71.03" cy="113.59" rx="7.99" ry="10.65"/><circle class="cls-5" cx="57.72" cy="116.25" r="4.44"/><circle class="cls-5" cx="68.37" cy="116.25" r="4.44"/><circle class="cls-4" cx="56.91" cy="64.07" r="9.05"/><path class="cls-6" d="M935.13,565a23.61,23.61,0,0,0-41.83-1.62C905.1,560.11,923.05,560.52,935.13,565Z" transform="translate(-849.96 -485.31)"/><path class="cls-4" d="M941.68,568.18a31.45,31.45,0,0,0-6.55-3.21c-12.08-4.45-30-4.86-41.83-1.62a26.91,26.91,0,0,0-8,3.44c-4.34,9.25-3.82,15.24,1.39,18.1a24,24,0,0,1,5.87-3.71c10.12-4.56,24.37-3.16,41.43,2.26,2.06.66,4.17,1.38,6.31,2.15C946.71,585.54,945.48,578.11,941.68,568.18Z" transform="translate(-849.96 -485.31)"/></g></svg>