<svg id="santa" xmlns="http://www.w3.org/2000/svg" xmlns:xlink="http://www.w3.org/1999/xlink" viewBox="0 0 132.73 275.17"><defs><style>.cls-1{fill:#dd3e36;}.cls-2{fill:#262c2c;}.cls-3{fill:url(#linear-gradient);}.cls-4{fill:#e24033;}.cls-5{fill:none;stroke:#da9032;stroke-miterlimit:10;stroke-width:5px;}.cls-6{fill:#fff;}.cls-7{fill:#f2c5b2;}.cls-8{fill:#db8383;}.cls-9{fill:#f4f4f4;}.cls-10{fill:url(#linear-gradient-2);}.cls-11{fill:url(#linear-gradient-3);}.cls-12{fill:url(#linear-gradient-4);}.cls-13{fill:url(#linear-gradient-5);}</style><linearGradient id="linear-gradient" x1="1343.74" y1="1107.29" x2="1330.08" y2="1144.42" gradientTransform="matrix(0.4, -0.31, 0.32, 0.86, -266.22, 83.02)" gradientUnits="userSpaceOnUse"><stop offset="0.1" stop-color="#fff"/><stop offset="0.38" stop-color="#b4b4b4"/><stop offset="0.71" stop-color="#5c5c5c"/></linearGradient><linearGradient id="linear-gradient-2" x1="555.75" y1="712.14" x2="539.96" y2="755.07" gradientTransform="translate(-130.46 73.09) rotate(-12.67)" xlink:href="#linear-gradient"/><linearGradient id="linear-gradient-3" x1="1300.83" y1="923.04" x2="1286.14" y2="962.96" gradientTransform="matrix(0.46, -0.2, 0.1, 0.91, -106.68, 120.87)" xlink:href="#linear-gradient"/><linearGradient id="linear-gradient-4" x1="1213.38" y1="906.66" x2="1198.7" y2="946.58" gradientTransform="matrix(0.46, -0.2, 0.1, 0.91, -106.78, 118.09)" xlink:href="#linear-gradient"/><linearGradient id="linear-gradient-5" x1="1214.78" y1="978.14" x2="1201.12" y2="1015.27" gradientTransform="matrix(0.43, -0.26, 0.21, 0.89, -202.27, 57.92)" xlink:href="#linear-gradient"/></defs><title>santa</title><g id="Santa-2" data-name="Santa"><path class="cls-1" d="M637.35,632.52,612.74,638l-11.55-37.94c-2.28-7.5,1.58-15.09,8.45-16.61l.61-.14c6.36-1.41,13,2.92,15.11,9.86Z" transform="translate(-509.9 -459.33)"/><path class="cls-2" d="M635.16,655.32,623.3,655c-5.22-.14-10.51-6.08-11.77-13.19l-.19-1.07c-1.25-7.12,2-12.82,7.2-12.68l11.86.32c5.22.14,10.51,6.07,11.77,13.18l.19,1.08C643.61,649.76,640.37,655.46,635.16,655.32Z" transform="translate(-509.9 -459.33)"/><path class="cls-3" d="M637.39,636.32l-21.33,4.08c-3.31.64-7.13-2.69-8.49-7.39h0c-1.36-4.7.24-9.06,3.55-9.7l21.32-4.08c3.31-.64,7.13,2.69,8.49,7.39h0C642.29,631.32,640.7,635.68,637.39,636.32Z" transform="translate(-509.9 -459.33)"/><polygon class="cls-4" points="14.76 203.57 96.85 209.01 104.46 190 9.74 183.71 14.76 203.57"/><path class="cls-4" d="M616.78,574.86l-22.17-18.47a36.78,36.78,0,0,0-43.12-2.86l-24.42,15.38A36.77,36.77,0,0,0,511,609l4.22,16.68,105.74,7,6.39-16A36.77,36.77,0,0,0,616.78,574.86Z" transform="translate(-509.9 -459.33)"/><polygon class="cls-2" points="5.35 166.38 9.74 183.71 104.46 190 111.09 173.4 5.35 166.38"/><rect class="cls-5" x="561.56" y="626.16" width="25" height="25" transform="translate(-466.38 -495.92) rotate(3.79)"/><rect class="cls-4" x="527.69" y="665.81" width="33" height="48.59" transform="translate(-477.6 -483.62) rotate(2.63)"/><rect class="cls-4" x="568.43" y="668.07" width="33" height="48.59" transform="translate(-477.46 -485.49) rotate(2.63)"/><rect class="cls-2" x="523.1" y="707.88" width="39" height="25" rx="12" ry="12" transform="translate(-339.64 -560.37) rotate(12.6)"/><rect class="cls-2" x="567.78" y="708.42" width="36.79" height="24" rx="12" ry="12" transform="translate(-338.58 -569.88) rotate(12.6)"/><circle class="cls-6" cx="46.1" cy="13" r="13"/><path class="cls-4" d="M597.71,492.57c-5.48-11.09-17.74-18.49-31.57-17.76a33.25,33.25,0,0,0-28.54,18.57C554.28,487.85,580.05,487.1,597.71,492.57Z" transform="translate(-509.9 -459.33)"/><polygon class="cls-7" points="19.8 65.44 34.45 87.21 92.37 84.18 92.07 59.17 57.59 50.95 28.73 54.46 19.8 65.44"/><path class="cls-6" d="M607.34,496.69a45.46,45.46,0,0,0-9.63-4.12c-17.66-5.47-43.43-4.72-60.11.81a38.51,38.51,0,0,0-11.26,5.54c-5.53,13.58-4.33,22.14,3.36,25.86a34.65,34.65,0,0,1,8.13-5.77c14.18-7.29,34.73-6.36,59.59.15q4.53,1.17,9.22,2.6C615.86,521.21,613.54,510.64,607.34,496.69Z" transform="translate(-509.9 -459.33)"/><path class="cls-8" d="M583.25,534a4.51,4.51,0,0,1,0,.52,7,7,0,0,1-14,.21,7.18,7.18,0,0,1,.18-2c0-.2.11-.4.18-.61A7,7,0,0,1,583.25,534Z" transform="translate(-509.9 -459.33)"/><path class="cls-9" d="M612.41,546a7,7,0,0,0-3.93-5.93,7.19,7.19,0,0,0,.47-2.9,6.93,6.93,0,0,0-1-3.25,7,7,0,1,0-11.4-.81,7,7,0,0,0-1.58,4.79,6.82,6.82,0,0,0,.25,1.5c-1.31.27-3.54-1.2-5.7-2.62a23,23,0,0,0-6.15-3.26l-.12.49-.13.48.13,0a7,7,0,0,1-14,.21,7.18,7.18,0,0,1,.18-2h.19v-1c-3.85,0-7.44,1.41-10.62,2.63-5.76,2.22-9.93,3.83-13-2.75l-.45.22a7,7,0,1,0-9.3-9.76,6.58,6.58,0,0,0-1.18,0,17.19,17.19,0,0,0-6.37,12.35,6.9,6.9,0,0,0,.36,1.84,7,7,0,0,0-2,5.26,7.12,7.12,0,0,0,.66,2.61,7,7,0,0,0,.45,8.69,7.23,7.23,0,0,0-.38,2.68,7,7,0,0,0,1.87,4.4,7,7,0,0,0,6,11.21h.08a7.88,7.88,0,0,0-.87,4.05,8,8,0,0,0,8.4,7.57l.34,0a6,6,0,0,0,2.95,3.13,7,7,0,0,0,7.17,5.37,6.53,6.53,0,0,0,1.84-.35,7,7,0,0,0,8.56,1,7,7,0,0,0,5.79,2.56,6.76,6.76,0,0,0,2-.39,7,7,0,0,0,8.95-1.26,5.88,5.88,0,0,0,1,0,6.93,6.93,0,0,0,3.71-1.31,7.19,7.19,0,0,0,1.23,0,7,7,0,0,0,4.86-2.34,5.85,5.85,0,0,0,1,0,13.45,13.45,0,0,0,8.46-10.45c0-.08,0-.17,0-.25a7,7,0,0,0,2.7-5.9c0-.1,0-.19,0-.29a7,7,0,0,0,3.45-10.53v-.38s0-.07,0-.1a6.8,6.8,0,0,0,1.68-3.61,7,7,0,0,0,3.81-6.59,7.11,7.11,0,0,0-.6-2.47A7,7,0,0,0,612.41,546Z" transform="translate(-509.9 -459.33)"/><ellipse class="cls-2" cx="566.28" cy="525.37" rx="3" ry="5" transform="translate(-536.53 -429.09) rotate(-2.99)"/><ellipse class="cls-9" cx="562.68" cy="519.4" rx="5" ry="1.88" transform="translate(-669.07 -195.51) rotate(-23.21)"/><ellipse class="cls-9" cx="588.85" cy="522.04" rx="1.88" ry="5" transform="translate(-696.86 194.6) rotate(-51.21)"/><ellipse class="cls-2" cx="584.83" cy="525.9" rx="2.5" ry="4.5" transform="translate(-536.53 -428.12) rotate(-2.99)"/><rect class="cls-10" x="518.47" y="656.2" width="94.04" height="17.2" rx="8" ry="8" transform="translate(-464.67 -495.3) rotate(3.79)"/><rect class="cls-11" x="564.25" y="701.3" width="44.36" height="16" rx="8" ry="8" transform="translate(-461.68 -496.59) rotate(3.79)"/><rect class="cls-12" x="522.2" y="701.49" width="44.36" height="16" rx="8" ry="8" transform="translate(-461.76 -493.8) rotate(3.79)"/><path class="cls-1" d="M544.4,632l-25.09,2.43-6.84-39.06c-1.35-7.72,3.41-14.78,10.41-15.46l.62-.06c6.49-.63,12.55,4.48,13.8,11.62Z" transform="translate(-509.9 -459.33)"/><path class="cls-2" d="M539.45,654.4l-11.73-1.76c-5.16-.77-9.69-7.31-10.07-14.52l-.06-1.09c-.38-7.21,3.53-12.48,8.69-11.71L538,627.08c5.16.78,9.7,7.31,10.08,14.52l0,1.09C548.52,649.91,544.61,655.17,539.45,654.4Z" transform="translate(-509.9 -459.33)"/><path class="cls-13" d="M544,635.81l-21.66,1.45c-3.37.23-6.75-3.54-7.53-8.37h0c-.78-4.83,1.34-9,4.7-9.19l21.67-1.46c3.36-.23,6.74,3.54,7.52,8.37h0C549.46,631.44,547.34,635.58,544,635.81Z" transform="translate(-509.9 -459.33)"/></g></svg>