<svg id="Layer_1" data-name="Layer 1" xmlns="http://www.w3.org/2000/svg" viewBox="0 0 51.56 59.04"><defs><style>.cls-1{opacity:0.85;}.cls-2{fill:#fbfcfc;}</style></defs><title>snow</title><g class="cls-1"><path class="cls-2" d="M30,60a1.58,1.58,0,0,1-1.58-1.58V2.58a1.58,1.58,0,1,1,3.16,0V58.46A1.58,1.58,0,0,1,30,60Z" transform="translate(-4.22 -1)"/><path class="cls-2" d="M30,21.58a1.58,1.58,0,0,1-1.12-.46l-6.17-6.18a1.57,1.57,0,0,1,0-2.23,1.59,1.59,0,0,1,2.23,0L30,17.77l5.06-5.06a1.59,1.59,0,0,1,2.23,0,1.57,1.57,0,0,1,0,2.23l-6.17,6.18A1.58,1.58,0,0,1,30,21.58Z" transform="translate(-4.22 -1)"/><path class="cls-2" d="M30,14.43A1.59,1.59,0,0,1,28.88,14L25,10A1.58,1.58,0,1,1,27.2,7.81l2.8,2.8,2.81-2.8a1.57,1.57,0,0,1,2.23,0A1.59,1.59,0,0,1,35,10L31.12,14A1.59,1.59,0,0,1,30,14.43Z" transform="translate(-4.22 -1)"/><path class="cls-2" d="M36.17,48.79a1.56,1.56,0,0,1-1.11-.46L30,43.27l-5.06,5.06a1.58,1.58,0,1,1-2.23-2.23l6.17-6.18a1.6,1.6,0,0,1,2.24,0l6.17,6.18a1.58,1.58,0,0,1-1.12,2.69Z" transform="translate(-4.22 -1)"/><path class="cls-2" d="M33.92,53.7a1.55,1.55,0,0,1-1.11-.47L30,50.43l-2.8,2.8A1.58,1.58,0,0,1,25,51l3.92-3.92a1.58,1.58,0,0,1,2.24,0L35,51a1.59,1.59,0,0,1-1.12,2.7Z" transform="translate(-4.22 -1)"/><path class="cls-2" d="M5.8,46.07a1.58,1.58,0,0,1-.79-3l48.4-27.94A1.58,1.58,0,1,1,55,17.92L6.59,45.86A1.61,1.61,0,0,1,5.8,46.07Z" transform="translate(-4.22 -1)"/><path class="cls-2" d="M47.54,29.1a1.83,1.83,0,0,1-.4-.05L38.7,26.79a1.59,1.59,0,0,1-1.12-1.94l2.26-8.43a1.6,1.6,0,0,1,1.94-1.12,1.58,1.58,0,0,1,1.11,1.94L41,24.15,48,26a1.58,1.58,0,0,1-.41,3.1Z" transform="translate(-4.22 -1)"/><path class="cls-2" d="M50.66,24.7a2,2,0,0,1-.41-.05L44.9,23.21a1.59,1.59,0,0,1-1.12-1.93l1.44-5.36a1.58,1.58,0,1,1,3.05.82l-1,3.83,3.83,1a1.58,1.58,0,0,1-.41,3.11Z" transform="translate(-4.22 -1)"/><path class="cls-2" d="M18.63,45.79a1.48,1.48,0,0,1-.41,0,1.57,1.57,0,0,1-1.11-1.93L19,36.9l-6.91-1.85a1.6,1.6,0,0,1-1.12-1.94A1.57,1.57,0,0,1,12.86,32l8.44,2.26a1.58,1.58,0,0,1,1.12,1.93l-2.26,8.43A1.58,1.58,0,0,1,18.63,45.79Z" transform="translate(-4.22 -1)"/><path class="cls-2" d="M13.26,46.29a1.44,1.44,0,0,1-.41,0,1.59,1.59,0,0,1-1.12-1.93l1-3.84-3.83-1a1.58,1.58,0,1,1,.82-3.05l5.35,1.43a1.59,1.59,0,0,1,1,.74,1.57,1.57,0,0,1,.16,1.2l-1.44,5.35A1.56,1.56,0,0,1,13.26,46.29Z" transform="translate(-4.22 -1)"/><path class="cls-2" d="M54.2,46.07a1.61,1.61,0,0,1-.79-.21L5,17.92a1.58,1.58,0,1,1,1.58-2.74l48.4,28a1.57,1.57,0,0,1-.79,2.94Z" transform="translate(-4.22 -1)"/><path class="cls-2" d="M12.46,29.1a1.58,1.58,0,0,1-.41-3.1L19,24.15l-1.85-6.91a1.58,1.58,0,1,1,3.05-.82l2.26,8.43a1.59,1.59,0,0,1-1.12,1.94l-8.43,2.26A2,2,0,0,1,12.46,29.1Z" transform="translate(-4.22 -1)"/><path class="cls-2" d="M9.34,24.7a1.58,1.58,0,0,1-.41-3.1l3.83-1-1-3.83a1.58,1.58,0,1,1,3-.82l1.44,5.36a1.57,1.57,0,0,1-1.12,1.93L9.75,24.65A2,2,0,0,1,9.34,24.7Z" transform="translate(-4.22 -1)"/><path class="cls-2" d="M41.37,45.79a1.56,1.56,0,0,1-1.52-1.17l-2.26-8.43a1.56,1.56,0,0,1,1.11-1.93L47.14,32a1.58,1.58,0,1,1,.81,3L41,36.9l1.86,6.91a1.59,1.59,0,0,1-1.12,1.93A1.48,1.48,0,0,1,41.37,45.79Z" transform="translate(-4.22 -1)"/><path class="cls-2" d="M46.74,46.29a1.57,1.57,0,0,1-1.52-1.17l-1.44-5.35a1.59,1.59,0,0,1,1.12-1.94l5.35-1.43a1.58,1.58,0,1,1,.82,3.05l-3.83,1,1,3.84a1.59,1.59,0,0,1-1.12,1.93A1.44,1.44,0,0,1,46.74,46.29Z" transform="translate(-4.22 -1)"/></g></svg>