<svg id="xTree" xmlns="http://www.w3.org/2000/svg" viewBox="0 0 185.64 333.3"><defs><style>.cls-1{fill:#1a384e;}.cls-2{fill:#d1d7db;}.cls-3{fill:#132236;}.cls-4{fill:#142843;}.cls-5{fill:#dde5ea;}.cls-6{fill:#eaeff2;}.cls-7{fill:#eff3f5;}.cls-8{fill:#f5f7f9;}.cls-9{fill:#0e1b2e;}.cls-10{fill:#b5bfc5;}.cls-11{fill:#9eaab3;}</style></defs><title>xTree</title><g id="g5042"><path id="path5018" class="cls-1" d="M1158.78,360.63c-2.9,3.85-5.71,2.59-9.5,2.22-.51-2.39,2.13-3.8,2.79-5-2.66,2.39-4.31,0-5,0l2.23-1.66c-3.66,1.62-5.14,2.45-8.38,3.87-1.52-6.41,1-6.07,7.26-6.63,2.08.21,3.16-.35,5-.56-3.57-4.32-5.25-1.62,1.12-4.42,1.8.8,4-.44,5-.55,0-2.34,1.49-3.32,2.24-5h3.35c-4.89-2,0-4.83,0-5.53v-5.53c-1.8.67-5.22-.47-6.14-.55-4.82-4.87-3.24-5.58,1.67-7.74-3.3-2-.44-4.83-.56-6.08,3.48-1.37,2.49,1.75,3.91,2.76-3.79-6.89-5.25-10.83,0-16,7,.41,6.15,4.49,6.15,11.06,3.39-10.79,4.39-1,3.91,3.87v6.63c.13,2.48-.82,5.25-1.12,7.19,4.13,3.22,2-2.41,2.79-3.32,4.88,2.12.77,4.57,1.12,6.64-1.37,3.2-1.12,6.43-1.12,9.95l6.15,1.1c3,3.22,4.68,2,8.37,2.77,11.31-1.35,6.36,2,5,5,7.78,1.51,3.35,4.06,3.35,6.64-3.92,1.27-3.29-2.28-5.58-3.87-1.25,3.58-3.53,0-4.47,0-2.19,5.15-2.32,2.41-6.15,1.66-6.36,5.75-15.31,5.58-23.45,1.1Z" transform="translate(-1082.14 -299.55)"/><g id="g4753"><path id="path4356" class="cls-2" d="M1174,345.07h0c-2.58-.09-5.34,1.29-7.87,4.63a45.63,45.63,0,0,0,.63,5.53c-15.37-.88-10.55,10.1-1.24,12.87-2.36,3.44-5.66,2.44-9.91,2.44-3.51,3.68-2.16,6.68-2.48,9.82l6.2,4.28-4.34,2.46c-6.8.57-3.45,4.26-5,6.13-3.17,2.39-8.22.74-7.45,5.07-3.09,2.63,1,5.91.14,7.5-6.3.4-9.14-.29-9.88,4.79-5.66,3-5.25,7.82,4.19,12.06-.39,5.71,2.73,2.71,5,4.91-1.1,1.24-2,2.16-2.82,3.13a12.46,12.46,0,0,0-4,1c-5.13,3.39-8.47,3.77-9.3,11.74,2,2.25-.63,6.47,5.08,5.86a8.49,8.49,0,0,1,1-.36c-.39,5.54,5.92,9.91,13.13,9.91,2.33-1,3.83.85,5.59,1.24a10.69,10.69,0,0,1-.41,2,28.9,28.9,0,0,0-5.77-1,2.58,2.58,0,0,0-2.73-1.77,11.15,11.15,0,0,1-3.2.08c-2.94,4.09-6.54,6.1-8.2,9.8-2.41.09-9.32,5.77-10.68,6.44-5.36,2.69-6,10.41-5.38,11.81-.43,1.45,9,2.05,9,4.75-.12,8,6.25,3.65,11.86,5.32l.77,1c-1.61.51-2.61,1-2.51,1.86-5.23,1-9.33,7.14-13.51,10.3-.26.05-5.16,4.42-5.39,4.5-5.92,1-4.55,5.55-8,10.14.84,7.36,10.59,4.25,13.85,6.83l.14.33a16.55,16.55,0,0,0-.81,1.86c-1.27,5.74,1.43,5.55,3.73,8.58l3.7,1.23c0,1.23-4.87,2.51-5.12,3.24-3.92,2.39-4.86,4.42-10.53,6.73-1.12,2.78.72,8.53.85,10.06,2.43,2.67,6.68,1.36,8.94,1a26.61,26.61,0,0,1-2.18,7.15,14.44,14.44,0,0,0-1.89,4.36,6.33,6.33,0,0,1-1.48,1.71c-3,1.66-1.13,4.48-1.69,6.71-.93,3.28-3.43,1.13-5.08,1.67-9.41,3.93-6.89,7.28-3.38,15.09a15.91,15.91,0,0,0,1.14,1.89c-.09.21-13.39.4-3.6-1.72-13.92,3.8-19.58,16.55-20.8,19.57-1.39,9.41,7.69,11.61,27.49,3.71,5.31,1.77,11.24.48,16.08,0,.64-5.61,1.58-7.8,4.4-8.89a8.19,8.19,0,0,1,.57,1.27c2.28,3.48,4.81,1.46,8,2.45H1150c-4.41,6.73-2,7.54,3.71,9.81,7.68.17,11.36-2.6,16.1-6.13,5.39,2,6-.39,9.29-1.83l3.73,6.12c4.61,6.45,5.56,4.66,10.53,3.68,8.93.89,13.62.3,19.81-4.29v-6.14c4-.62,10-.95,13-1.22,4.12-.08,7.48-1.36,11.15-2.45-.54,9,.16,9.69,7.43,11.65,8.44-.13,9.47-1.69,13-8,.92-8.23,12.87-8.33,9.35-13,1.08-8.72-18.18-16-22.35-20.12-1.67-4.5-2.9-4.2-6.2-6.75a37.12,37.12,0,0,0,.66-5.24c0,.16,0,.27,0,.44,2.54-.42,7.3,3.33,10.17-1.67,5-8.91,6.08-11.38-5.08-17.6-4.28-2.83-6.43-6.31-13.54-5.86-.13.13-.22.15-.35.27,0-1.54.07-3.06.07-4.66a13.86,13.86,0,0,0-.14-1.93c3.08-1.07,6-.9,8.88-4.58-6,1.86,10.4-3.72,13.65-5-.16-12.25-19.58-17.69-25-20.09-.17-.31-.3-.58-.48-.9-3.33-1.69-3.66-4.05-5.58-6.15,8.42,1.19,7.19-7.79,6.57-14,8.66-1.73,4.2-9,15.49-7.45-.11-7.26-10.24-12.81-14-17.78-2.67-8.77-5.62-5-12.39-15.34.73-6.7,7.59-9,5.29-14.68,1.76-7.78-12.31-10.7-17.68-12.29.95-10-2.2-13.5-10.52-17.16,3.77-2.18.86-5.54,1.24-8,.43-6-8.5-13.79-10.68-17.68,6.49-6.86,16.35-5.43,3.25-17.27-4,.6-3.23-3.64-4.34-4.9.38-9.36-4.42-16.7-10.09-16.9Z" transform="translate(-1082.14 -299.55)"/><path id="path4360" class="cls-3" d="M1173.54,381.06c-4.55,2.16,0,4.42,0,5.67-2.2,1-4.59.39-6.89.58-1.21,1.72.38,4.17.57,6.26,3.67-.14,6.72-.21,10.35-.57v-4.55c5,.77,5.39-1.86,8.61-4,2.76-3.44-1.83-1.81-2.86-2.84-3.33.4-6.55-.25-9.78-.56Zm8.62,18.2c-.26,1.37-3.72,2.24-1.15,6.25-3.45,2.57-6,4.8-10.34,5.11-.37.93,3.07,4.94-2.3,5.69a58.31,58.31,0,0,1-12.64-1.13c-5.73-1.14-7.31-2.74-9.76,3.42-2.67,1.46-5.16,2.43-6.9,5.1,5,0,8.82.65,12.64-2.27,4.88-1.76,6.31-.37,10.41,2.19,2.69-1.23,5.32.05,8-2.19,1.79,1.57,2.25.53,5.16,4.56.84-3-1.56-5,.24-9.21,2-3.66,3.16-2.54,7.82-2.74,5.64-1.12,7.44-.17,9.18-5.12-1.8-.74-3.38-2.77-6.89-2.84-.51-1-2.81-4.17-3.45-6.82Zm15.54,19.36a6.31,6.31,0,0,0-4,1.11c-1,4.86,1.16,4.17-4,6.26-3.92,0-8-.62-11.5,1.13,1.21,4,2.74,4.18.58,8.53-1.8.89-.46,5.27-5.75,2.85-4.19-.83-8.16-1.8-12.64-.57.41,1.62.09,2.92,1.14,4.56-3.13,3.55-4.6,5.79-9.76,6.25-3,1.3-6.09,2.64-7.48,6.26,6.43,1.27,10.71,2.63,12.64-4,5.82-.57,6.33.16,5.75-5.12,1.34-.36,3.43-3,6.32-1.7a41.22,41.22,0,0,0,9.78,1.14c.19-1.71-.43-3.52.57-5.13,7.31-.72,7.77-2.29,3.45-8.52,2.93-1.69,4.9.1,6.9-4,4.21,0,8.53.35,12.64-.57-.25-2.47-1-5.16-.58-8-1.38-.13-2.69-.47-4-.54Zm10.9,23.29c-1.39,2.06-2.8,5.6-5.75,6.83-2.75-1-5.25.88-7.47-2.85-3.51,1.39-5.1-.28-7.48,4.56-.18.92.82,2.15-.57,2.83-1.6-.39-2.19-1.67-4.59-1.13-2.47,2.44-5.8-.44-5.17,5.12-1.47,1.86-.88,4-4,5.12a63.69,63.69,0,0,0-13.21-1.7c1.13,5.61,1.37,7.17-3.46,11.36h4.6c3-.88,5.25-2.77,9.2-1.7,2.46-4.37,4.29-7.66,12.65-7.39,1.9-3.39.78-4.58,5.16-5.69,4.66-2,7.42-4,11.49,1.14,3.91,1.72,6.09,1.94,8,6.82-1.81,2.4-2.65,4.46-5.74,6.26-3.06-1.68-5.92-3.23-8.63-6.26-1.9,1.47-5.48-.46-5.17,4,3.26,1.79,7.56,4.15,9.77,8.52,4.7.47,8.3,1.66,12.07-2.27,2.37,1,5.21-.31,6.89,2.84.56,5.54-.8,10.59,5.18,11.95,5.52-1,8.5-.13,7.46-6.83-1.82-2.71-5.16-6.17-5.74-10.23-1.75-.94-1.07-5.23-6.32-3.42-.86-2.74-2.29-4.59-2.3-7.39-5.47-1.08-10-.78-14.36-5.12,2.08-4.63,1.28-5.13,6.89-5.69,3,.3,5.93,1.15,9.19,0-2.26-4-4.49-7.51-8.61-9.67Zm-54,41.52c-1.77,3.51-3.28,7.08-7.76,8,2.16,6.93,10.29,6.74,8.33,17.64,1-3.39,1.68-6.91,5.18-9.67-1-1.27-.13-4.07-3.46-4.55,3-4,2.07-5.7,9.2-4,6.34,0,12.92-.68,19,1.15-.51,2.17.19,4.87-1.72,7.39-3.1.31-8.63,1-12.65.57.3,2.9,1.07,6.41.58,9.66.7,1.54,1.42,4.24,2.87,6.26,2.83-1.08,5.41,1.11,7.46-2.84.57-1.27,4.38-2,2.31-5.12,5.61.56,8.42-.24,7.47,6.83a41.45,41.45,0,0,1,9.77,5.68c.88-2.89,2.13-5.88,1.72-9.66,3.48-.69,6.58-2.16,10.34-2.85-1.43-1.24-1.66-3.56-4.59-4-3,0-5.94-.44-8.63,1.13-4.27-1.15-7.56-.76-10.33-5.12,1.16-3.84,3.15-6.87,3.44-10.81,4-.78,9.94-.27,13.21-3.4-10.26,0-19.23-1.1-29.29,0-4.1,0-7.31.56-10.35-1.72-3.71,0-7.92.58-12.07-.57Zm0,30.57c-2.31,0-4.56.49-6.85.72-2.35,2.84-4.1,2.95-6.32,4.55,5.83,4.24,3.09,6.71-2.3,9.67,2,2.63-.45,5.28-.58,6.83h2.88c9.65-17.89,21.08-4.88,22.41,9.66v6.26c4.68.62,10,.7,14.36,1.13,2.45,2,4,4.78,5.18,6.26-5,5.53-10.11,5.26-17.24,4.55.17,2.89-1.44,6.55-1.72,8-5.44,5.79-12.57,4.67-20.12,4-.63-2.23-2.33-.77-3.45-1.14a61.51,61.51,0,0,0-5.74,4.56c2.6,4,3,7.33,3.44,11.94,4.66,2,9.21-.39,13.8-2.28,3.84.69,4.14,3.74,5.16,6.26-2.76.48-2.06,2.45-2.87,3.42-1.25,8.87-6.31,11.93-10.92,16.5a13.26,13.26,0,0,0,6,5.23h.36a.55.55,0,0,1-.08.15c4.25,1.66,9.32.86,15.56.3-1.24-3.25-.3-6.69,0-9.66,3.39-2,6.5-1.89,10.34-2.27,2,3,1.67,5.09,2.31,8.52,5.62.12,6-2.82,8.61-6.25,1.7-6.05,7.81-7.51,13.21-9.11-3.42.19-5.06-.27-8-.57-6.27,1.34-11.34,1.44-16.66,0-4.9-2.74-8.24-4.3-12.07-6.82v-6.83c3-.42,6.74-1.22,9.2-1.7,3.21-3.26,2.29-6.93,2.29-11.38a42.91,42.91,0,0,1,10.92-2.27c6,.42,5.58,3.17,7.47,7.39,4.39-.1,6.77-.15,10.92-.57h3.45c.84-2.58.58-5.29.58-8-2.86-4.25,2-3.59,2.86-5.11,2.43-1.57,4.42,1.31,5.75,1.7,3.23-3.54-.45-4.91-.57-6.25h-8.62c.06,6.18-2,5-5.17,7.39-5.15,1-5.23-1.32-8-3.42-.07-3.94-2.44-6.85-3.44-9.09-.52-3.3.56-6.22,1.14-9.1,5.89-4.23,5.24-10.81,4.6-17.07h-4.6c.76,7.81-.54,8.87-6.89,11.38-6.27,1.61-11.17-.65-16.67-2.28-.57-3.51-1.61-6.3-2.29-9.66-.26-6.74,4.12-7.7,8.61-9.68,1.09-4.06-3.14-1.94-4.59-2.84-5.64.81-8.39-1.41-13.22-2.85a15.41,15.41,0,0,0-2.34-.15Zm55.78,14.94a56.91,56.91,0,0,0-1.72,6.83l6.32,6.26c6.07.8,6.7-2,8.62-6.26,1.32-6.51-1.68-6.25-7.47-6.83ZM1226.8,568c-1.18,0-2,.58-3.26.73-.27,4.44,1.34,4.61,3.45,7.4.56,2.08-.38,3.35-.57,5.12,1.63,3.7,3.69,1.32,6.32,2.27.32-2.32,1.69-3.77,2.29-5.11,2-1.13.77-3,1.15-4.55-1.42-5.17-3.08-4.71-8-5.69a4.91,4.91,0,0,0-1.34-.17Zm-12.45,12.68c-.75.87-4,1.25-3.46,4,6.88,3,6.55,7.27-1.14,10.79v4c6.58,0,10.48-.06,15.51,3.42,1,0,2.22,4.75,5.17,0-2.26-2.56-4.3-4.27-6.32-6.84V589.8c4.94,0,8.28,1.51,8.63-2.84-1.58.69-3.12,2.33-5.18,2.27-1.84-1.83-4.39-3.16-5.74-5.69-2.29-1-4.74-2.47-7.47-2.84Zm28.15,19c-2.5-.32-3.74,2.35-5.75,3.18-.51,5.59-.51,4.59-5.75,5.11a39,39,0,0,0-1.72,4c1.54,3.72.8,6.07-.89,7.89a54.17,54.17,0,0,0,9-2.26c-.54,9,.16,9.69,7.43,11.65,8.44-.12,9.48-1.68,13-8a17.32,17.32,0,0,0-.19-5.6,66.36,66.36,0,0,0-10-5.4c-3.18-1.3-3.26-8.48-4-10.25a4,4,0,0,0-1.14-.33Z" transform="translate(-1082.14 -299.55)"/><path id="path4432" class="cls-2" d="M1127.46,504.52c-2.62,1.44-5.49,1.49-8.14,2-2,2.47-4.3,2.72-7.26,3.45-.47,1.53.39,3.31.59,4.31,1.33,1.49,3,1.53,4.64,2,5.44-2.51,17.7-6.82,10.17-11.79Zm93.26,5.13c-9.83.75,5.48,16,12.77,15,4.27,1.88,10.26,7.78,13.66,2.31.92-.51.9-1.37,2.61-1.44-.71-1.17.58-2.48-1.75-2.88,0-.27-1.25-1.71-.29-2.59-1.08-1.94-1.94-3.57-4.36-4.6-6.82-1.66-11.2-3.84-20.32-5.75a13.26,13.26,0,0,0-2.32-.05Zm-86.81,34.89a9,9,0,0,0-1.69.23c-6.52,1.41-20.2,8.15-29.75,13.05-1.62,2.06-3.84,2.54-5.71,3.6-1.29,7.2-.89,4.93,5.88,7.83,1.79-1.39,3-1.42,4.85-2.28,2.64-.51,3.71-1.77,5.73-3.15l2.22,0c-1.47,1.07-3.07,2.17-4.37,3.14-.94,1.74-2.55,2.36-3.8,3.39,0,5.53,0,3.78,5.39,5.1,1.16-1.26,2.06-1.43,3.32-2.3,1.9-.71,2.54-1.79,3.87-3.07l4.29-.78c14.4-17.37,11.55-18.22,4.25-14.14,8.09-7.86,8.88-10.74,5.52-10.59Z" transform="translate(-1082.14 -299.55)"/><path id="path4443" class="cls-4" d="M1149.64,470.07c3.8-.23,4.47,3.16,5.89,4.16,2.65,6.3,6.85,5.78,12.61,8.32,2.72-1.2,6.08.67,7.57.83-3.69,6.5-7.52,5-15.14,5-3.56-.31-2.91-.42-5.88-.84-4.18,10.27-9.91,7.24-17.66,4.17,3.87-.29,7.66-3.16,10.09-4.17a163.55,163.55,0,0,1,2.52-17.47Z" transform="translate(-1082.14 -299.55)"/><path id="path4445" class="cls-4" d="M1111,524.16c2,7.1,5.61,5.83,14.29,5.83-.68-3.43,1.68-3.89,2.52-5.83,2.79,1.1,8.56-.7,10.09-.83,2-1,.57-2.81.84-4.16l8.48-5.08c12,2.1,8.58-7.49,5.88-18.93,2.37,2.81,7.35,10.54,9.19,12.36.5,4.38-.55,7.6-.85,11.65-5,1.75-8.63,2.86-13.45,4.16-2.71,5.43-5.8,7.44-10.93,10.82-1,4.6-5.06,3.35-7.56,5-4,2.17-3.6-2-5.89-3.33C1112.17,535.38,1112,534.81,1111,524.16Z" transform="translate(-1082.14 -299.55)"/><path id="path4447" class="cls-4" d="M1130.31,561.62h10.93c2.69,5.48,6,3.78,9.24,5.82,5.47-.25,10.52-.34,16-.83,4.22-1.48,7.74,2.55,10.09,3.33-3.65,7.73-7.91,9.12-14.29,11.65h-21c-5.78,7.86-13.15,5.94-22.7,5-1.7-3.93,1.31-7.79,1.68-10,2.06-1.17.56-2.78.84-4.16,3.63-3.25,6.32-7,9.25-10.82Z" transform="translate(-1082.14 -299.55)"/><path id="path4449" class="cls-4" d="M1152.17,445.93c-2.22,2.67-4.85,3.6-6.73,5a12.91,12.91,0,0,0-10.92,5.08c5.24,4.65,12.28,3.95,20.17.74,2.51-1.37,3.38-5.35,4.2-6.66,2.1-1.42,4.49-.55,6.73-.83.76-2.23,1.73-4,2.52-5.83-1.83-3.21-5.11-2.24-7.57-3.32-5-2.86-11.14-6.23-13.45-6.25Z" transform="translate(-1082.14 -299.55)"/><path id="path4451" class="cls-4" d="M1158.05,381c2.38-1.45,5-.56,7.57-.84-1.33,3.07,3.32,3.95,4.2,5,.37,4.09-3,4.22-4.2,5.82-4.23,0-6-2-10.09-3.33,4.34-.53,1.81-4.77,2.52-6.65Z" transform="translate(-1082.14 -299.55)"/><path id="path4453" class="cls-4" d="M1153.85,419.3c-1.54-2.66,2.08-5.49,2.52-6.66-.55-6.46,4-3.41,5.89-5,3.77,0,5.18,3.42,7.56,5,5.65,5-.66,4.57-.84,5.83C1163.41,424.1,1160.51,421.28,1153.85,419.3Z" transform="translate(-1082.14 -299.55)"/><path id="path4457" class="cls-5" d="M1119.38,483.38c-2.44,5.76,4.62,3.43,6.72,5,5.83-1.46,4.81-4.06,6.73-8.33,4,2.5,3.25-.64,4.2-.83v-15c-1.86-1.93-3.55.59-5,.83-2.14,6.89-5.59,8.87-10.09,13.32l-2.52,5Z" transform="translate(-1082.14 -299.55)"/><path id="path4459" class="cls-5" d="M1126.1,444.27c.93-6.36,4.28-6.14,9.25-8.33-2.46-2.85,2.86-3.53,3.36-4.16,4.48,2.42,2.15,5.85,3.37,9.16,2.16,5.12-3.9,5.79-5,7.49-7.68,1.94-6.85-1.92-10.93-4.16Z" transform="translate(-1082.14 -299.55)"/><path id="path4462" class="cls-5" d="M1144.6,398.49c2.58-2.79,5.38-5.32,7.57-7.49,5-2.82,2.66,2.64,4.2,4.16,5.86.38,7.11,3.35,10.93,6.66-3.17,4.21-7,2.68-10.93,4.16-6.13-.73-7.51-4.33-11.77-7.49Z" transform="translate(-1082.14 -299.55)"/><path id="path4464" class="cls-5" d="M1131.15,415.14c-.09-7,4.51-4.47,7.56-7.49,5.56-2,3.65,3,5,4.16C1138.47,422.54,1137.79,418.06,1131.15,415.14Z" transform="translate(-1082.14 -299.55)"/><path id="path4466" class="cls-5" d="M1160.57,358.54c-.71-6.25,4.64-2.54,7.57-4.16,3.12,3,1.53,5.54,2.52,9.16-9.16,3.55-6.92,2.06-10.09-5Z" transform="translate(-1082.14 -299.55)"/><path id="path4468" class="cls-5" d="M1171.5,351.05c-8.33-5.09-4.65-6.94,1.69-11.65,7.31-4.66,4.91,3.79,7.56,5.83C1177.94,356.36,1178.79,349.61,1171.5,351.05Z" transform="translate(-1082.14 -299.55)"/><path id="path4470" class="cls-5" d="M1165.62,454.25c2.48-15.2,3-2.4,8.41-6.65,5-2.19,4.66,3.46,6.72,5-3.52,2.34-7,5-9.25,6.66-2.58.07-3.92-3.33-5.88-5Z" transform="translate(-1082.14 -299.55)"/><path id="path4472" class="cls-5" d="M1190.84,434.28c6.17-5.2,9-3.78,15.14-5,6.71-.55,7,1.83,11.77,5-1.4,7.06-2.81,5.19-9.25,5.83-8-3.32-9.8-.44-15.14,2.49-6.67-.49-1.82-6-2.52-8.32Z" transform="translate(-1082.14 -299.55)"/><path id="path4474" class="cls-5" d="M1116,519.17c-3.5-5.55,1.26-7.47,1.68-10,6.63-4,11.45-5.58,18.5-7.49,6.43-3.51,3.54,4.09,5,5.83.54,5.46-3.82,3.78-5.89,5.83,4.57,3.16,0,8.36,0,9.15-3.64-.28-6.26,1.55-10.09,2.5-10.76,2.89-5.52.81-9.25-5.83Z" transform="translate(-1082.14 -299.55)"/><path id="path4476" class="cls-5" d="M1148,534.15c5.87,3.46,3.93,5.28,3.37,10.82,3.16,1.36,3.05,3,5,5,4.58,0,5.86,4.65,8.41,6.66-3.59,8.34-9.54,4.46-16.82,2.5-4.12-4.56-8-3.33-14.29-3.33-1-4.73,2.18-8.62,2.94-8.74-1.74-8.56,7.67-9.53,11.35-12.9Z" transform="translate(-1082.14 -299.55)"/><path id="path4478" class="cls-6" d="M1103,565.8c-5.55-3.85-5.09-7.26.49-9.72,2-5.39,7.76-5.29,12.75-7.76,1.27-5.73,4.7-5.33,10.31-5.83,2.9-2.4,4.71-2.91,8.82-2.91.88,6.81-1.18,6.84-5.39,8.74-1.06,3.26.88,5.13,1.47,7.28-3,4.93-3.93,4.86-8.83,5.34-2.1-1.44-2.47-2.79-3.43-3.88-1.68-.4-3.45-1-4.91-1.46-1.87,7.93-4.12,9.49-11.28,10.2Z" transform="translate(-1082.14 -299.55)"/><path id="path4480" class="cls-6" d="M1120.66,510c5.08,3.65,7,2.33,11.28-1,1.22-3.09,5.44-4.77,7.36-5.83,1.06-2.1,1.65-3.92,2.45-5.83-4.23-1.73-5.52-.36-8.34,2.43-6,2.53-9.92,3.89-12.75,10.2Z" transform="translate(-1082.14 -299.55)"/><path id="path4482" class="cls-6" d="M1125.07,475c4.7,1.4,7.12-.43,9.81-2.43,1.46-3.78,4-5.66,6.87-7.77-2.94-4-4.5-2.27-7.85-1.94.79,2.52-2.27,4.12-2.94,5.34C1126.37,470.06,1126.89,471.76,1125.07,475Z" transform="translate(-1082.14 -299.55)"/><path id="path4484" class="cls-5" d="M1224.65,514.33c6.41-1.82,11.6-1.47,16.19,1.94,4.72,2,5,3.76,5.88,8.25-1.83,3.55-2.88,3.34-6.37,4.37-7.55,3-6.15,1.69-9.32-1.45-3.53-.8-6.1-4-8.83-6.32-1-3.14-2.39-4.3-4.42-6.31,3.31-2,3.6-.81,6.87-.48Z" transform="translate(-1082.14 -299.55)"/><path id="path4486" class="cls-5" d="M1169.71,473.05c2.4-5.94,5.1-6.66,9.81-8.74,5.38,0,8.68,4.75,12.76,7.77-.31,4-3.83,4.64-6.87,6.31-6.92.19-11-1.87-15.7-5.34Z" transform="translate(-1082.14 -299.55)"/><path id="path4488" class="cls-5" d="M1164.81,425c4.07-1.34,6.77.7,9.32,1.46,2,3.2-.79,5-1,6.31-3.61,3.51-3.68-.81-4.42-1h-2.45c-2.33,5.61-3.24,4-7.36,5.83-4-1.63-2.38-3.54-3.92-5.83,3.43-3.34,6.63-4.44,9.81-6.8Z" transform="translate(-1082.14 -299.55)"/><path id="path4490" class="cls-5" d="M1172.65,397.31c2-4.36,4.17-3.28,7.85-2.92h6.87c3.45,2.36,2.72,3.27,3.43,6.8-5.89,1.54-7.18-1.2-9.32-4.37-2.37,5.9-8.83,8.46-8.83.49Z" transform="translate(-1082.14 -299.55)"/><path id="path4492" class="cls-5" d="M1188.35,389.05c5-.44,6.77,2,9.32,3.4,4.07,1.91,6.89,3.19,10.79,5.34.64,5.93-.43,4.08-4.41,5.83-1.13,4.12-3.35,1.65-5.89,2.91-5,0-3.73-1-5.88-3.88.89-7.15-5.46-6-3.93-13.6Z" transform="translate(-1082.14 -299.55)"/><path id="path4494" class="cls-5" d="M1196.2,411.39h6.38c3.23,1.32,5.94,2.25,8.83,3.4,4.73,3.09,2.64,3.13-1,5.82-3.22.74-3.92-.86-6.38-1.94-4.83,4.53-5.37,1-7.36-3.4-3.88,2.2-6.13,2.45-10.79,2.91C1187.72,413.14,1191.51,413.45,1196.2,411.39Z" transform="translate(-1082.14 -299.55)"/><path id="path4496" class="cls-5" d="M1231.52,474.51c3.38-.5,5.5,1.14,7.85,2.43,3.63,1.5,6.37,4.78,8.34,7.28-.88,3-3.83,3.84-5.89,4.86-3.73,1.31-6.8-1-8.83-1.46a18,18,0,0,1-11.77-3.88V470.63c5.35-1.27,7.38,1,10.3,3.88Z" transform="translate(-1082.14 -299.55)"/><path id="path4498" class="cls-5" d="M1201.11,545.4c5.69-6.76,7.29-5.22,12.26-3.88,4.54,4.13,10.18,6.47,13.73,11.17-4.17,3.72-10.32,2.47-15.69,1.94-9.85,4.44-13.33-2.5-10.3-9.23Z" transform="translate(-1082.14 -299.55)"/><path id="path4500" class="cls-5" d="M1173.64,527.44c.92-5.29,3-4.37,7.84-4.37,5.07,3.4,6.31,8.11,5.4,12.62-4.67,4.56-10.17,2.75-14.23,1C1167.88,532,1169.54,530.48,1173.64,527.44Z" transform="translate(-1082.14 -299.55)"/><path id="path4502" class="cls-5" d="M1113.79,601.24c-1.12-9.6,4.71-9.54,11.28-10.2,8.12-.89,14.81,4.69,19.13,8.26-1.14,7.78-6.53,7.28-13.73,7.28-3.56,8.59-10.5,7.7-19.62,6.8-2.32-6.29-2.67-9.67,2.94-12.14Z" transform="translate(-1082.14 -299.55)"/><path id="path4504" class="cls-6" d="M1109.38,595.9c.34-6.35,4.84-5.34,10.79-5.34,6-1.09,7.69.11,9.81,5.34-3.1,4.44-6.27,4.8-11.77,5.34C1111.21,601.92,1111.18,600.37,1109.38,595.9Z" transform="translate(-1082.14 -299.55)"/><path id="path4506" class="cls-7" d="M1104.47,593.47c1.63-7.67,5.34-5.87,11.28-5.34,5.29-1.5,8.76.6,12.27,2.91-3.81.35-7.62.9-11.29,1.46-3.82,5.07-7.49,2.86-12.26,1Z" transform="translate(-1082.14 -299.55)"/><path id="path4508" class="cls-7" d="M1178.05,592c.48-7.4,4.12-7.84,9.32-9.71,5.15-2.14,9,.1,13.24,2.91,4.6,3.46,3.23,6.93,3,9.71-3.42-.06-6.35-.49-9.81-.49C1182.24,599.54,1179,593.27,1178.05,592Z" transform="translate(-1082.14 -299.55)"/><path id="path4510" class="cls-5" d="M1181,623.09c6.53-5.24,12.33-11.86,18.64-16,8.59.48,14.78,5.06,21.59,8.74,5.13,2,6.77,5.07,8.83,8.74-4.55,8.48-17.71,7-26.49,4.37-10.71,5.86-21.93,4.72-31.4-.49,2.85-2.51,5.76-3.65,8.83-5.34Z" transform="translate(-1082.14 -299.55)"/><path id="path4512" class="cls-7" d="M1206,611.44c-5.26-8.08,1.54-6.31,7.85-6.31,5.44-1.11,7.69,2.38,10.3,5.82,4.77,5.82,3.23,8.53-1,11.66-4.51.93-6.5-1.49-9.81-3.4-13,10.77-21.8-2.05-7.36-7.77Z" transform="translate(-1082.14 -299.55)"/><path id="path4514" class="cls-4" d="M1123.67,490.24c1.31,8.33,8.44,3.9,13.2,1.81,2.61-.52,5-1.49,7.33-2.18,1.41-.18,2.2,1.09,2.93,1.46-.82,3.9-2.61,3.28-6.23,4.35-4.87,1.72-10.1,3.93-15,1.91-5.55-.23-4.61-4.16-2.19-7.35Z" transform="translate(-1082.14 -299.55)"/><path id="path4516" class="cls-5" d="M1205.42,500a24.29,24.29,0,0,0,8.8-1.09c4.15,2.47,7.49,2.9,12.47,2.9a18.71,18.71,0,0,0,1.46-6.9,56.33,56.33,0,0,1-9.9-3.26c-5.3-2.21-11.45-1.45-17.23-1.45-4,1.54-5.5,4-7,7.26,3.33,2,7.48,2.54,11.36,2.54Z" transform="translate(-1082.14 -299.55)"/><path id="path4518" class="cls-5" d="M1157.4,375.2c.81-4.77,2.5-4.7,6.23-5.81,3.3-.22,5.53-1.09,8.8-1.09,3.33,1.34,4,4.82,4,8.71-2.6,1.89-5.16,1.72-8.07,1.46-.92.8-2.25-.64-2.56-.73-4.63.37-8.43,3.38-8.43-2.54Z" transform="translate(-1082.14 -299.55)"/><path id="path4521" class="cls-6" d="M1157.76,373.39c1.85-5.7,4.41-6.54,10.27-6.54,1.76,4.82.06,4.24-3.3,5.45C1162.16,374.61,1160.9,374,1157.76,373.39Z" transform="translate(-1082.14 -299.55)"/><path id="path4523" class="cls-8" d="M1160.33,356.69c2.57-3.92,4.25-2.73,7.33-1.81.12,3.2-1.66,2.47-3.66,3.26-1.83,1-2.47-1-3.67-1.45Z" transform="translate(-1082.14 -299.55)"/><path id="path4525" class="cls-8" d="M1166.2,346.89c2.87-5.07,6.65-5.8,11.73-5.8-.34,3.49-2.41,3.68-4.77,4.71C1170.81,347.65,1166.2,355.54,1166.2,346.89Z" transform="translate(-1082.14 -299.55)"/><path id="path4527" class="cls-8" d="M1142,403.51c-2.64-5.38,0-7.4,3.67-10.53,2.71-.22,5.08-.36,8.06-.36,1.77,4.64.33,3.2-2.2,5.08.38,3.07-1.11,4.92-1.83,6.53C1146.31,406.2,1144.54,404.76,1142,403.51Z" transform="translate(-1082.14 -299.55)"/><path id="path4529" class="cls-8" d="M1136.5,408.22c2-3.09,4.47-2.13,7.7-1.81,2.74.14,5.57,1.81,8.06,2.9-1.51,3.47-3.47,2.9-7,2.9-1.29.06-1.67,1-2.57,1.46-4.45-.44-2.28-2.2-2.56-3.63-1.29.46-2.45-1.21-3.67-1.82Z" transform="translate(-1082.14 -299.55)"/><path id="path4531" class="cls-8" d="M1128.43,439.43c2.63-5.36,4.75-7.62,10.27-7.62,4.45-.62,4.71.31,7,2.54-2.38,3.38-4.43,3.27-8.44,3.27C1138.08,444.4,1130.62,440.63,1128.43,439.43Z" transform="translate(-1082.14 -299.55)"/><path id="path4537" class="cls-8" d="M1127,469.55c1-4.91,5.79-6.45,9.9-8.71,3.68-.3,7.12.88,10.63,1.45,3.16.34,3.69,3.54,4,4a42,42,0,0,1-8.06-.37h-4.4c4.28,2.62,2,3.59.73,5.81-3,.37-3.87-.88-6.23-2.18-4.74,3.39-4.65.77-6.6,0Z" transform="translate(-1082.14 -299.55)"/><path id="path4539" class="cls-8" d="M1180.13,518.18c5.67-2.94,9.16-2.3,13.56-.36,4.14-.81,5.88,1.58,8.43,3.26a30.34,30.34,0,0,1-.36,6.54,14.34,14.34,0,0,1-11.74-2.18c-1.75,5.17-4.8,4.93-9.53,4-3.13-5.61-5.92-8.8-.36-11.25Z" transform="translate(-1082.14 -299.55)"/><path id="path4541" class="cls-8" d="M1212.75,517.45c-.7-6.83,7.67-4.64,12.1-5.08,5.52-2.22,8.55,1.53,13.2,4.72-2.48,3.07-4.39,2.47-7.7,1.82C1223.24,521.62,1216.87,521.53,1212.75,517.45Z" transform="translate(-1082.14 -299.55)"/><path id="path4543" class="cls-9" d="M1191.86,484.07a93,93,0,0,0,4.76-9.8c3.35-.57,5.35.32,8.07,1.81,1.73-.37,3.81,1.57,4.4,1.82-1.78,2.53-3.61,3-5.87,3.63C1199.87,487.24,1197.08,486.36,1191.86,484.07Z" transform="translate(-1082.14 -299.55)"/><path id="path4545" class="cls-9" d="M1148.6,482.62c.27-6.47-.47-8.19,4-10.16,4.26,3,5.7,7.28,10.27,9.79-2.89,1.45-4.79.24-7-.72C1152.26,488.22,1149.39,490.41,1148.6,482.62Z" transform="translate(-1082.14 -299.55)"/><path id="path4547" class="cls-10" d="M1156.62,532.06c2.44,6.74,2.27,12.5-2.4,17.12.64,5.72,3.61,5.33,8.16,5.71,1.71-1.64,3.82-.63,5.77-.95.4-3.29-1-3-3.36-4.76,1.49-9,.21-14.63-8.17-17.12Z" transform="translate(-1082.14 -299.55)"/><path id="path4549" class="cls-10" d="M1114.35,568.68c5.18-.74,5.19-3.91,7.2-6.66,3.73-.17,6.91-2,10.09-3.33,6.61-.69,9.57.43,12.49,4.28a89.08,89.08,0,0,0-11.05-.47c-5,3.68-8,6.43-13.93,7.6-6.15,2.69-8.84,5.78-4.8-1.42Z" transform="translate(-1082.14 -299.55)"/><path id="path4551" class="cls-10" d="M1123,615.28c2,.66,4.51-.34,6.25-.48-12.14-8.25,1.67-3.3,1.92-3.8,11.84,1.39,16.15-4.72,20.18-11.89.82,7.41-1.78,10.33-7.21,13.31.53,2.81-1.85,3.66-2.4,4.76-3.74,1.69-6.72.57-9.61,0-2.06,2.61-4.18,3.17-6.24,4.75-5.84,7-14.44,3.19-18.5-.71,9,1.36,12-1.22,15.61-5.94Z" transform="translate(-1082.14 -299.55)"/><path id="path4553" class="cls-10" d="M1159.5,625.26c5.42-.85,5.89-3.17,8.17-6.18,2.87.26,5.72.95,8.65,1.43,2.88.88,3.84,1.75,6.24,2.85-.7,5.19-3.66,4.9-7.21,6.66-6-1.49-11.38-.33-15.85-4.76Z" transform="translate(-1082.14 -299.55)"/><path id="path4555" class="cls-10" d="M1150.38,499.25c5.84.5,8,3.15,11.52,6.66-1.15,3.39,1.13,5.92,1.93,8.08-2.92,2.82-5.54,1.79-9.13,1.43-1.83-1-3.41-.61-5.29-.95-4.47,5.39-11,4.76-17.77,4.76,5.37-.92,12.44-3.49,14.89-7.14C1142.73,505.33,1145.38,501.45,1150.38,499.25Z" transform="translate(-1082.14 -299.55)"/><path id="path4557" class="cls-10" d="M1124,489.27c5.73,3.61,8.68,2.76,13-.95.83-3.2,2.53-6.38,3.36-9,4.45-.9,5.58-4,7.68-7.13,1.89,4.29,1.44,8.75,1.44,13.31-2.36,2.11-5.07,2.64-7.2,3.81-5.37,5.82-18.25,12.29-18.25,0Z" transform="translate(-1082.14 -299.55)"/><path id="path4559" class="cls-10" d="M1204.18,525.88c3.84-1.39,7-3,11-3.8,5.36,2.36,10.11,6.68,13.93,10.46-4.22,0-6.49-2.12-10.57-3.33-3.28-.44-6.76,1.12-9.13,1.9-1.5,2.5-3.55,2-5.76,3.33-3,.44-4.27-1.55-6.25-2.85C1201,529.87,1201.9,528.89,1204.18,525.88Z" transform="translate(-1082.14 -299.55)"/><path id="path4561" class="cls-10" d="M1195.53,559.17c3.14,7.25,3,5.2,7.69,4.28-.35-4.38,3-5.62,4.32-8.09a69.24,69.24,0,0,0,12.49.95c.69,2.06,3.39,3.36,4.32,4.28h-9.61c-2.32,1.36-4.2.73-6.72.48-.87,7.19-3.82,7.23-9.61,6.66-5.89-2.79-4.19-4.25-2.88-8.56Z" transform="translate(-1082.14 -299.55)"/><path id="path4563" class="cls-10" d="M1219.55,562.5c4.12-1,8.48.4,11.53,1,6.65-1.41,6.5.07,9.12,4.75.63,1.83-1.32,4.37-1.44,4.76-2.17-.15-4.55-2-6.24-3.33-4.21-2.11-5-1.12-8.65.47-2.53-2.41-3-4.75-4.32-7.6Z" transform="translate(-1082.14 -299.55)"/><path id="path4565" class="cls-10" d="M1190.73,498.78c6.23,2.69,13.38,2.72,19.21,1.9,6.36-1.39,8.25.08,12.49,4.28-2.31,4.31-6.49,3.52-11,3.8-2.29-3-4.92-3.06-7.68-4.28-3.37-.2-4.77.43-7.69,1-3.73-1.27-4.42-3.8-5.28-6.66Z" transform="translate(-1082.14 -299.55)"/><path id="path4567" class="cls-10" d="M1182.56,440.77c4.23-3.11,4.61,0,7.21,0,5.42,2.3,9.23,1.57,14.41,0,3.56-1.69,6-1.1,9.12-.48,4.26,1.15,1.85,3.95,2.89,6.18a59.08,59.08,0,0,1-6.73-1.9c-3.11,5-6.94,3.8-12.49,3.8-2-1.6-3.2-1.44-5.28-2.37-2.23.7-2.47,2.14-3.85,3.33-4.92-2.17-4.8-3.85-5.28-8.56Z" transform="translate(-1082.14 -299.55)"/><path id="path4569" class="cls-10" d="M1154.22,402.73c6.09,4.08,10.11,2.35,13.93-1.43,5.52.14,9.7-1.06,14.41-2.85-.27,6.87.34,8.2-4.8,10.46-2.13,2.26-4,1.84-6.25,2.85-2.32-2.19-4.86-2.49-7.68-3.33-7.63,4-12.93,1.68-9.61-5.7Z" transform="translate(-1082.14 -299.55)"/><path id="path4571" class="cls-10" d="M1159.49,577.53c.35-6.19,1.55-5.27,6.92-4.74-.84,1.94,2.1,2.49,2.66,3.16,4.1,4.78-2.5,2.88-3.19,3.68-3.07,2-4.69-1.54-6.39-2.1Z" transform="translate(-1082.14 -299.55)"/><path id="path4573" class="cls-10" d="M1146.2,581.21c3.89-3.17,3.41,1.5,4.78,2.11-1.6,1.94-3.88,1.74-5.85,2.63-1.23-2.73.43-1.9,1.07-4.74Z" transform="translate(-1082.14 -299.55)"/><path id="path4575" class="cls-10" d="M1157.37,522.77c.45-2.37,4.7-.52,4.78-.53,2.92,1.79-.9,3.13-1.06,3.69C1153.77,527.75,1158.21,523.48,1157.37,522.77Z" transform="translate(-1082.14 -299.55)"/><path id="path4577" class="cls-10" d="M1201.51,475.91c2.81-4.64,3.68-3.44,8-4.21a36,36,0,0,1,4.26,3.16c-1.2,2.78-3.94,2.12-5.85,3.15-2.75,1.54-4.36-1.43-6.39-2.1Z" transform="translate(-1082.14 -299.55)"/><path id="path4581" class="cls-10" d="M1157.37,446.42c2.25-5.72,3.7-3,7.44-2.63C1161.83,447.93,1161.2,446.08,1157.37,446.42Z" transform="translate(-1082.14 -299.55)"/><path id="path4583" class="cls-10" d="M1166.41,476.43c4.65,1.57,8.41,3.61,12.23,4.74,4,.41,8.67-.5,11.7-1.05-.87,5.37-3,4.83-7.44,5.27-4,.48-7.61-.47-11.17-1.06-3.86-1.2-5.57-4.2-8-6.32Z" transform="translate(-1082.14 -299.55)"/><path id="path4585" class="cls-10" d="M1146.2,432.21a61.47,61.47,0,0,1,4.78-4.74c3.14,7.56,8,8.42,15.43,8.42-.47,2.55-3.34,3.34-5.32,4.22C1155.29,437,1150.77,436.17,1146.2,432.21Z" transform="translate(-1082.14 -299.55)"/><path id="path4588" class="cls-10" d="M1140.88,447c-1,2.19-.36,4.56-.54,6.84,2-5,4.92-6,9.58-7.37,2.09-4.33-.84-5.69-2.39-6.84C1146.6,445.42,1145.06,444.65,1140.88,447Z" transform="translate(-1082.14 -299.55)"/><path id="path4590" class="cls-10" d="M1173.85,376.4c4,1.44,8.07,1.05,12.24,1.05,1.09,3-1.84,2.54-2.66,3.69-4.65.38-9.37-1.63-12.77-2.64-.69-3.52,2.13-1.4,3.19-2.1Z" transform="translate(-1082.14 -299.55)"/><path id="path4592" class="cls-11" d="M1169.6,406.93c4.83-2.74,7.37-3.16,12.76-2.63C1178.12,411.09,1169.6,416.75,1169.6,406.93Z" transform="translate(-1082.14 -299.55)"/><path id="path4594" class="cls-11" d="M1159,457c6.86-.72,12.07.58,17.55-1.05.37,2.88-2.45,3.13-3.72,4.74-6.47,1.43-10.13,0-13.83-3.69Z" transform="translate(-1082.14 -299.55)"/><path id="path4596" class="cls-11" d="M1138.22,475.91c5.92,1.39,8.37.35,12.76-1.58.72,4.9-1.81,8.33-3.72,12.11-.92-1.86-.35-3.86-.53-5.79C1143.24,479.39,1141.18,477.86,1138.22,475.91Z" transform="translate(-1082.14 -299.55)"/><path id="path4598" class="cls-11" d="M1205.24,503.81c6.22-1.33,9.63-1.56,14.89,0-1.57,2.29-3.33,2-5.32,3.16C1210.67,507.45,1208.45,505.58,1205.24,503.81Z" transform="translate(-1082.14 -299.55)"/><path id="path4600" class="cls-11" d="M1124.92,518.56c5.06,1.94,7.58,2.63,12.77,2.63-3.27,3.56-6,3.62-11.17,3.16-.69,6-.79,2.45-4.79,4.21,4.85-3.8,4.25-4.75,3.19-10Z" transform="translate(-1082.14 -299.55)"/><path id="path4602" class="cls-11" d="M1147.79,564.36c6.86,1.09,9.11-1.65,12.24-4.74,3.53,0,6.39,1.06,9,1.58,1,2.7-2,4-2.66,5.27C1159.56,569.28,1153.26,567.37,1147.79,564.36Z" transform="translate(-1082.14 -299.55)"/><path id="path4604" class="cls-11" d="M1174.92,598.59c7.48,4.17,14.55,3.71,21.27,1,2.11-4.43,5.76-3.16,10.11-3.16,2.86.9,1.07,3.18,1.6,4.74-5.69.07-10.3.28-14.9,2.1-8.61,1.52-13.31.67-18.08-4.73Z" transform="translate(-1082.14 -299.55)"/><path id="path4607" class="cls-11" d="M1107.37,598.06c1,5.2,3.44,2.17,5.85,3.69-5.56,2.7-6.13,4.62-9,9a31.28,31.28,0,0,1,3.19-12.64Z" transform="translate(-1082.14 -299.55)"/><path id="path4609" class="cls-11" d="M1226,532.25l10.64,1c-.7,3.22,2.58,4,3.72,5.79a111.35,111.35,0,0,0-11.17,6.32c-2.42-2.42-6.08-4.11-8.51-5.79C1221.57,535.39,1223.46,534.74,1226,532.25Z" transform="translate(-1082.14 -299.55)"/><path id="path4696" class="cls-6" d="M1088.86,621.73c-2.18-8.68,3.93-9.91,10.35-11.18,5.87-2.9,8.91-3.06,13.66.46-1.11,4.32-4.48,4.25-8.95,5.13C1099.93,620.68,1095.22,622.3,1088.86,621.73Z" transform="translate(-1082.14 -299.55)"/><path id="path4905" class="cls-11" d="M1150.08,513.47c.15-3.45-.81-6.24-.81-9.42a30.74,30.74,0,0,1,4.08-1.08c1.3,2.57,2.71,5.37,3.8,8.08,1.95,1.42-.8,2.39-.81,2.42Z" transform="translate(-1082.14 -299.55)"/><path id="path4907" class="cls-11" d="M1171.29,498.67c5.31,0,6.77-1.26,9.25-5.12,4.29-2.14,3.48,1.48,3.81,3.77-1.56,3.48-6.66,2-10.61,2.69,0,3.1-1.49,3.9-3.53,5.12C1169.48,502.26,1170,501,1171.29,498.67Z" transform="translate(-1082.14 -299.55)"/><path id="path4909" class="cls-11" d="M1161.78,514.28c2.6-.84,3.82-2.63,5.43-4.58,2.83,0,3.89-.64,5.44-2.69a25,25,0,0,0,2.45,8.34c-1.08,3-2.46,2.64-5.44,3.23-4.51.46-6.36-.92-7.88-4.3Z" transform="translate(-1082.14 -299.55)"/><path id="path4663" class="cls-1" d="M1159.18,438.5v0Z" transform="translate(-1082.14 -299.55)"/><path id="path4427" class="cls-1" d="M1188.29,379.15c.37,2.17-1.35.83-2,1.23-1.26.54-2.3-.35-3.23-.49.4,2.18-1.28.95-2,1.48a10.3,10.3,0,0,1-3.73-.74c-1.88,1.06-2.9.07-4-.25-1.56-.09-1.95.81-3,1.23.15,1.11,1.29,1.82,1.75,2.47-.68,2.34-1.65,1.72-4.24,1.72-1.52,2.53-1.06,5.7-.25,8.37-.18-2,.83-.49,1.25-.74.51.84,1.34.67,2,1l1-1c.29,2.21,1.5.9,2.48,1.48a11.39,11.39,0,0,0,.75-2.22c.2,1.91,1.38,1.07,2.24,1.73,1.79-1.88,1.23-3.47.74-5.91,1-.87,1.75.17,2.49.25.58,2.14.94,1.48,3,1.48.87-.77.32-1.8.49-2.72,2.09.46,2.16-.5,3.49-1.23.11-1.64-1.27-1.25-1.74-1.72a10.9,10.9,0,0,0,7.46-.49c.91-2.87-1.08-1.53-1.74-2.47,1.11-.1,2-1.17,2.49-1.48-.29-1.31-1.34-.49-2-.74a13.88,13.88,0,0,1-3.73-.24ZM1204,416.83l-1.25,3.2-3.73,1.23a17.15,17.15,0,0,1-3.48-.74c.3,1.48.49,3.17,1.49,4.44,1.8,0,3,.2,4.49-1,1.19.65,1.43,1.8,3.72,1.23.83-.31,1.31.31,2-.74,2.12.21,5.29.75,7.46-.49-.17-.57.37-1.33-.5-1.73.14,0,1.51.7,2,.25-.66-2.2-1-3.5-3.23-4.19-.83.25-3.05,1.32-5,.74-2-.39-3-.41-4-2.22Zm-48.27,14.29c-1.31,1.72-1.85,3.29-4.48,3.44-.26-1.06-1.85-1.11-.74-3-1.09,1.62-.9,2.38-3.23,2.22,1.07,1.85.93,3.35.74,5.17.57,1.17,1,1,1.74,1.73-.87,1.28-1.43,1-3,1,.86.66.33,1.63.5,2.45,0,1.48-1,.51-1.5.74-2.45,2.42-3.35,1.38-5.22-.24a13.51,13.51,0,0,0-2,1.23c.14,2,.59,2,2.25,2.71.55,4.39-2,3.76-5.48,3.45-3.24,2.2-1.82,4.56-1.49,5.66,2-.36,2.32-1.33,3.23-2.95,2.36,2.95,4.18,1.53,6.22-.74.27-1.26,1.21-2,1.74-3-1.06,1.79,1.32,1.49,1.75,2,2-1.06,2-2.28,2.73-4,.28,1.77,1.6,2.36,2.24,3.2,3-.91,2.71-2.66,3-5.41.12-1.41-.71-1-1.23-1.73,1.19-.82,1.06-2.29,1.48-3.2,1.81.38,2.47-.67,3.49-1.23l.5-1c-2.3-1-3.19-.76-1.49-3.44-1.11.22-1.29,1.27-2.5.49,0-2-.23-3.93.75-5.66Zm53.47,10.08a2.38,2.38,0,0,0-1.22.26c1.27,2.83,1,5.59-3.23,5.91-1.89-.83-2.49-.29-2.74-2.71-.59,2.9-1.14,3.73-4.48,3.45-.59-.67-1.89-.61-1.75-2-.73.07-1.6.55-2.48.25-.28-.64-1.77-1.35-1-3.2a20.32,20.32,0,0,0-2,2.95c-1.82-.36-2.83-.31-4-2.22l-.74-.49a5.6,5.6,0,0,0-2.49-2.22c-2,1.14-3.11,1.57-2.74,4.44.83.63,2.87-1.43,2.25,1.72-.89.72-2.27.79-2.74,2.21,0,3.68.85,3.91,4.72,3.7,2-1.08,2.93-.89,2.49-3.7.68-.37,2.17.51,2.24-1.22.25,1.06.49,2.08.74,3.2,2,.6,3.16,1.23,5-1,.23-.39,1.06-.51.73-1.23.72.87.75,2,2.25,2.71,1.25-.12,3.74,0,5-1.73,1.79.18,3.32.59,4.73-1.47,1.21-.37,2,.06,3.24-1,.37.43.71,1.6,1.49,1.71,2-.19,2.27.5,2.73-1.47,1.55,1.15,2,2.48,4.23,3.2,1.8-1.79,2.73-3-.49-4.68h-2.49c0-.34-1.61-1.67.25-3-1.31.65-2.18,1.27-3.73,1.24-.7-.32-1.85-.73-2.74-1.24.08-.82-.19-1.67.25-2.46-.42,0-.85,0-1.27,0Zm-54.94,30.52c.38,1.84.61,3.52.91,5.06-1.68,6-4.49,5.92-8.09,3.67.89,1.4-1.58,3.42-1.58,3.58-1.19.84-2.22-.31-3.22-.45h-2.77c-.8,1.29-.3,2.73-.46,4.1-1.13,1.42-4.11,0-4.61,0V485.4c-2.17.33-2.43-1.2-3.68-1.82-1.75,1.52-1.55,1.78-2.77,3.18,1.81.76,3.79,2.06,5.07,2.75-2,4.6-5.06,4.09-10.6,4.09-6.87,4.23,4.72,10.19,7.16,2.12.9,2.38,2.82.17,4.36.63a42,42,0,0,0,4.15-3.66c2.52,1.5,3.73-1.1,4.61-1.36,1.49-2.36,4-1.84,6-2.73.63,4.15,2.93,1.57,5.06,2.73,5.54-1.09,6.51-3.88,5.63-7.07a15.78,15.78,0,0,0,4.06,2.05,119.21,119.21,0,0,0,14.74.45c2.57,1.28,6.35,3.14,10.6,2.29.08-.94,1.11-1.44,1.68-2.12a24.13,24.13,0,0,0,5.8,1,4.37,4.37,0,0,0-.27,1.77c2.5,1.86,3.48,2,6-1a54.32,54.32,0,0,0,5.73-.25c.62.44.51,1.32,1.74,1.23,2.43,0,4.16,0,6-1.48.33.41-1.93,1.89,1,1.24,1.43-.43,2.21,0,3.48-1.48a10.31,10.31,0,0,1,2.24,3.19c1.53,0,2.15.31,3-1,.56,1.23.73,2.55,1.74,3.7,1.26,1.66,1.78,2.75,4.22,3.44,1.31-1.3,2-.27,1.75-2.95.85.53.71,1.24,2,1.23.87.29,1,2.21,3,1,.09-.9-.18-1.84.25-2.7,1,.66.94,1.77,2.49,1.72,4-.72,4.14-2.84,1-5.42,3.42,1.69,4.7.75,3.23-3.2-.28-.06-.07-1-1.25-.25-.89.27-2,1.19-3.47.74-1.23-1.21-2-1.06-2.5-3,0,4.29-1.71,3.16-5.72,3.21a15.58,15.58,0,0,1-2.23-2.71c-.27.08-.69,1.5-1.5.49-.81-.59-2-.43-2.74-2-1,.9-1.61,2-3.48,2.45-2.32-.23-3.22-.27-4.72-2.21-.58,1.14-.34,1.88-1.5,2.95-.75-.33-2.18.73-2.24-1-1.74.95-2.56,2.1-4.48-.5a8,8,0,0,1-3.48,1c-1.06,0-2.18-.1-3.26-.16a12.82,12.82,0,0,0,3.23-3.32c3.61-.9,7.62,1.86,10.16-2.52.19-.95,3.37-.23.84-4.19a140,140,0,0,1-20.32,2.51c-2.11,2.09-3.56,4.24-6.34,5.55a6.42,6.42,0,0,0-.52-.57c-.21-.34-3,0-1.38-2.29-2.26,1-4.81-.33-6.45,2.74-2.64-1.3-4.57.09-6-4.11a17.89,17.89,0,0,0-4.15,1.83c-.91-.6-3.48,1.35-2.76-1.83h-2.77c-.42-.57-3.39-1-2.3-3.18-1,.48-1.47,3-3.69,1.82-.12-.93-1.27-2.45-.46-3.66-2.15-1.35-4.24,1.56-5.07-3.18Zm-7.18,8.73a2.51,2.51,0,0,0-1.58-1C1146,479.88,1146.51,480.12,1147,480.45Zm74.24,22c-1.14,1.5-3.39.35-2.3,4.54,0,0-2-2.37-2.68-.38-1.24.22-2.39,1.2-4.2.76-.87-.61.11-3.18-2.68-1.89-2.81.56-3.39-.54-4.21,2.27-1,1.05-3.41,1.35-3.44,3.41,3.83-1.69,5-1.46,8.79.38.6-.69,3.1-.62,2.3-2.65h3.44c.42-.09,4.5,4.08,3.44-.76,1.66.66,1.73,1.71,3.83,1.52.81,0,2.49,1.21,3.45,0-.1-.13,1.55-3.91-2.3-3-1.1-2.44-.59-3.53-3.44-4.16Zm-70,7.57c-1.35,1.78-2.11,3.46-3.44,5.3h-1.92c-.51,0,2.23-4.11-1.53,0-1.2,1.33.35,3.44-3.06,3.41l-3.44-2.27c-1.1.36-2.19.82-3.44,1.14,2.12,2.09,3.46.83,2.29,4.91-2,2.32-2.71,3.61-6.88,3a32.5,32.5,0,0,0-3.82-.76c-.68,1.61-.55,2.89-1.92,4.54-.89-.43-2.67,0-3.06-1.51-2.2,2.18-.84,2.78-4.59,1.13,0,4.72,1.86,4.36,8,3,4-.4,6.76-1.23,9.57-4.16,4.48-.45,8.09-.82,10-5.31,2.63-.71,4.73-1.36,7.65-2.27,3.92-1.55,7.58-1.69,11.47-3,0-3.45.72-5.47-2.29-6.82-.73,1.2.1,3.75-2.3,3.78h-2.68c-.89.16-1.91,2.44-4.2.76-.12-1.44-.77-3.25-.39-4.92Zm60,14.39c-.39-.11-.84.3-1.46,1.52.15,1.68.88,3.79,0,5.67h-3.45a9.54,9.54,0,0,1-2.3-1.51c-.37.75-1.83.94-1.15,2.27h-1.52c-.47-.92-1.15-2.54-1.92-3.78-.29,2.88.35,5.9-2.29,6.81-.74-.25-1.88.72-2.3-.76a7.75,7.75,0,0,0-.9,4.13,16.47,16.47,0,0,0-2,2.37c0-1.6-.86-3-3.16-3.84-.85,4.17-1.48,5.35-6.51,4.92-.78-1.55,1.18-2.81-1.91-3.8-1.53.31-4.53,1.34-6.89.76-.54-.67,1.17-3.33-1.52-1.88-2.6-.24-4.06,1.15-5.36-2.28-1.59,5.25.19,8.83,3.79,11.06.77-.08,1.48-.22,2.11-.34,2.2,1.92,3.82.46,4.86-1.85-.26,2.86.05,4.25,1.63,4.83.91.11,1.81.22,2.75.26,1.24-1.05,1.9-2.63,2.71-4a9.63,9.63,0,0,0,1.56,3.65,11.27,11.27,0,0,0,1.47-.83c.6-.86.9-2,1.46-3a4.26,4.26,0,0,0,.59,1.21c.15-.16.34-.29.48-.46,0,.25-.08.54-.12.81a5.54,5.54,0,0,0,2.79,1c.25,0,.44,0,.67,0,.91-.25,1.9-.44,3.09-.67.3-.08.45-.16.7-.23,1.27-1.28.88-3.7,0-6.52a40.38,40.38,0,0,1,4.11.93c2.68-.47,3.71-3,4.85-5-.2,5-.06,6.79,4.86,7.77a27.47,27.47,0,0,1,2.25-2.22,9.43,9.43,0,0,1,.14,3.16l2.19-.54c2.87,1.95,5.18,4.61,7.64,6.44,1.47.66,3.06.24,4.6.37,4.48.91,13.67-.09,6.12-3.41,4.13-1.35,0-2.45,0-3,4.17-.14,3.54-.31,4.59-3.79,1.84,1.86,4.25.33,5,.38,1.17-1.73,2.81-2.53,4.2-3.78,2.85,3.15,2.8,1.4,5.35,0-1.35-2.32-3.22-1.48-5-2.28-2,.84-3.5,1.08-5.35,1.9-3-.15-3.32-1.89-4.59-4.17.39,1.31-1.79,1.47-2.3,1.89a5.8,5.8,0,0,1-1.64,3.62,5.12,5.12,0,0,1-1.38-.82,4.14,4.14,0,0,0,.06,1.48,14.74,14.74,0,0,1-3.54.64c-1.32-.81-.77-2-1.15-3-2.83,4.22-4.62,3.11-6.15.24,0-.39,0-.57,0-1l-.4.34c-.08-.16-.16-.26-.24-.43.1-.23.19-.34.29-.62-.78-.93-.12-1.38-1.92-2.27-.18-.54-1.93-.2-.77-2.28h-3.44a27.32,27.32,0,0,1-2.29-2.64c-.81-1.62-1.31-3.23-2-3.41ZM1129.53,558c-.78-.12-.85.73-2,.87a27.49,27.49,0,0,0,1.52,4.54c.83,5.37-4,5-5.73-.37l-1.53.75c-.66,3.4.64,5.39,1.53,8.33a22.5,22.5,0,0,1-5.74-.38c-1.38,2.59-2.72,5.14-3.82,7.58,1.19,1.32,2.77.5,4.2.75,2.14-1.15,3.78-3,5.74-4.54,5.81,3.29,8.86.48,10.13-4.18,4.72,4,12.43,3.77,19.7,3,5.35-4.06,9.84-3.78,17.22-3.78,7.41-.41,16.18-3.66,11.85-11.37-.79,5.08-2.15,3.11-5,2.28-1.35.68-1.54-.77-2.29-1.14-1.35.75-.51,2-.77,3-2.22,1.76-2-1.22-3.06-1.88-.61-1.33-1.79-.51-2.67-.76a32.62,32.62,0,0,1-1.15,4.54c.92,2.47-.85,1.89-1.53,3.41-4,.41-4.06-1.75-5.74-3.41a24.14,24.14,0,0,1,.38-5.68c-2.8-.94-1.46,2.54-1.53,2.66,1.16,3.7-.5,4.65-2.3,6.43a20,20,0,0,1-3.44-.76V563c-1.57-.58-2.64,1.05-3.82,1.52-3.54,2.57-3.17,1.62-6.12,0v-4.92c-1.35.59-2,2.28-2.68,3a60.23,60.23,0,0,0-6.45.85c0-.41,0-.82,0-1.22-3.3-.63-2.35-1.84-3.82-3.79a2.74,2.74,0,0,0-1.1-.5Zm81,1.63-1.52,2.28h-1.53c-.27,1.83,2.49,2.73-.77,5.29-3.31-.66-5-.93-6.12-4.17,1.93,4.31,1.08,5.58-4.59,4.55,1,4.71,2,6.57,7.27,7.2,2.9-2.87,4.83-6.09,7.65-9.85,1.67-.16,3.83-.71,5.74-.38,0-.89.77-3.53,0-4.92-1.91.38-3.63,1.16-6.13,0Zm17.22,4.92c-2.48,3.69-3.84,5.87-6.5,1.9,1.71,3.8,3.41,5.18,8,6.81,0,4.25-1.83,5.86-1.92,9.85,7.43,2.2,8,.75,7.28-7.2,1,.41,2,2.14,3.82,1.52.55-1.09,2.54-1.36,1.91-3.79,2.94,3.89,9.42,6.29,7.27-1.14,3.9.39,7,.71,4.59-4.16-.14,0-2.71,3.29-4.21-.38-.89.63.2,3.19-2.68,1.9-3,0-3.07,1.16-4.59-1.9-.78,1.85,1.22,3.4-1.9,4.54-2.55.25-3.17,1.55-5.36-1.51-3.66-1.6-6.27-1.47-5.74-6.44ZM1162,588c-1.49,4.92-.25,9.87.38,15.15a109.84,109.84,0,0,0,13.77,2.64c3.45,3.42,6.58,4.28,11.09,1.9.89.13,1.86-.31,2.68.37.67-.88.2-2.68,2.3-3,1.63-.62,3.26-1.14,5-1.89a19.8,19.8,0,0,0-5.36-1.51c-1.19.79-1.74,2.19-3.44,2.26-1.41-1.4-1.24-2.46-3.05-3-.38,1,1,2.59-1.15,3-2.19-.21-4-.07-6.13-.37,1.69-3.76,4.16-5.41.77-7.2-1.19,2.95-.83,4-4.21,4.55-.76-1.13-3.69-.1-2.29-3.41-.44.07-.93,1-2.3.38-.19-.51-2.64-1.52-1.14-3-5.41-.53-6.84-.9-6.89-6.82Zm-36,16.28c-1.67.49-2.45,1.45-3.83,2.27,1.49.51,2.82,1,4.21,1.51,1.7.92.33,3.27.38,3.8,4.16,3.4,3.74,6.3,0,9.08-1.33.57-3.07-.31-3.82-.38-.27,2.35-1.36,2.26-3.45,3.41-3.51,2.61-5,1.77-5-3l-4.59-.75c1.09,3-1.2,2.59-1.91,4.15a22,22,0,0,1-6.12.38c-.07,2.91-2,1.93-3.07,3,3.52.76,7.27.34,10.72,0,.08-2.49,2.36-1.31,3.44-1.9,0,6.29,2.65,3.62,5,1.9.76,1.33,2,.49,3.06.75,2.6-.44,3-1.34,4.59-3.41,2,2.79,3.16,2,5.74,2.28a39.19,39.19,0,0,1,3.06-3,20.66,20.66,0,0,0,4.59-1.13c4.57,0,8.41-2.15,11.86-4.54a18.11,18.11,0,0,0,8.41.76c2-7.27-1-10.75-6.12-15.15-1.29,3.34-3.38,3.46-6.12,4.54.72,1.92-1.33,2.12-1.91,3-3.19-.14-2.54-1.51-3.83-3.42-1.22.95,0,2.62,0,3.42,1,2.85-.23,3.24-1.15,5.29-2.31,1-4.72.76-7.26.76a13.82,13.82,0,0,0-1.14-3.41c-1.52.94-2.15-1.21-2.69-1.51-.91-2.3.89-3.8,1.15-4.93-3-.42-2.77-2.49-4.2-3.78Zm101.35,10.22c-1.08.41-1.26,1.33-3.05,1.14.11.18,2.71.69,1.15,1.89-.57,1.25.17,2.18-1.54,3.41,6.23,2.74,1.35,7.57-4.59,7.57-2.91-.29-3.9.34-5.73-2.65-2.07,2-.16,4-5.74,1.9-4.34.43-3.47.73-3.83-3-4,0-3.5.48-4.2-3-1.89,4.21-2.86,9-8.42,9.09,4.58,0,8.19-.94,12.24-.76,3,.55,5.93,1.77,8.8-.75,1.74.26,3,1,5,.75,2.49,0,4.35,1.16,5.36-1.88,6.24,4.63,10.12.84,6.5-5.69,2.76.82,2.25,2.44,3.82-1.13,3.9.38,4.48,1.16,4.6-3-1.63-.33-4.6-1.36-7.27-.38-1.15-1.28-3.86-.42-3.07-3.41Z" transform="translate(-1082.14 -299.55)"/><path id="path5031" class="cls-3" d="M1166.72,362.79c7.47,4.34,9.74,1.12,11.13-5.8,3.46,1.7,2.89-1.22,4.11-1.74,1.48,0,2.93-1.94,3.51-.58,8.57,2.45,2.48,8.7-4.1,8.7-1.55,5.37-3.2,2-6.45.58,3.29,3.9-1.63,2-2.34,2.9C1168.47,367.7,1169.39,364.65,1166.72,362.79Z" transform="translate(-1082.14 -299.55)"/></g><path id="path5020" class="cls-2" d="M1168.48,299.55c-3.69,1.82-5.42.28-7.62,5.22-1.13,5.56-2.82,9.13,2.34,12.18-3.9,5.15-7.27,7.63-2.93,14.51,1.55,1.92,1,4.75,4.69,5.8,3.57.35,5.67,6.31,6.44-4.06a30,30,0,0,0,4.7-2.32c-.11-.39-.21-.76-.31-1.14.29.19.56.38.89.56,2.28-2,5.1-2.39,5.28-7,.64-6.4,1.84-7.27-4.69-8.13a19.71,19.71,0,0,0-2.9,2.37c.15-7.44,1.52-14.68-5.89-18Zm-1.55,40.91a8,8,0,0,0-3.15.86h-3.51c-1.38,1.17-4.22-.8-4.11,3.48-2.8.7-3.8,1.09-7,1.75-5.79.57-7-.22-4.69,7,5.93-.59,3.83.87,5.86-3.49.76.5-.53,5.18,3.52,2.33l4.1-1.16c.51-.75,5.23.52,2.35-3.48h3.51c1.76.65,1.87,3.08,4.7,1.73,1.57-2.86,6.23.86,3.51-6.38C1170.37,342.35,1169.46,340.39,1166.93,340.46Zm11.51,4.34c-2.56,2.54-7.07-.69-1.76,7,2.33.21,3.44,4,6.45.58,1.79.16,4.27,1.36,6.45.58,6.53,0,5.83,1.27,4.1-4.06-4.23-.38-5.26.42-8.2-2.9C1183.07,345.57,1180.73,347.06,1178.44,344.8Z" transform="translate(-1082.14 -299.55)"/><path id="path5033" class="cls-3" d="M1179,361.63c-6.17.68-7.06-2.14-10-4.06-2.27-.2-3.56,1.18-5.27,1.74,1.62,4.05-2,1.55-2.94,2.32l-2.93,2.32c4.13,4.33,3.91,2.18,7.62-.58-1.34,11.16,2.51,1.77,4.11,2.9,3.75,3,2.62-1.3,3.51-1.74,2,.84,3.91-1.93,5.87-2.9Z" transform="translate(-1082.14 -299.55)"/><path id="path5035" class="cls-8" d="M1165.7,300.05c-5.71-.17-6.07,12.39-2,17.4.23,1.15,1.17,2.54,0,4.24-3.14,1.38-4,1.52-2.29,5.94,4.56,8.12,9.48-2.29,9.43-7.93,0-3.22.14-5.58-2-7.91a15.41,15.41,0,0,1,1.72-9.34C1168.62,300.8,1167,300.09,1165.7,300.05Zm1.38,39.31a12,12,0,0,0-3.71.72c-4.3-1.16-7.77,1.15-11.71,4.25-4.25,0-8.07-.13-6.3,5.09,3-.59,6.08-.63,8.29-2,2.58-.25,2.91.42,3.43-2.26.45.5,1.57,1,2,2.26,4.37.87,2.62-2.43,6.58-2.82,3.2.95,7.3,2.32,6-2.83C1170.19,340.11,1168.83,339.37,1167.08,339.36Z" transform="translate(-1082.14 -299.55)"/><path id="path5040" class="cls-1" d="M1130.5,418.45c-.38,4.47-.56,4.65,2.29,3.39.68,2.19,1.83,2.23,3.43,3.12l2.29-.57c-1.09,4.24,1.43.47,1.71.57a21.21,21.21,0,0,0,4-3.68c1.35,4.41,1.76.47,3.15.85-.32-1.62.57-2.4,1.14-3.68,2.23-.33,3.16-2,4.57-3.4a15.72,15.72,0,0,1-4.28-.28c-2.35,2.68-3.15,1.07-4.86.57.86,1.77-1.1,2.38-1.43,3.11h-2c2,2.46-.67,1.11-.86,1.41-.73,2-1.33-.22-1.72-.28a19.3,19.3,0,0,1-2.28,1.7C1132.43,421.52,1132.17,420.64,1130.5,418.45Z" transform="translate(-1082.14 -299.55)"/></g></svg>